SplineFontDB: 3.2
FontName: Samaano-Bold
FullName: Samaano Bold
FamilyName: Samaano
Weight: Bold
Copyright: Copyright 2024 The Samaano Project Authors (https://github.com/mitradranirban/samaano-fonts)
UComments: "2024-8-27: Created with FontForge (http://fontforge.org)"
Version: 1.1
ItalicAngle: 0
UnderlinePosition: 0
UnderlineWidth: 102
Ascent: 1638
Descent: 410
InvalidEm: 0
UFOAscent: 1638
UFODescent: -410
LayerCount: 2
Layer: 0 0 "Back" 1
Layer: 1 0 "public.default" 0 "glyphs"
StyleMap: 0x0000
FSType: 0
OS2Version: 0
OS2_WeightWidthSlopeOnly: 0
OS2_UseTypoMetrics: 0
CreationTime: 1729151287
ModificationTime: 1729154242
PfmFamily: 16
TTFWeight: 700
TTFWidth: 5
LineGap: 0
VLineGap: 0
Panose: 2 7 8 9 2 2 5 2 4 4
OS2TypoAscent: 2457
OS2TypoAOffset: 0
OS2TypoDescent: -615
OS2TypoDOffset: 0
OS2TypoLinegap: 0
OS2WinAscent: 2476
OS2WinAOffset: 0
OS2WinDescent: 958
OS2WinDOffset: 0
HheadAscent: 2457
HheadAOffset: 0
HheadDescent: -615
HheadDOffset: 0
OS2CapHeight: 1548
OS2XHeight: 1023
OS2FamilyClass: 1031
OS2Vendor: 'anir'
MarkAttachClasses: 1
DEI: 91125
LangName: 1033 "Copyright 2024 The Samaano Project Authors (https://github.com/mitradranirban/samaano-fonts)" "" "" "" "" "Version 1.000" "" "" "Dr Anirban Mitra" "Dr Anirban Mitra" "A Monospace Variable Font Family in Latin and Devanagari created using mostly rectangular components" "https://fonts.atipra.in" "https://github.com/mitradranirban" "Copyright 2024 The Samaano Project Authors (https://github.com/mitradranirban/samaano-fonts)+AAoA +AAoA-This Font Software is licensed under the SIL Open Font License, Version 1.1.+AAoA-This license is available with a FAQ at: http://scripts.sil.org/OFL+AAoACgAA" "http://scripts.sil.org/OFL"
PickledDataWithLists: "(dp0
Vorg.unifiedfontobject.normalizer.modTimes
p1
Vversion: 0.6.1\\u000a1729145354.1 fontinfo.plist\\u000a1729145354.1 layercontents.plist\\u000a1729145354.1 metainfo.plist
p2
sVpublic.glyphOrder
p3
(lp4
V.notdef
p5
aVspace
p6
aVexclam
p7
aVquotedbl
p8
aVnumbersign
p9

StartChar: .notdef
Encoding: 0 0 0
GlifName: _notdef
Width: 1024
VWidth: 0
Flags: W
LayerCount: 2
Fore
SplineSet
18 -26 m 257
 1016 -26 l 257
 1016 1614 l 257
 18 1614 l 257
 18 -26 l 257
92 54 m 257
 92 1537 l 257
 485 817 l 257
 92 54 l 257
184 54 m 257
 523 740 l 257
 864 54 l 257
 184 54 l 257
212 1548 m 257
 843 1548 l 257
 525 899 l 257
 212 1548 l 257
563 822 m 257
 939 1548 l 257
 939 54 l 257
 563 822 l 257
EndSplineSet
EndChar

StartChar: A
Encoding: 65 65 1
GlifName: A_
Width: 1024
VWidth: 0
Flags: W
LayerCount: 2
Fore
SplineSet
125 0 m 257
 324 0 l 257
 324 1548 l 257
 125 1548 l 257
 125 0 l 257
186 1332 m 257
 847 1332 l 257
 847 1548 l 257
 186 1548 l 257
 186 1332 l 257
204 1023 m 257
 204 849 l 257
 835 849 l 257
 835 1023 l 257
 204 1023 l 257
722 0 m 257
 922 0 l 257
 922 1548 l 257
 722 1548 l 257
 722 0 l 257
EndSplineSet
EndChar

StartChar: AE
Encoding: 198 198 2
GlifName: A_E_
Width: 1024
VWidth: 0
Flags: W
LayerCount: 2
Fore
SplineSet
646 185 m 257
 646 0 l 257
 996 0 l 257
 996 185 l 257
 646 185 l 257
125 0 m 257
 324 0 l 257
 324 1548 l 257
 125 1548 l 257
 125 0 l 257
186 1332 m 257
 974 1332 l 257
 974 1548 l 257
 186 1548 l 257
 186 1332 l 257
204 1023 m 257
 204 849 l 257
 922 849 l 257
 922 1023 l 257
 204 1023 l 257
551 0 m 257
 751 0 l 257
 751 1548 l 257
 551 1548 l 257
 551 0 l 257
EndSplineSet
EndChar

StartChar: B
Encoding: 66 66 12
GlifName: B_
Width: 1024
VWidth: 0
Flags: W
LayerCount: 2
Fore
SplineSet
110 0 m 257
 318 0 l 257
 318 1537 l 257
 110 1537 l 257
 110 0 l 257
434 1331 m 257
 947 989 l 257
 947 1215 l 257
 434 1537 l 257
 434 1331 l 257
433 820 m 257
 948 991 l 257
 948 1215 l 257
 433 1023 l 257
 433 820 l 257
375 201 m 257
 375 0 l 257
 929 364 l 257
 929 588 l 257
 375 201 l 257
442 567 m 257
 929 364 l 257
 929 586 l 257
 442 766 l 257
 442 567 l 257
271 1023 m 257
 271 820 l 257
 433 820 l 257
 433 1023 l 257
 271 1023 l 257
270 766 m 257
 270 567 l 257
 442 567 l 257
 442 766 l 257
 270 766 l 257
208 200 m 257
 208 0 l 257
 375 0 l 257
 375 200 l 257
 208 200 l 257
270 1537 m 257
 270 1331 l 257
 433 1331 l 257
 433 1537 l 257
 270 1537 l 257
EndSplineSet
EndChar

StartChar: C
Encoding: 67 67 13
GlifName: C_
Width: 1024
VWidth: 0
Flags: W
LayerCount: 2
Fore
SplineSet
71 1537 m 257
 71 0 l 257
 271 0 l 257
 271 1537 l 257
 71 1537 l 257
170 1537 m 257
 170 1338 l 257
 953 1338 l 257
 953 1537 l 257
 170 1537 l 257
156 199 m 257
 156 0 l 257
 951 0 l 257
 951 199 l 257
 156 199 l 257
EndSplineSet
EndChar

StartChar: D
Encoding: 68 68 19
GlifName: D_
Width: 1024
VWidth: 0
Flags: W
LayerCount: 2
Fore
SplineSet
107 1548 m 257
 107 0 l 257
 309 0 l 257
 309 1548 l 257
 107 1548 l 257
433 1548 m 257
 433 1350 l 257
 916 767 l 257
 916 1023 l 257
 433 1548 l 257
441 201 m 257
 441 0 l 257
 913 769 l 257
 913 1023 l 257
 441 201 l 257
271 1548 m 257
 271 1349 l 257
 433 1349 l 257
 433 1548 l 257
 271 1548 l 257
279 200 m 257
 279 0 l 257
 441 0 l 257
 441 200 l 257
 279 200 l 257
EndSplineSet
EndChar

StartChar: Dcroat
Encoding: 272 272 21
GlifName: D_croat
Width: 1024
VWidth: 0
Flags: W
LayerCount: 2
Fore
SplineSet
0 935 m 257
 0 730 l 257
 476 730 l 257
 476 935 l 257
 0 935 l 257
107 1548 m 257
 107 0 l 257
 309 0 l 257
 309 1548 l 257
 107 1548 l 257
433 1548 m 257
 433 1350 l 257
 916 767 l 257
 916 1023 l 257
 433 1548 l 257
441 201 m 257
 441 0 l 257
 913 769 l 257
 913 1023 l 257
 441 201 l 257
271 1548 m 257
 271 1349 l 257
 433 1349 l 257
 433 1548 l 257
 271 1548 l 257
279 200 m 257
 279 0 l 257
 441 0 l 257
 441 200 l 257
 279 200 l 257
EndSplineSet
EndChar

StartChar: E
Encoding: 69 69 22
GlifName: E_
Width: 1024
VWidth: 0
Flags: W
LayerCount: 2
Fore
SplineSet
103 1537 m 257
 103 0 l 257
 303 0 l 257
 303 1537 l 257
 103 1537 l 257
181 1537 m 257
 181 1333 l 257
 900 1333 l 257
 900 1537 l 257
 181 1537 l 257
170 203 m 257
 170 0 l 257
 916 0 l 257
 916 203 l 257
 170 203 l 257
170 888 m 257
 170 688 l 257
 669 688 l 257
 669 888 l 257
 170 888 l 257
EndSplineSet
EndChar

StartChar: Eng
Encoding: 330 330 31
GlifName: E_ng
Width: 1024
VWidth: 0
Flags: W
LayerCount: 2
Fore
SplineSet
524 -211 m 257
 524 -408 l 257
 911 -408 l 257
 911 -211 l 257
 524 -211 l 257
112 1490 m 257
 112 0 l 257
 313 0 l 257
 313 1490 l 257
 112 1490 l 257
711 1476 m 257
 711 -408 l 257
 912 -408 l 257
 912 1476 l 257
 711 1476 l 257
112 1550 m 257
 112 1353 l 257
 911 1353 l 257
 911 1550 l 257
 112 1550 l 257
EndSplineSet
EndChar

StartChar: Eth
Encoding: 208 208 33
GlifName: E_th
Width: 1024
VWidth: 0
Flags: W
LayerCount: 2
Fore
SplineSet
0 935 m 257
 0 730 l 257
 476 730 l 257
 476 935 l 257
 0 935 l 257
107 1548 m 257
 107 0 l 257
 309 0 l 257
 309 1548 l 257
 107 1548 l 257
433 1548 m 257
 433 1350 l 257
 916 767 l 257
 916 1023 l 257
 433 1548 l 257
441 201 m 257
 441 0 l 257
 913 769 l 257
 913 1023 l 257
 441 201 l 257
271 1548 m 257
 271 1349 l 257
 433 1349 l 257
 433 1548 l 257
 271 1548 l 257
279 200 m 257
 279 0 l 257
 441 0 l 257
 441 200 l 257
 279 200 l 257
EndSplineSet
EndChar

StartChar: Euro
Encoding: 8364 8364 34
GlifName: E_uro
Width: 1024
VWidth: 0
Flags: W
LayerCount: 2
Fore
SplineSet
56 520 m 257
 56 372 l 257
 852 372 l 257
 852 520 l 257
 56 520 l 257
68 935 m 257
 68 788 l 257
 848 788 l 257
 848 935 l 257
 68 935 l 257
324 1023 m 257
 324 179 l 257
 514 179 l 257
 514 1023 l 257
 324 1023 l 257
642 1633 m 257
 323 1023 l 257
 514 1023 l 257
 762 1601 l 257
 642 1633 l 257
324 179 m 257
 668 -406 l 257
 820 -406 l 257
 514 179 l 257
 324 179 l 257
EndSplineSet
EndChar

StartChar: F
Encoding: 70 70 35
GlifName: F_
Width: 1024
VWidth: 0
Flags: W
LayerCount: 2
Fore
SplineSet
141 1548 m 257
 141 0 l 257
 341 0 l 257
 341 1548 l 257
 141 1548 l 257
243 1548 m 257
 243 1347 l 257
 877 1347 l 257
 877 1548 l 257
 243 1548 l 257
231 875 m 257
 231 672 l 257
 780 672 l 257
 780 875 l 257
 231 875 l 257
EndSplineSet
EndChar

StartChar: G
Encoding: 71 71 36
GlifName: G_
Width: 1024
VWidth: 0
Flags: W
LayerCount: 2
Fore
SplineSet
110 1548 m 257
 110 0 l 257
 312 0 l 257
 312 1548 l 257
 110 1548 l 257
168 1548 m 257
 168 1347 l 257
 868 1347 l 257
 868 1548 l 257
 168 1548 l 257
141 202 m 257
 141 0 l 257
 904 0 l 257
 904 202 l 257
 141 202 l 257
705 561 m 257
 705 18 l 257
 904 18 l 257
 904 561 l 257
 705 561 l 257
EndSplineSet
EndChar

StartChar: H
Encoding: 72 72 40
GlifName: H_
Width: 1024
VWidth: 0
Flags: W
LayerCount: 2
Fore
SplineSet
89 1537 m 257
 89 0 l 257
 289 0 l 257
 289 1537 l 257
 89 1537 l 257
675 1537 m 257
 675 0 l 257
 885 0 l 257
 885 1537 l 257
 675 1537 l 257
209 1023 m 257
 209 818 l 257
 755 818 l 257
 755 1023 l 257
 209 1023 l 257
EndSplineSet
EndChar

StartChar: Hbar
Encoding: 294 294 41
GlifName: H_bar
Width: 1024
VWidth: 0
Flags: W
LayerCount: 2
Fore
SplineSet
89 1537 m 257
 89 0 l 257
 289 0 l 257
 289 1537 l 257
 89 1537 l 257
675 1537 m 257
 675 0 l 257
 885 0 l 257
 885 1537 l 257
 675 1537 l 257
209 1023 m 257
 209 818 l 257
 755 818 l 257
 755 1023 l 257
 209 1023 l 257
28 1434 m 257
 28 1226 l 257
 953 1226 l 257
 953 1434 l 257
 28 1434 l 257
EndSplineSet
EndChar

StartChar: I
Encoding: 73 73 43
GlifName: I_
Width: 1024
VWidth: 0
Flags: W
LayerCount: 2
Fore
SplineSet
144 1537 m 257
 144 1335 l 257
 845 1335 l 257
 845 1537 l 257
 144 1537 l 257
377 1468 m 257
 377 84 l 257
 577 84 l 257
 577 1468 l 257
 377 1468 l 257
124 204 m 257
 124 6 l 257
 880 6 l 257
 880 204 l 257
 124 204 l 257
EndSplineSet
EndChar

StartChar: J
Encoding: 74 74 54
GlifName: J_
Width: 1024
VWidth: 0
Flags: W
LayerCount: 2
Fore
SplineSet
700 1527 m 257
 700 0 l 257
 900 0 l 257
 900 1527 l 257
 700 1527 l 257
126 208 m 257
 126 0 l 257
 741 0 l 257
 741 208 l 257
 126 208 l 257
125 503 m 257
 125 52 l 257
 323 52 l 257
 323 503 l 257
 125 503 l 257
EndSplineSet
EndChar

StartChar: K
Encoding: 75 75 56
GlifName: K_
Width: 1024
VWidth: 0
Flags: W
LayerCount: 2
Fore
SplineSet
118 1537 m 257
 118 5 l 257
 319 5 l 257
 319 1537 l 257
 118 1537 l 257
163 999 m 257
 282 835 l 257
 939 1529 l 257
 672 1529 l 257
 163 999 l 257
293 798 m 257
 156 643 l 257
 711 0 l 257
 992 0 l 257
 293 798 l 257
EndSplineSet
EndChar

StartChar: L
Encoding: 76 76 57
GlifName: L_
Width: 1024
VWidth: 0
Flags: W
LayerCount: 2
Fore
SplineSet
53 1542 m 257
 53 0 l 257
 251 0 l 257
 251 1542 l 257
 53 1542 l 257
162 202 m 257
 162 0 l 257
 888 0 l 257
 888 202 l 257
 162 202 l 257
EndSplineSet
EndChar

StartChar: Lcaron
Encoding: 317 317 59
GlifName: L_caron
Width: 1024
VWidth: 0
Flags: W
LayerCount: 2
Fore
SplineSet
53 1542 m 257
 53 0 l 257
 251 0 l 257
 251 1542 l 257
 53 1542 l 257
162 202 m 257
 162 0 l 257
 888 0 l 257
 888 202 l 257
 162 202 l 257
447 1496 m 257
 447 1264 l 257
 577 1264 l 257
 577 1496 l 257
 447 1496 l 257
EndSplineSet
EndChar

StartChar: Lslash
Encoding: 321 321 61
GlifName: L_slash
Width: 1024
VWidth: 0
Flags: W
LayerCount: 2
Fore
SplineSet
171 1542 m 257
 171 0 l 257
 369 0 l 257
 369 1542 l 257
 171 1542 l 257
280 202 m 257
 280 0 l 257
 1006 0 l 257
 1006 202 l 257
 280 202 l 257
16 902 m 257
 96 730 l 257
 530 932 l 257
 450 1104 l 257
 16 902 l 257
EndSplineSet
EndChar

StartChar: M
Encoding: 77 77 62
GlifName: M_
Width: 1024
VWidth: 0
Flags: W
LayerCount: 2
Fore
SplineSet
101 1548 m 257
 101 0 l 257
 304 0 l 257
 304 1548 l 257
 101 1548 l 257
722 1537 m 257
 722 0 l 257
 924 0 l 257
 924 1537 l 257
 722 1537 l 257
138 1429 m 257
 428 1031 l 257
 616 1031 l 257
 280 1548 l 257
 138 1429 l 257
749 1537 m 257
 427 1023 l 257
 614 1023 l 257
 915 1488 l 257
 749 1537 l 257
EndSplineSet
EndChar

StartChar: N
Encoding: 78 78 63
GlifName: N_
Width: 1024
VWidth: 0
Flags: W
LayerCount: 2
Fore
SplineSet
95 1548 m 257
 95 0 l 257
 300 0 l 257
 300 1548 l 257
 95 1548 l 257
722 1548 m 257
 722 0 l 257
 924 0 l 257
 924 1548 l 257
 722 1548 l 257
96 1548 m 257
 723 0 l 257
 926 0 l 257
 301 1548 l 257
 96 1548 l 257
EndSplineSet
EndChar

StartChar: O
Encoding: 79 79 67
GlifName: O_
Width: 1024
VWidth: 0
Flags: W
LayerCount: 2
Fore
SplineSet
110 1537 m 257
 110 0 l 257
 311 0 l 257
 311 1537 l 257
 110 1537 l 257
707 1537 m 257
 707 0 l 257
 910 0 l 257
 910 1537 l 257
 707 1537 l 257
174 1537 m 257
 174 1337 l 257
 817 1337 l 257
 817 1537 l 257
 174 1537 l 257
150 204 m 257
 150 0 l 257
 823 0 l 257
 823 204 l 257
 150 204 l 257
EndSplineSet
EndChar

StartChar: OE
Encoding: 338 338 68
GlifName: O_E_
Width: 1024
VWidth: 0
Flags: W
LayerCount: 2
Fore
SplineSet
111 1548 m 257
 111 0 l 257
 312 0 l 257
 312 1548 l 257
 111 1548 l 257
503 1548 m 257
 503 0 l 257
 704 0 l 257
 704 1548 l 257
 503 1548 l 257
148 1548 m 257
 148 1349 l 257
 880 1349 l 257
 880 1548 l 257
 148 1548 l 257
150 200 m 257
 150 0 l 257
 888 0 l 257
 888 200 l 257
 150 200 l 257
606 859 m 257
 606 659 l 257
 850 659 l 257
 850 859 l 257
 606 859 l 257
EndSplineSet
EndChar

StartChar: Oslash
Encoding: 216 216 76
GlifName: O_slash
Width: 1024
VWidth: 0
Flags: W
LayerCount: 2
Fore
SplineSet
788 1667 m 257
 35 -45 l 257
 223 -118 l 257
 976 1594 l 257
 788 1667 l 257
110 1537 m 257
 110 0 l 257
 311 0 l 257
 311 1537 l 257
 110 1537 l 257
707 1537 m 257
 707 0 l 257
 910 0 l 257
 910 1537 l 257
 707 1537 l 257
174 1537 m 257
 174 1337 l 257
 817 1337 l 257
 817 1537 l 257
 174 1537 l 257
150 204 m 257
 150 0 l 257
 823 0 l 257
 823 204 l 257
 150 204 l 257
EndSplineSet
EndChar

StartChar: P
Encoding: 80 80 78
GlifName: P_
Width: 1024
VWidth: 0
Flags: W
LayerCount: 2
Fore
SplineSet
112 1548 m 257
 112 9 l 257
 302 9 l 257
 302 1548 l 257
 112 1548 l 257
191 1548 m 257
 191 1346 l 257
 847 1346 l 257
 847 1548 l 257
 191 1548 l 257
667 1548 m 257
 667 881 l 257
 867 881 l 257
 867 1548 l 257
 667 1548 l 257
175 1068 m 257
 175 868 l 257
 862 868 l 257
 862 1068 l 257
 175 1068 l 257
EndSplineSet
EndChar

StartChar: Q
Encoding: 81 81 79
GlifName: Q_
Width: 1024
VWidth: 0
Flags: W
LayerCount: 2
Fore
SplineSet
110 1537 m 257
 110 5 l 257
 309 5 l 257
 309 1537 l 257
 110 1537 l 257
709 1537 m 257
 709 0 l 257
 910 0 l 257
 910 1537 l 257
 709 1537 l 257
174 1537 m 257
 174 1337 l 257
 817 1337 l 257
 817 1537 l 257
 174 1537 l 257
150 205 m 257
 150 0 l 257
 823 0 l 257
 823 205 l 257
 150 205 l 257
558 21 m 257
 744 -285 l 257
 935 -169 l 257
 749 137 l 257
 558 21 l 257
EndSplineSet
EndChar

StartChar: R
Encoding: 82 82 80
GlifName: R_
Width: 1024
VWidth: 0
Flags: W
LayerCount: 2
Fore
SplineSet
112 1537 m 257
 112 0 l 257
 313 0 l 257
 313 1537 l 257
 112 1537 l 257
191 1537 m 257
 191 1335 l 257
 847 1335 l 257
 847 1537 l 257
 191 1537 l 257
674 1537 m 257
 674 872 l 257
 874 872 l 257
 874 1537 l 257
 674 1537 l 257
175 1079 m 257
 175 868 l 257
 862 868 l 257
 862 1079 l 257
 175 1079 l 257
314 874 m 257
 716 0 l 257
 956 0 l 257
 541 872 l 257
 314 874 l 257
EndSplineSet
EndChar

StartChar: S
Encoding: 83 83 83
GlifName: S_
Width: 1024
VWidth: 0
Flags: W
LayerCount: 2
Fore
SplineSet
146 1537 m 257
 146 1336 l 257
 744 1336 l 257
 744 1537 l 257
 146 1537 l 257
146 1542 m 257
 146 1028 l 257
 348 1028 l 257
 348 1542 l 257
 146 1542 l 257
174 199 m 257
 174 0 l 257
 882 0 l 257
 882 199 l 257
 174 199 l 257
717 0 m 257
 918 0 l 257
 918 355 l 257
 717 355 l 257
 717 0 l 257
146 1028 m 257
 717 355 l 257
 918 355 l 257
 348 1028 l 257
 146 1028 l 257
EndSplineSet
EndChar

StartChar: T
Encoding: 84 84 88
GlifName: T_
Width: 1024
VWidth: 0
Flags: W
LayerCount: 2
Fore
SplineSet
125 1548 m 257
 125 1348 l 257
 899 1348 l 257
 899 1548 l 257
 125 1548 l 257
412 1436 m 257
 412 6 l 257
 612 6 l 257
 612 1436 l 257
 412 1436 l 257
EndSplineSet
EndChar

StartChar: Thorn
Encoding: 222 222 90
GlifName: T_horn
Width: 1024
VWidth: 0
Flags: W
LayerCount: 2
Fore
SplineSet
112 1542 m 257
 112 9 l 257
 302 9 l 257
 302 1542 l 257
 112 1542 l 257
191 1234 m 257
 191 1035 l 257
 847 1035 l 257
 847 1234 l 257
 191 1234 l 257
667 1233 m 257
 667 569 l 257
 867 569 l 257
 867 1233 l 257
 667 1233 l 257
179 684 m 257
 179 484 l 257
 866 484 l 257
 866 684 l 257
 179 684 l 257
EndSplineSet
EndChar

StartChar: U
Encoding: 85 85 91
GlifName: U_
Width: 1024
VWidth: 0
Flags: W
LayerCount: 2
Fore
SplineSet
157 1537 m 257
 157 0 l 257
 357 0 l 257
 357 1537 l 257
 157 1537 l 257
668 1537 m 257
 668 0 l 257
 867 0 l 257
 867 1537 l 257
 668 1537 l 257
204 200 m 257
 204 0 l 257
 824 0 l 257
 824 200 l 257
 204 200 l 257
EndSplineSet
EndChar

StartChar: V
Encoding: 86 86 102
GlifName: V_
Width: 1024
VWidth: 0
Flags: W
LayerCount: 2
Fore
SplineSet
106 1548 m 257
 366 0 l 257
 587 0 l 257
 307 1548 l 257
 106 1548 l 257
716 1548 m 257
 491 0 l 257
 714 0 l 257
 917 1548 l 257
 716 1548 l 257
EndSplineSet
EndChar

StartChar: W
Encoding: 87 87 103
GlifName: W_
Width: 1024
VWidth: 0
Flags: W
LayerCount: 2
Fore
SplineSet
104 1548 m 257
 104 0 l 257
 305 0 l 257
 305 1548 l 257
 104 1548 l 257
721 1548 m 257
 721 12 l 257
 922 12 l 257
 922 1548 l 257
 721 1548 l 257
413 1028 m 257
 413 0 l 257
 614 0 l 257
 614 1028 l 257
 413 1028 l 257
103 201 m 257
 103 0 l 257
 922 0 l 257
 922 201 l 257
 103 201 l 257
EndSplineSet
EndChar

StartChar: X
Encoding: 88 88 108
GlifName: X_
Width: 1024
VWidth: 0
Flags: W
LayerCount: 2
Fore
SplineSet
91 1548 m 257
 733 0 l 257
 933 0 l 257
 290 1548 l 257
 91 1548 l 257
94 6 m 257
 295 6 l 257
 925 1548 l 257
 726 1548 l 257
 94 6 l 257
EndSplineSet
EndChar

StartChar: Y
Encoding: 89 89 109
GlifName: Y_
Width: 1024
VWidth: 0
Flags: W
LayerCount: 2
Fore
SplineSet
411 897 m 257
 411 0 l 257
 613 0 l 257
 613 897 l 257
 411 897 l 257
160 1548 m 257
 160 859 l 257
 360 859 l 257
 360 1548 l 257
 160 1548 l 257
665 1548 m 257
 665 859 l 257
 864 859 l 257
 864 1548 l 257
 665 1548 l 257
228 1023 m 257
 228 859 l 257
 774 859 l 257
 774 1023 l 257
 228 1023 l 257
EndSplineSet
EndChar

StartChar: Z
Encoding: 90 90 114
GlifName: Z_
Width: 1024
VWidth: 0
Flags: W
LayerCount: 2
Fore
SplineSet
97 1548 m 257
 97 1336 l 257
 931 1336 l 257
 931 1548 l 257
 97 1548 l 257
98 212 m 257
 98 0 l 257
 926 0 l 257
 926 212 l 257
 98 212 l 257
670 1335 m 257
 98 211 l 257
 305 211 l 257
 915 1335 l 257
 670 1335 l 257
EndSplineSet
EndChar

StartChar: a
Encoding: 97 97 118
GlifName: a
Width: 1024
VWidth: 0
Flags: W
LayerCount: 2
Fore
SplineSet
168 1023 m 257
 168 824 l 257
 774 824 l 257
 774 1023 l 257
 168 1023 l 257
661 1023 m 257
 661 0 l 257
 855 0 l 257
 855 1023 l 257
 661 1023 l 257
172 599 m 257
 172 400 l 257
 796 400 l 257
 796 599 l 257
 172 599 l 257
172 575 m 257
 172 0 l 257
 373 0 l 257
 373 575 l 257
 172 575 l 257
170 201 m 257
 170 0 l 257
 860 0 l 257
 860 201 l 257
 170 201 l 257
EndSplineSet
EndChar

StartChar: acute
Encoding: 180 180 122
GlifName: acute
Width: 1024
VWidth: 0
Flags: W
LayerCount: 2
Fore
SplineSet
522 1556 m 257
 392 1302 l 257
 480 1256 l 257
 611 1511 l 257
 522 1556 l 257
EndSplineSet
EndChar

StartChar: acutecomb
Encoding: 769 769 123
GlifName: acutecomb
Width: 1024
VWidth: 0
Flags: W
LayerCount: 2
Fore
SplineSet
551 2180 m 257
 421 1926 l 257
 509 1880 l 257
 640 2135 l 257
 551 2180 l 257
EndSplineSet
EndChar

StartChar: ae
Encoding: 230 230 125
GlifName: ae
Width: 1024
VWidth: 0
Flags: W
LayerCount: 2
Fore
SplineSet
48 1023 m 257
 48 824 l 257
 867 824 l 257
 867 1023 l 257
 48 1023 l 257
449 1023 m 257
 449 0 l 257
 643 0 l 257
 643 1023 l 257
 449 1023 l 257
71 599 m 257
 71 400 l 257
 868 400 l 257
 868 599 l 257
 71 599 l 257
71 575 m 257
 71 0 l 257
 272 0 l 257
 272 575 l 257
 71 575 l 257
69 201 m 257
 69 0 l 257
 989 0 l 257
 989 201 l 257
 69 201 l 257
773 1023 m 257
 773 400 l 257
 968 400 l 257
 968 1023 l 257
 773 1023 l 257
EndSplineSet
EndChar

StartChar: ampersand
Encoding: 38 38 128
GlifName: ampersand
Width: 1024
VWidth: 0
Flags: W
LayerCount: 2
Fore
SplineSet
260 1537 m 257
 708 12 l 257
 854 56 l 257
 422 1537 l 257
 260 1537 l 257
804 1401 m 257
 804 1537 l 257
 338 1537 l 257
 338 1401 l 257
 804 1401 l 257
644 1446 m 257
 644 917 l 257
 804 917 l 257
 804 1446 l 257
 644 1446 l 257
108 1045 m 257
 108 843 l 257
 804 843 l 257
 804 1045 l 257
 108 1045 l 257
108 1045 m 257
 108 24 l 257
 318 24 l 257
 318 1045 l 257
 108 1045 l 257
108 190 m 257
 108 6 l 257
 916 6 l 257
 916 190 l 257
 108 190 l 257
EndSplineSet
EndChar

StartChar: asciicircum
Encoding: 94 94 131
GlifName: asciicircum
Width: 1024
VWidth: 0
Flags: W
LayerCount: 2
Fore
SplineSet
607 1023 m 257
 458 1023 l 257
 193 407 l 257
 343 345 l 257
 607 1023 l 257
464 904 m 257
 720 343 l 257
 870 400 l 257
 607 1023 l 257
 464 904 l 257
EndSplineSet
EndChar

StartChar: asciitilde
Encoding: 126 126 132
GlifName: asciitilde
Width: 1024
VWidth: 0
Flags: W
LayerCount: 2
Fore
SplineSet
330 815 m 257
 330 716 l 257
 680 655 l 257
 680 754 l 257
 330 815 l 257
92 757 m 257
 107 659 l 257
 330 716 l 257
 330 815 l 257
 92 757 l 257
680 754 m 257
 680 655 l 257
 861 796 l 257
 837 892 l 257
 680 754 l 257
EndSplineSet
EndChar

StartChar: asterisk
Encoding: 42 42 133
GlifName: asterisk
Width: 1024
VWidth: 0
Flags: W
LayerCount: 2
Fore
SplineSet
422 1297 m 257
 422 300 l 257
 652 300 l 257
 652 1297 l 257
 422 1297 l 257
65 1099 m 257
 793 360 l 257
 952 504 l 257
 220 1241 l 257
 65 1099 l 257
817 1232 m 257
 94 525 l 257
 236 372 l 257
 959 1079 l 257
 817 1232 l 257
EndSplineSet
EndChar

StartChar: at
Encoding: 64 64 134
GlifName: at
Width: 1024
VWidth: 0
Flags: W
LayerCount: 2
Fore
SplineSet
101 1023 m 257
 101 879 l 257
 920 879 l 257
 920 1023 l 257
 101 1023 l 257
637 592 m 257
 637 0 l 257
 790 0 l 257
 790 592 l 257
 637 592 l 257
304 600 m 257
 304 444 l 257
 729 444 l 257
 729 600 l 257
 304 600 l 257
301 589 m 257
 301 12 l 257
 475 12 l 257
 475 589 l 257
 301 589 l 257
299 188 m 257
 299 0 l 257
 793 0 l 257
 793 188 l 257
 299 188 l 257
13 1023 m 257
 13 -223 l 257
 189 -223 l 257
 189 1023 l 257
 13 1023 l 257
11 -86 m 257
 11 -258 l 257
 959 -258 l 257
 959 -86 l 257
 11 -86 l 257
862 1011 m 257
 862 0 l 257
 1013 0 l 257
 1013 1011 l 257
 862 1011 l 257
734 175 m 257
 734 0 l 257
 943 0 l 257
 943 175 l 257
 734 175 l 257
EndSplineSet
EndChar

StartChar: b
Encoding: 98 98 136
GlifName: b
Width: 1024
VWidth: 0
Flags: W
LayerCount: 2
Fore
SplineSet
135 1537 m 257
 135 0 l 257
 334 0 l 257
 334 1537 l 257
 135 1537 l 257
232 1033 m 257
 232 834 l 257
 750 834 l 257
 750 1033 l 257
 232 1033 l 257
690 1033 m 257
 690 0 l 257
 889 0 l 257
 889 1033 l 257
 690 1033 l 257
260 207 m 257
 260 0 l 257
 810 0 l 257
 810 207 l 257
 260 207 l 257
EndSplineSet
EndChar

StartChar: backslash
Encoding: 92 92 137
GlifName: backslash
Width: 1024
VWidth: 0
Flags: W
LayerCount: 2
Fore
SplineSet
168 1441 m 257
 795 -13 l 257
 986 65 l 257
 360 1519 l 257
 168 1441 l 257
EndSplineSet
EndChar

StartChar: bar
Encoding: 124 124 138
GlifName: bar
Width: 1024
VWidth: 0
Flags: W
LayerCount: 2
Fore
SplineSet
525 1435 m 257
 525 -90 l 257
 728 -90 l 257
 728 1435 l 257
 525 1435 l 257
EndSplineSet
EndChar

StartChar: braceleft
Encoding: 123 123 139
GlifName: braceleft
Width: 1024
VWidth: 0
Flags: W
LayerCount: 2
Fore
SplineSet
421 1548 m 257
 421 838 l 257
 567 838 l 257
 567 1548 l 257
 421 1548 l 257
433 424 m 257
 433 -286 l 257
 579 -286 l 257
 579 424 l 257
 433 424 l 257
132 690 m 257
 132 630 l 257
 567 838 l 257
 421 838 l 257
 132 690 l 257
132 690 m 257
 132 630 l 257
 431 425 l 257
 580 425 l 257
 132 690 l 257
422 1603 m 257
 422 1452 l 257
 690 1574 l 257
 694 1603 l 257
 422 1603 l 257
434 -140 m 257
 434 -287 l 257
 710 -287 l 257
 710 -274 l 257
 434 -140 l 257
EndSplineSet
EndChar

StartChar: braceright
Encoding: 125 125 140
GlifName: braceright
Width: 1024
VWidth: 0
Flags: W
LayerCount: 2
Fore
SplineSet
437 1548 m 257
 275 1548 l 257
 275 838 l 257
 437 838 l 257
 437 1548 l 257
423 424 m 257
 263 424 l 257
 263 -286 l 257
 423 -286 l 257
 423 424 l 257
710 690 m 257
 432 838 l 257
 271 838 l 257
 710 630 l 257
 710 690 l 257
710 690 m 257
 263 424 l 257
 423 424 l 257
 710 630 l 257
 710 690 l 257
438 1603 m 257
 163 1603 l 257
 167 1574 l 257
 438 1452 l 257
 438 1603 l 257
408 -140 m 257
 132 -274 l 257
 132 -284 l 257
 408 -284 l 257
 408 -140 l 257
EndSplineSet
EndChar

StartChar: bracketleft
Encoding: 91 91 141
GlifName: bracketleft
Width: 1024
VWidth: 0
Flags: W
LayerCount: 2
Fore
SplineSet
162 1542 m 257
 162 -242 l 257
 284 -242 l 257
 284 1542 l 257
 162 1542 l 257
216 1543 m 257
 216 1416 l 257
 425 1416 l 257
 425 1543 l 257
 216 1543 l 257
216 -91 m 257
 216 -242 l 257
 430 -242 l 257
 430 -91 l 257
 216 -91 l 257
EndSplineSet
EndChar

StartChar: bracketright
Encoding: 93 93 142
GlifName: bracketright
Width: 1024
VWidth: 0
Flags: W
LayerCount: 2
Fore
SplineSet
366 1542 m 257
 366 -242 l 257
 488 -242 l 257
 488 1542 l 257
 366 1542 l 257
216 1543 m 257
 216 1416 l 257
 425 1416 l 257
 425 1543 l 257
 216 1543 l 257
216 -91 m 257
 216 -242 l 257
 430 -242 l 257
 430 -91 l 257
 216 -91 l 257
EndSplineSet
EndChar

StartChar: breve
Encoding: 728 728 143
GlifName: breve
Width: 1024
VWidth: 0
Flags: W
LayerCount: 2
Fore
SplineSet
656 1548 m 257
 656 1480 l 257
 821 1548 l 257
 821 1645 l 257
 656 1548 l 257
332 1548 m 257
 332 1480 l 257
 656 1480 l 257
 656 1548 l 257
 332 1548 l 257
161 1630 m 257
 161 1548 l 257
 332 1480 l 257
 332 1548 l 257
 161 1630 l 257
EndSplineSet
EndChar

StartChar: brokenbar
Encoding: 166 166 144
GlifName: brokenbar
Width: 1024
VWidth: 0
Flags: W
LayerCount: 2
Fore
SplineSet
511 -332 m 257
 621 -332 l 257
 621 682 l 257
 511 682 l 257
 511 -332 l 257
514 790 m 257
 624 790 l 257
 624 1636 l 257
 514 1636 l 257
 514 790 l 257
EndSplineSet
EndChar

StartChar: bullet
Encoding: 8226 8226 145
GlifName: bullet
Width: 1024
VWidth: 0
Flags: W
LayerCount: 2
Fore
SplineSet
369 1023 m 257
 369 765 l 257
 654 765 l 257
 654 1023 l 257
 369 1023 l 257
EndSplineSet
EndChar

StartChar: c
Encoding: 99 99 146
GlifName: c
Width: 1024
VWidth: 0
Flags: W
LayerCount: 2
Fore
SplineSet
164 1023 m 257
 164 826 l 257
 860 826 l 257
 860 1023 l 257
 164 1023 l 257
166 984 m 257
 166 0 l 257
 368 0 l 257
 368 984 l 257
 166 984 l 257
272 201 m 257
 272 0 l 257
 854 0 l 257
 854 201 l 257
 272 201 l 257
EndSplineSet
EndChar

StartChar: caron
Encoding: 711 711 148
GlifName: caron
Width: 1024
VWidth: 0
Flags: W
LayerCount: 2
Fore
SplineSet
550 1083 m 257
 412 1437 l 257
 334 1404 l 257
 472 1083 l 257
 550 1083 l 257
475 1146 m 257
 550 1083 l 257
 687 1408 l 257
 609 1437 l 257
 475 1146 l 257
EndSplineSet
EndChar

StartChar: cedilla
Encoding: 184 184 153
GlifName: cedilla
Width: 1024
VWidth: 0
Flags: W
LayerCount: 2
Fore
SplineSet
301 242 m 257
 301 -82 l 257
 457 -82 l 257
 457 242 l 257
 301 242 l 257
302 -226 m 257
 302 -346 l 257
 748 -346 l 257
 748 -226 l 257
 302 -226 l 257
596 62 m 257
 596 -310 l 257
 748 -310 l 257
 748 62 l 257
 596 62 l 257
302 62 m 257
 302 -94 l 257
 748 -94 l 257
 748 62 l 257
 302 62 l 257
EndSplineSet
EndChar

StartChar: cent
Encoding: 162 162 154
GlifName: cent
Width: 1024
VWidth: 0
Flags: W
LayerCount: 2
Fore
SplineSet
691 1183 m 257
 544 1183 l 257
 544 -86 l 257
 691 -86 l 257
 691 1183 l 257
164 1023 m 257
 164 826 l 257
 860 826 l 257
 860 1023 l 257
 164 1023 l 257
166 984 m 257
 166 0 l 257
 368 0 l 257
 368 984 l 257
 166 984 l 257
272 201 m 257
 272 0 l 257
 854 0 l 257
 854 201 l 257
 272 201 l 257
EndSplineSet
EndChar

StartChar: circumflex
Encoding: 710 710 155
GlifName: circumflex
Width: 1024
VWidth: 0
Flags: W
LayerCount: 2
Fore
SplineSet
539 1330 m 257
 479 1330 l 257
 373 1083 l 257
 433 1058 l 257
 539 1330 l 257
481 1282 m 257
 584 1058 l 257
 644 1080 l 257
 539 1330 l 257
 481 1282 l 257
EndSplineSet
EndChar

StartChar: colon
Encoding: 58 58 156
GlifName: colon
Width: 1024
VWidth: 0
Flags: W
LayerCount: 2
Fore
SplineSet
400 430 m 257
 400 201 l 257
 648 201 l 257
 648 430 l 257
 400 430 l 257
376 1294 m 257
 376 1047 l 257
 642 1047 l 257
 642 1294 l 257
 376 1294 l 257
EndSplineSet
EndChar

StartChar: comma
Encoding: 44 44 157
GlifName: comma
Width: 1024
VWidth: 0
Flags: W
LayerCount: 2
Fore
SplineSet
398 237 m 257
 398 8 l 257
 646 8 l 257
 646 237 l 257
 398 237 l 257
496 135 m 257
 378 -146 l 257
 522 -206 l 257
 644 0 l 257
 496 135 l 257
EndSplineSet
EndChar

StartChar: copyright
Encoding: 169 169 158
GlifName: copyright
Width: 1024
VWidth: 0
Flags: W
LayerCount: 2
Fore
SplineSet
16 1537 m 257
 16 0 l 257
 217 0 l 257
 217 1537 l 257
 16 1537 l 257
814 1537 m 257
 814 0 l 257
 1017 0 l 257
 1017 1537 l 257
 814 1537 l 257
126 1537 m 257
 126 1337 l 257
 817 1337 l 257
 817 1537 l 257
 126 1537 l 257
150 204 m 257
 150 0 l 257
 823 0 l 257
 823 204 l 257
 150 204 l 257
262 1197 m 257
 262 996 l 257
 697 996 l 257
 697 1197 l 257
 262 1197 l 257
263 1154 m 257
 263 340 l 257
 432 340 l 257
 432 1154 l 257
 263 1154 l 257
263 495 m 257
 263 294 l 257
 703 294 l 257
 703 495 l 257
 263 495 l 257
EndSplineSet
EndChar

StartChar: currency
Encoding: 164 164 159
GlifName: currency
Width: 1024
VWidth: 0
Flags: W
LayerCount: 2
Fore
SplineSet
79 1202 m 257
 79 180 l 257
 279 180 l 257
 279 1202 l 257
 79 1202 l 257
694 1204 m 257
 694 180 l 257
 896 180 l 257
 896 1204 l 257
 694 1204 l 257
202 1204 m 257
 202 1002 l 257
 788 1002 l 257
 788 1204 l 257
 202 1204 l 257
206 380 m 257
 206 181 l 257
 778 181 l 257
 778 380 l 257
 206 380 l 257
0 1356 m 257
 0 1109 l 257
 268 1109 l 257
 268 1356 l 257
 0 1356 l 257
698 1331 m 257
 698 1084 l 257
 962 1084 l 257
 962 1331 l 257
 698 1331 l 257
10 366 m 257
 10 119 l 257
 274 119 l 257
 274 366 l 257
 10 366 l 257
680 371 m 257
 680 124 l 257
 944 124 l 257
 944 371 l 257
 680 371 l 257
EndSplineSet
EndChar

StartChar: d
Encoding: 100 100 160
GlifName: d
Width: 1024
VWidth: 0
Flags: W
LayerCount: 2
Fore
SplineSet
692 1527 m 257
 692 0 l 257
 893 0 l 257
 893 1527 l 257
 692 1527 l 257
228 1023 m 257
 228 822 l 257
 781 822 l 257
 781 1023 l 257
 228 1023 l 257
132 1023 m 257
 132 0 l 257
 333 0 l 257
 333 1023 l 257
 132 1023 l 257
228 195 m 257
 228 0 l 257
 845 0 l 257
 845 195 l 257
 228 195 l 257
EndSplineSet
EndChar

StartChar: dagger
Encoding: 8224 8224 161
GlifName: dagger
Width: 1024
VWidth: 0
Flags: W
LayerCount: 2
Fore
SplineSet
166 1251 m 257
 166 1086 l 257
 772 1086 l 257
 772 1251 l 257
 166 1251 l 257
390 1548 m 257
 390 0 l 257
 535 0 l 257
 535 1548 l 257
 390 1548 l 257
EndSplineSet
EndChar

StartChar: daggerdbl
Encoding: 8225 8225 162
GlifName: daggerdbl
Width: 1024
VWidth: 0
Flags: W
LayerCount: 2
Fore
SplineSet
166 937 m 257
 166 772 l 257
 772 772 l 257
 772 937 l 257
 166 937 l 257
166 1251 m 257
 166 1086 l 257
 772 1086 l 257
 772 1251 l 257
 166 1251 l 257
390 1548 m 257
 390 0 l 257
 535 0 l 257
 535 1548 l 257
 390 1548 l 257
EndSplineSet
EndChar

StartChar: dcaron
Encoding: 271 271 163
GlifName: dcaron
Width: 1024
VWidth: 0
Flags: W
LayerCount: 2
Fore
SplineSet
613 1527 m 257
 613 0 l 257
 814 0 l 257
 814 1527 l 257
 613 1527 l 257
149 1023 m 257
 149 822 l 257
 702 822 l 257
 702 1023 l 257
 149 1023 l 257
53 1023 m 257
 53 0 l 257
 254 0 l 257
 254 1023 l 257
 53 1023 l 257
149 195 m 257
 149 0 l 257
 766 0 l 257
 766 195 l 257
 149 195 l 257
860 1496 m 257
 860 1264 l 257
 990 1264 l 257
 990 1496 l 257
 860 1496 l 257
EndSplineSet
EndChar

StartChar: dcroat
Encoding: 273 273 164
GlifName: dcroat
Width: 1024
VWidth: 0
Flags: W
LayerCount: 2
Fore
SplineSet
692 1527 m 257
 692 0 l 257
 893 0 l 257
 893 1527 l 257
 692 1527 l 257
228 1023 m 257
 228 822 l 257
 781 822 l 257
 781 1023 l 257
 228 1023 l 257
132 1023 m 257
 132 0 l 257
 333 0 l 257
 333 1023 l 257
 132 1023 l 257
228 195 m 257
 228 0 l 257
 845 0 l 257
 845 195 l 257
 228 195 l 257
555 1403 m 257
 555 1202 l 257
 999 1202 l 257
 999 1403 l 257
 555 1403 l 257
EndSplineSet
EndChar

StartChar: degree
Encoding: 176 176 165
GlifName: degree
Width: 1024
VWidth: 0
Flags: W
LayerCount: 2
Fore
SplineSet
467 1456 m 257
 615 1456 l 257
 615 1326 l 257
 467 1326 l 257
 467 1456 l 257
362 1548 m 257
 362 1238 l 257
 722 1238 l 257
 722 1548 l 257
 362 1548 l 257
EndSplineSet
EndChar

StartChar: dieresis
Encoding: 168 168 166
GlifName: dieresis
Width: 1024
VWidth: 0
Flags: W
LayerCount: 2
Fore
SplineSet
345 1030 m 257
 345 929 l 257
 457 929 l 257
 457 1030 l 257
 345 1030 l 257
587 1030 m 257
 587 929 l 257
 699 929 l 257
 699 1030 l 257
 587 1030 l 257
EndSplineSet
EndChar

StartChar: divide
Encoding: 247 247 167
GlifName: divide
Width: 1024
VWidth: 0
Flags: W
LayerCount: 2
Fore
SplineSet
400 430 m 257
 400 201 l 257
 648 201 l 257
 648 430 l 257
 400 430 l 257
376 1294 m 257
 376 1047 l 257
 642 1047 l 257
 642 1294 l 257
 376 1294 l 257
99 808 m 257
 99 600 l 257
 925 600 l 257
 925 808 l 257
 99 808 l 257
EndSplineSet
EndChar

StartChar: dollar
Encoding: 36 36 168
GlifName: dollar
Width: 1024
VWidth: 0
Flags: W
LayerCount: 2
Fore
SplineSet
126 1537 m 257
 126 1358 l 257
 724 1358 l 257
 724 1537 l 257
 126 1537 l 257
126 1542 m 257
 126 1028 l 257
 331 1028 l 257
 331 1542 l 257
 126 1542 l 257
154 163 m 257
 154 0 l 257
 862 0 l 257
 862 163 l 257
 154 163 l 257
692 0 m 257
 898 0 l 257
 898 355 l 257
 692 355 l 257
 692 0 l 257
126 1028 m 257
 692 355 l 257
 898 355 l 257
 331 1028 l 257
 126 1028 l 257
385 1636 m 257
 385 -215 l 257
 599 -215 l 257
 599 1636 l 257
 385 1636 l 257
EndSplineSet
EndChar

StartChar: dotaccent
Encoding: 729 729 169
GlifName: dotaccent
Width: 1024
VWidth: 0
Flags: W
LayerCount: 2
Fore
SplineSet
397 1053 m 257
 397 902 l 257
 565 902 l 257
 565 1053 l 257
 397 1053 l 257
EndSplineSet
EndChar

StartChar: dotbelowcomb
Encoding: 803 803 170
GlifName: dotbelowcomb
Width: 1024
VWidth: 0
Flags: W
LayerCount: 2
Fore
SplineSet
380 -204 m 257
 380 -451 l 257
 644 -451 l 257
 644 -204 l 257
 380 -204 l 257
EndSplineSet
EndChar

StartChar: dotlessi
Encoding: 305 305 171
GlifName: dotlessi
Width: 1024
VWidth: 0
Flags: W
LayerCount: 2
Fore
SplineSet
411 1018 m 257
 411 139 l 257
 613 139 l 257
 613 1018 l 257
 411 1018 l 257
141 204 m 257
 141 6 l 257
 883 6 l 257
 883 204 l 257
 141 204 l 257
191 1018 m 257
 191 818 l 257
 567 818 l 257
 567 1018 l 257
 191 1018 l 257
EndSplineSet
EndChar

StartChar: e
Encoding: 101 101 172
GlifName: e
Width: 1024
VWidth: 0
Flags: W
LayerCount: 2
Fore
SplineSet
219 1023 m 257
 219 812 l 257
 854 812 l 257
 854 1023 l 257
 219 1023 l 257
169 1023 m 257
 169 0 l 257
 371 0 l 257
 371 1023 l 257
 169 1023 l 257
271 201 m 257
 271 0 l 257
 853 0 l 257
 853 201 l 257
 271 201 l 257
239 625 m 257
 239 446 l 257
 829 446 l 257
 829 625 l 257
 239 625 l 257
657 993 m 257
 657 445 l 257
 852 445 l 257
 852 993 l 257
 657 993 l 257
EndSplineSet
EndChar

StartChar: eight
Encoding: 56 56 180
GlifName: eight
Width: 1024
VWidth: 0
Flags: W
LayerCount: 2
Fore
SplineSet
56 1548 m 257
 56 0 l 257
 969 0 l 257
 969 1548 l 257
 56 1548 l 257
767 759 m 257
 767 197 l 257
 260 197 l 257
 260 759 l 257
 767 759 l 257
768 959 m 257
 260 959 l 257
 260 1350 l 257
 768 1350 l 257
 768 959 l 257
EndSplineSet
EndChar

StartChar: ellipsis
Encoding: 8230 8230 181
GlifName: ellipsis
Width: 1024
VWidth: 0
Flags: W
LayerCount: 2
Fore
SplineSet
180 114 m 257
 180 0 l 257
 322 0 l 257
 322 114 l 257
 180 114 l 257
436 114 m 257
 436 0 l 257
 580 0 l 257
 580 114 l 257
 436 114 l 257
702 114 m 257
 702 0 l 257
 844 0 l 257
 844 114 l 257
 702 114 l 257
EndSplineSet
EndChar

StartChar: emdash
Encoding: 8212 8212 183
GlifName: emdash
Width: 1024
VWidth: 0
Flags: W
LayerCount: 2
Fore
SplineSet
0 600 m 257
 1024 600 l 257
 1024 808 l 257
 0 808 l 257
 0 600 l 257
EndSplineSet
EndChar

StartChar: endash
Encoding: 8211 8211 184
GlifName: endash
Width: 1024
VWidth: 0
Flags: W
LayerCount: 2
Fore
SplineSet
99 600 m 257
 925 600 l 257
 925 808 l 257
 99 808 l 257
 99 600 l 257
EndSplineSet
EndChar

StartChar: eng
Encoding: 331 331 185
GlifName: eng
Width: 1024
VWidth: 0
Flags: W
LayerCount: 2
Fore
SplineSet
456 -211 m 257
 456 -408 l 257
 843 -408 l 257
 843 -211 l 257
 456 -211 l 257
244 990 m 257
 244 0 l 257
 445 0 l 257
 445 990 l 257
 244 990 l 257
643 976 m 257
 643 -408 l 257
 844 -408 l 257
 844 976 l 257
 643 976 l 257
65 1023 m 257
 65 826 l 257
 843 826 l 257
 843 1023 l 257
 65 1023 l 257
EndSplineSet
EndChar

StartChar: equal
Encoding: 61 61 187
GlifName: equal
Width: 1024
VWidth: 0
Flags: W
LayerCount: 2
Fore
SplineSet
104 914 m 257
 104 724 l 257
 920 724 l 257
 920 914 l 257
 104 914 l 257
104 540 m 257
 104 350 l 257
 920 350 l 257
 920 540 l 257
 104 540 l 257
EndSplineSet
EndChar

StartChar: eth
Encoding: 240 240 188
GlifName: eth
Width: 1024
VWidth: 0
Flags: W
LayerCount: 2
Fore
SplineSet
241 1548 m 257
 692 0 l 257
 893 0 l 257
 442 1548 l 257
 241 1548 l 257
228 1023 m 257
 228 822 l 257
 569 822 l 257
 569 1023 l 257
 228 1023 l 257
132 1023 m 257
 132 0 l 257
 333 0 l 257
 333 1023 l 257
 132 1023 l 257
228 195 m 257
 228 0 l 257
 845 0 l 257
 845 195 l 257
 228 195 l 257
161 1416 m 257
 161 1229 l 257
 693 1229 l 257
 693 1416 l 257
 161 1416 l 257
EndSplineSet
EndChar

StartChar: exclam
Encoding: 33 33 189
GlifName: exclam
Width: 1024
VWidth: 0
Flags: W
LayerCount: 2
Fore
SplineSet
440 17 m 257
 584 17 l 257
 584 265 l 257
 440 265 l 257
 440 17 l 257
450 502 m 257
 578 502 l 257
 578 1520 l 257
 450 1520 l 257
 450 502 l 257
EndSplineSet
EndChar

StartChar: exclamdown
Encoding: 161 161 190
GlifName: exclamdown
Width: 1024
VWidth: 0
Flags: W
LayerCount: 2
Fore
SplineSet
672 1520 m 257
 528 1520 l 257
 528 1272 l 257
 672 1272 l 257
 672 1520 l 257
662 1035 m 257
 534 1035 l 257
 534 17 l 257
 662 17 l 257
 662 1035 l 257
EndSplineSet
EndChar

StartChar: f
Encoding: 102 102 191
GlifName: f
Width: 1024
VWidth: 0
Flags: W
LayerCount: 2
Fore
SplineSet
316 1023 m 257
 316 -406 l 257
 516 -406 l 257
 516 1023 l 257
 316 1023 l 257
378 1023 m 257
 378 831 l 257
 860 831 l 257
 860 1023 l 257
 378 1023 l 257
132 559 m 257
 132 356 l 257
 763 356 l 257
 763 559 l 257
 132 559 l 257
EndSplineSet
EndChar

StartChar: five
Encoding: 53 53 192
GlifName: five
Width: 1024
VWidth: 0
Flags: W
LayerCount: 2
Fore
SplineSet
772 759 m 257
 772 198 l 257
 59 198 l 257
 59 0 l 257
 977 0 l 257
 977 959 l 257
 260 959 l 257
 260 1352 l 257
 987 1352 l 257
 987 1548 l 257
 60 1548 l 257
 60 759 l 257
 772 759 l 257
EndSplineSet
EndChar

StartChar: four
Encoding: 52 52 193
GlifName: four
Width: 1024
VWidth: 0
Flags: W
LayerCount: 2
Fore
SplineSet
91 761 m 257
 733 761 l 257
 733 7 l 257
 929 7 l 257
 929 1548 l 257
 730 1548 l 257
 730 961 l 257
 291 961 l 257
 291 1548 l 257
 91 1548 l 257
 91 761 l 257
EndSplineSet
EndChar

StartChar: g
Encoding: 103 103 194
GlifName: g
Width: 1024
VWidth: 0
Flags: W
LayerCount: 2
Fore
SplineSet
297 1023 m 257
 297 0 l 257
 489 0 l 257
 489 1023 l 257
 297 1023 l 257
337 1023 m 257
 337 823 l 257
 853 823 l 257
 853 1023 l 257
 337 1023 l 257
681 1023 m 257
 681 -411 l 257
 875 -411 l 257
 875 1023 l 257
 681 1023 l 257
360 198 m 257
 360 0 l 257
 817 0 l 257
 817 198 l 257
 360 198 l 257
291 -214 m 257
 291 -413 l 257
 826 -413 l 257
 826 -214 l 257
 291 -214 l 257
EndSplineSet
EndChar

StartChar: germandbls
Encoding: 223 223 198
GlifName: germandbls
Width: 1024
VWidth: 0
Flags: W
LayerCount: 2
Fore
SplineSet
18 1221 m 257
 18 1023 l 257
 269 1023 l 257
 269 1221 l 257
 18 1221 l 257
204 1548 m 257
 204 0 l 257
 410 0 l 257
 410 1548 l 257
 204 1548 l 257
410 1548 m 257
 410 1328 l 257
 805 1328 l 257
 805 1548 l 257
 410 1548 l 257
690 1548 m 257
 690 1023 l 257
 889 1023 l 257
 889 1548 l 257
 690 1548 l 257
690 1062 m 257
 490 1062 l 257
 490 826 l 257
 690 826 l 257
 690 1062 l 257
690 848 m 257
 690 175 l 257
 890 175 l 257
 890 848 l 257
 690 848 l 257
547 251 m 257
 547 40 l 257
 890 40 l 257
 890 251 l 257
 547 251 l 257
EndSplineSet
EndChar

StartChar: glyph094D
Encoding: 65536 -1 199
GlifName: glyph094D_
Width: 1024
VWidth: 0
Flags: W
LayerCount: 2
Fore
SplineSet
-553 -22 m 257
 -553 -218 l 257
 -196 -218 l 257
 -196 -22 l 257
 -553 -22 l 257
-337 -183 m 257
 0 -588 l 257
 144 -425 l 257
 -194 -21 l 257
 -337 -183 l 257
EndSplineSet
EndChar

StartChar: grave
Encoding: 96 96 200
GlifName: grave
Width: 1024
VWidth: 0
Flags: W
LayerCount: 2
Fore
SplineSet
266 1358 m 257
 411 1057 l 257
 560 1129 l 257
 414 1430 l 257
 266 1358 l 257
EndSplineSet
EndChar

StartChar: gravecomb
Encoding: 768 768 201
GlifName: gravecomb
Width: 1024
VWidth: 0
Flags: W
LayerCount: 2
Fore
SplineSet
421 2107 m 257
 541 1871 l 257
 632 1917 l 257
 513 2154 l 257
 421 2107 l 257
EndSplineSet
EndChar

StartChar: greater
Encoding: 62 62 202
GlifName: greater
Width: 1024
VWidth: 0
Flags: W
LayerCount: 2
Fore
SplineSet
922 777 m 257
 100 1013 l 257
 100 807 l 257
 924 568 l 257
 922 777 l 257
922 777 m 257
 102 319 l 257
 102 122 l 257
 924 568 l 257
 922 777 l 257
EndSplineSet
EndChar

StartChar: guillemotleft
Encoding: 171 171 203
GlifName: guillemotleft
Width: 1024
VWidth: 0
Flags: W
LayerCount: 2
Fore
SplineSet
134 609 m 257
 134 454 l 257
 503 631 l 257
 503 784 l 257
 134 609 l 257
134 609 m 257
 134 454 l 257
 502 122 l 257
 502 268 l 257
 134 609 l 257
549 609 m 257
 549 454 l 257
 918 631 l 257
 918 784 l 257
 549 609 l 257
549 609 m 257
 549 454 l 257
 917 122 l 257
 917 268 l 257
 549 609 l 257
EndSplineSet
EndChar

StartChar: guillemotright
Encoding: 187 187 204
GlifName: guillemotright
Width: 1024
VWidth: 0
Flags: W
LayerCount: 2
Fore
SplineSet
920 609 m 257
 551 784 l 257
 551 631 l 257
 920 454 l 257
 920 609 l 257
920 609 m 257
 552 268 l 257
 552 122 l 257
 920 454 l 257
 920 609 l 257
505 609 m 257
 136 784 l 257
 136 631 l 257
 505 454 l 257
 505 609 l 257
505 609 m 257
 137 268 l 257
 137 122 l 257
 505 454 l 257
 505 609 l 257
EndSplineSet
EndChar

StartChar: guilsinglleft
Encoding: 8249 8249 205
GlifName: guilsinglleft
Width: 1024
VWidth: 0
Flags: W
LayerCount: 2
Fore
SplineSet
103 777 m 257
 103 569 l 257
 921 807 l 257
 921 1013 l 257
 103 777 l 257
103 777 m 257
 103 569 l 257
 919 122 l 257
 919 319 l 257
 103 777 l 257
EndSplineSet
EndChar

StartChar: guilsinglright
Encoding: 8250 8250 206
GlifName: guilsinglright
Width: 1024
VWidth: 0
Flags: W
LayerCount: 2
Fore
SplineSet
922 777 m 257
 100 1013 l 257
 100 807 l 257
 924 568 l 257
 922 777 l 257
922 777 m 257
 102 319 l 257
 102 122 l 257
 924 568 l 257
 922 777 l 257
EndSplineSet
EndChar

StartChar: h
Encoding: 104 104 207
GlifName: h
Width: 1024
VWidth: 0
Flags: W
LayerCount: 2
Fore
SplineSet
174 1537 m 257
 174 6 l 257
 374 6 l 257
 374 1537 l 257
 174 1537 l 257
311 1023 m 257
 311 826 l 257
 842 826 l 257
 842 1023 l 257
 311 1023 l 257
651 1023 m 257
 651 0 l 257
 850 0 l 257
 850 1023 l 257
 651 1023 l 257
EndSplineSet
EndChar

StartChar: hbar
Encoding: 295 295 208
GlifName: hbar
Width: 1024
VWidth: 0
Flags: W
LayerCount: 2
Fore
SplineSet
174 1537 m 257
 174 6 l 257
 374 6 l 257
 374 1537 l 257
 174 1537 l 257
311 1023 m 257
 311 826 l 257
 842 826 l 257
 842 1023 l 257
 311 1023 l 257
651 1023 m 257
 651 0 l 257
 850 0 l 257
 850 1023 l 257
 651 1023 l 257
38 1429 m 257
 38 1221 l 257
 494 1221 l 257
 494 1429 l 257
 38 1429 l 257
EndSplineSet
EndChar

StartChar: hookabovecomb
Encoding: 777 777 210
GlifName: hookabovecomb
Width: 0
VWidth: 0
LayerCount: 2
Fore
SplineSet
122 1774 m 257
 122 1599 l 257
 577 1599 l 257
 577 1774 l 257
 122 1774 l 257
375 1774 m 257
 375 1432 l 257
 582 1432 l 257
 582 1774 l 257
 375 1774 l 257
210 1453 m 257
 210 1288 l 257
 581 1288 l 257
 581 1453 l 257
 210 1453 l 257
210 1453 m 257
 210 1190 l 257
 391 1190 l 257
 391 1453 l 257
 210 1453 l 257
EndSplineSet
EndChar

StartChar: hungarumlaut
Encoding: 733 733 211
GlifName: hungarumlaut
Width: 1024
VWidth: 0
Flags: W
LayerCount: 2
Fore
SplineSet
240 122 m 257
 384 122 l 257
 384 370 l 257
 240 370 l 257
 240 122 l 257
640 122 m 257
 784 122 l 257
 784 370 l 257
 640 370 l 257
 640 122 l 257
EndSplineSet
EndChar

StartChar: hyphen
Encoding: 45 45 212
GlifName: hyphen
Width: 1024
VWidth: 0
Flags: W
LayerCount: 2
Fore
SplineSet
99 808 m 257
 99 600 l 257
 925 600 l 257
 925 808 l 257
 99 808 l 257
EndSplineSet
EndChar

StartChar: i
Encoding: 105 105 213
GlifName: i
Width: 1024
VWidth: 0
Flags: W
LayerCount: 2
Fore
SplineSet
411 1018 m 257
 411 139 l 257
 613 139 l 257
 613 1018 l 257
 411 1018 l 257
141 204 m 257
 141 6 l 257
 883 6 l 257
 883 204 l 257
 141 204 l 257
347 1369 m 257
 347 1168 l 257
 545 1168 l 257
 545 1369 l 257
 347 1369 l 257
191 1018 m 257
 191 818 l 257
 567 818 l 257
 567 1018 l 257
 191 1018 l 257
EndSplineSet
EndChar

StartChar: j
Encoding: 106 106 223
GlifName: j
Width: 1024
VWidth: 0
Flags: W
LayerCount: 2
Fore
SplineSet
627 1023 m 257
 627 -411 l 257
 826 -411 l 257
 826 1023 l 257
 627 1023 l 257
197 -209 m 257
 197 -406 l 257
 727 -406 l 257
 727 -209 l 257
 197 -209 l 257
198 -6 m 257
 198 -351 l 257
 398 -351 l 257
 398 -6 l 257
 198 -6 l 257
619 1413 m 257
 619 1214 l 257
 820 1214 l 257
 820 1413 l 257
 619 1413 l 257
EndSplineSet
EndChar

StartChar: k
Encoding: 107 107 225
GlifName: k
Width: 1024
VWidth: 0
Flags: W
LayerCount: 2
Fore
SplineSet
118 1537 m 257
 118 5 l 257
 318 5 l 257
 318 1537 l 257
 118 1537 l 257
167 516 m 257
 216 298 l 257
 903 1023 l 257
 686 1023 l 257
 167 516 l 257
424 631 m 257
 272 483 l 257
 722 0 l 257
 960 0 l 257
 424 631 l 257
EndSplineSet
EndChar

StartChar: l
Encoding: 108 108 226
GlifName: l
Width: 1024
VWidth: 0
Flags: W
LayerCount: 2
Fore
SplineSet
195 209 m 257
 195 9 l 257
 829 9 l 257
 829 209 l 257
 195 209 l 257
412 1548 m 257
 412 86 l 257
 612 86 l 257
 612 1548 l 257
 412 1548 l 257
256 1548 m 257
 256 1349 l 257
 491 1349 l 257
 491 1548 l 257
 256 1548 l 257
EndSplineSet
EndChar

StartChar: lcaron
Encoding: 318 318 228
GlifName: lcaron
Width: 1024
VWidth: 0
Flags: W
LayerCount: 2
Fore
SplineSet
133 209 m 257
 133 9 l 257
 767 9 l 257
 767 209 l 257
 133 209 l 257
350 1548 m 257
 350 86 l 257
 550 86 l 257
 550 1548 l 257
 350 1548 l 257
194 1548 m 257
 194 1349 l 257
 429 1349 l 257
 429 1548 l 257
 194 1548 l 257
630 1496 m 257
 630 1264 l 257
 760 1264 l 257
 760 1496 l 257
 630 1496 l 257
EndSplineSet
EndChar

StartChar: less
Encoding: 60 60 230
GlifName: less
Width: 1024
VWidth: 0
Flags: W
LayerCount: 2
Fore
SplineSet
103 777 m 257
 103 569 l 257
 921 807 l 257
 921 1013 l 257
 103 777 l 257
103 777 m 257
 103 569 l 257
 919 122 l 257
 919 319 l 257
 103 777 l 257
EndSplineSet
EndChar

StartChar: logicalnot
Encoding: 172 172 231
GlifName: logicalnot
Width: 1024
VWidth: 0
Flags: W
LayerCount: 2
Fore
SplineSet
641 935 m 257
 641 640 l 257
 751 640 l 257
 751 935 l 257
 641 935 l 257
211 935 m 257
 211 835 l 257
 761 835 l 257
 761 935 l 257
 211 935 l 257
EndSplineSet
EndChar

StartChar: lslash
Encoding: 322 322 232
GlifName: lslash
Width: 1024
VWidth: 0
Flags: W
LayerCount: 2
Fore
SplineSet
195 209 m 257
 195 9 l 257
 829 9 l 257
 829 209 l 257
 195 209 l 257
412 1548 m 257
 412 86 l 257
 612 86 l 257
 612 1548 l 257
 412 1548 l 257
256 1548 m 257
 256 1349 l 257
 491 1349 l 257
 491 1548 l 257
 256 1548 l 257
815 1213 m 257
 112 830 l 257
 214 656 l 257
 917 1039 l 257
 815 1213 l 257
EndSplineSet
EndChar

StartChar: m
Encoding: 109 109 233
GlifName: m
Width: 1024
VWidth: 0
Flags: W
LayerCount: 2
Fore
SplineSet
110 993 m 257
 110 0 l 257
 310 0 l 257
 310 993 l 257
 110 993 l 257
425 972 m 257
 425 0 l 257
 625 0 l 257
 625 972 l 257
 425 972 l 257
740 976 m 257
 740 0 l 257
 940 0 l 257
 940 976 l 257
 740 976 l 257
33 1023 m 257
 33 826 l 257
 939 826 l 257
 939 1023 l 257
 33 1023 l 257
EndSplineSet
EndChar

StartChar: macron
Encoding: 175 175 234
GlifName: macron
Width: 1024
VWidth: 0
Flags: W
LayerCount: 2
Fore
SplineSet
245 1023 m 257
 245 944 l 257
 805 944 l 257
 805 1023 l 257
 245 1023 l 257
EndSplineSet
EndChar

StartChar: mu
Encoding: 181 181 236
GlifName: mu
Width: 1024
VWidth: 0
Flags: W
LayerCount: 2
Fore
SplineSet
731 935 m 257
 731 0 l 257
 841 0 l 257
 841 935 l 257
 731 935 l 257
296 120 m 257
 296 0 l 257
 811 0 l 257
 811 120 l 257
 296 120 l 257
196 935 m 257
 196 -430 l 257
 291 -430 l 257
 291 935 l 257
 196 935 l 257
EndSplineSet
EndChar

StartChar: multiply
Encoding: 215 215 237
GlifName: multiply
Width: 1024
VWidth: 0
Flags: W
LayerCount: 2
Fore
SplineSet
91 302 m 257
 292 302 l 257
 927 1323 l 257
 728 1323 l 257
 91 302 l 257
93 1325 m 257
 735 298 l 257
 934 298 l 257
 295 1325 l 257
 93 1325 l 257
EndSplineSet
EndChar

StartChar: n
Encoding: 110 110 238
GlifName: n
Width: 1024
VWidth: 0
Flags: W
LayerCount: 2
Fore
SplineSet
244 990 m 257
 244 0 l 257
 445 0 l 257
 445 990 l 257
 244 990 l 257
643 976 m 257
 643 0 l 257
 844 0 l 257
 844 976 l 257
 643 976 l 257
65 1023 m 257
 65 826 l 257
 843 826 l 257
 843 1023 l 257
 65 1023 l 257
EndSplineSet
EndChar

StartChar: nine
Encoding: 57 57 241
GlifName: nine
Width: 1024
VWidth: 0
Flags: W
LayerCount: 2
Fore
SplineSet
781 759 m 257
 781 200 l 257
 79 200 l 257
 79 0 l 257
 977 0 l 257
 977 1554 l 257
 57 1554 l 257
 57 1537 l 257
 57 759 l 257
 781 759 l 257
778 959 m 257
 257 959 l 257
 257 1354 l 257
 778 1354 l 257
 778 959 l 257
EndSplineSet
EndChar

StartChar: numbersign
Encoding: 35 35 243
GlifName: numbersign
Width: 1024
VWidth: 0
Flags: W
LayerCount: 2
Fore
SplineSet
228 1347 m 257
 228 313 l 257
 368 313 l 257
 368 1347 l 257
 228 1347 l 257
638 1350 m 257
 638 279 l 257
 806 279 l 257
 806 1350 l 257
 638 1350 l 257
98 1157 m 257
 98 1010 l 257
 916 1010 l 257
 916 1157 l 257
 98 1157 l 257
98 767 m 257
 98 592 l 257
 926 592 l 257
 926 767 l 257
 98 767 l 257
EndSplineSet
EndChar

StartChar: o
Encoding: 111 111 244
GlifName: o
Width: 1024
VWidth: 0
Flags: W
LayerCount: 2
Fore
SplineSet
104 1023 m 257
 104 0 l 257
 304 0 l 257
 304 1023 l 257
 104 1023 l 257
719 1023 m 257
 719 0 l 257
 921 0 l 257
 921 1023 l 257
 719 1023 l 257
227 1023 m 257
 227 822 l 257
 813 822 l 257
 813 1023 l 257
 227 1023 l 257
231 200 m 257
 231 0 l 257
 803 0 l 257
 803 200 l 257
 231 200 l 257
EndSplineSet
EndChar

StartChar: oe
Encoding: 339 339 249
GlifName: oe
Width: 1024
VWidth: 0
Flags: W
LayerCount: 2
Fore
SplineSet
597 645 m 257
 597 446 l 257
 824 446 l 257
 824 645 l 257
 597 645 l 257
799 1023 m 257
 799 445 l 257
 999 445 l 257
 999 1023 l 257
 799 1023 l 257
103 1023 m 257
 103 0 l 257
 303 0 l 257
 303 1023 l 257
 103 1023 l 257
451 1023 m 257
 451 0 l 257
 651 0 l 257
 651 1023 l 257
 451 1023 l 257
158 1023 m 257
 158 823 l 257
 859 823 l 257
 859 1023 l 257
 158 1023 l 257
149 200 m 257
 149 0 l 257
 999 0 l 257
 999 200 l 257
 149 200 l 257
EndSplineSet
EndChar

StartChar: ogonek
Encoding: 731 731 250
GlifName: ogonek
Width: 1024
VWidth: 0
Flags: W
LayerCount: 2
Fore
SplineSet
259 -288 m 257
 259 -406 l 257
 801 -406 l 257
 801 -288 l 257
 259 -288 l 257
259 0 m 257
 259 -406 l 257
 377 -406 l 257
 377 0 l 257
 259 0 l 257
259 0 m 257
 259 -121 l 257
 801 -121 l 257
 801 0 l 257
 259 0 l 257
EndSplineSet
EndChar

StartChar: one
Encoding: 49 49 254
GlifName: one
Width: 1024
VWidth: 0
Flags: W
LayerCount: 2
Fore
SplineSet
412 0 m 257
 611 0 l 257
 611 1548 l 257
 412 1548 l 257
 412 0 l 257
416 1548 m 257
 218 1252 l 257
 368 1152 l 257
 566 1449 l 257
 416 1548 l 257
EndSplineSet
EndChar

StartChar: onehalf
Encoding: 189 189 255
GlifName: onehalf
Width: 1024
VWidth: 0
Flags: W
LayerCount: 2
Fore
SplineSet
703 1483 m 257
 133 6 l 257
 310 -30 l 257
 880 1447 l 257
 703 1483 l 257
298 863 m 257
 381 863 l 257
 381 1548 l 257
 298 1548 l 257
 298 863 l 257
300 1548 m 257
 218 1419 l 257
 280 1374 l 257
 362 1506 l 257
 300 1548 l 257
654 603 m 257
 853 603 l 257
 853 407 l 257
 656 407 l 257
 656 0 l 257
 913 0 l 257
 913 90 l 257
 722 90 l 257
 722 317 l 257
 918 317 l 257
 918 693 l 257
 654 693 l 257
 654 603 l 257
EndSplineSet
EndChar

StartChar: onequarter
Encoding: 188 188 256
GlifName: onequarter
Width: 1024
VWidth: 0
Flags: W
LayerCount: 2
Fore
SplineSet
666 1480 m 257
 79 10 l 257
 182 10 l 257
 769 1480 l 257
 666 1480 l 257
307 1045 m 257
 361 1045 l 257
 361 1548 l 257
 307 1548 l 257
 307 1045 l 257
312 1548 m 257
 202 1428 l 257
 222 1391 l 257
 341 1537 l 257
 312 1548 l 257
568 379 m 257
 873 379 l 257
 873 7 l 257
 932 7 l 257
 932 768 l 257
 872 768 l 257
 872 445 l 257
 627 445 l 257
 627 770 l 257
 568 770 l 257
 568 379 l 257
EndSplineSet
EndChar

StartChar: ordfeminine
Encoding: 170 170 257
GlifName: ordfeminine
Width: 1024
VWidth: 0
Flags: W
LayerCount: 2
Fore
SplineSet
168 1319 m 257
 168 1119 l 257
 774 1119 l 257
 774 1319 l 257
 168 1319 l 257
661 1320 m 257
 661 296 l 257
 855 296 l 257
 855 1320 l 257
 661 1320 l 257
172 894 m 257
 172 695 l 257
 796 695 l 257
 796 894 l 257
 172 894 l 257
172 870 m 257
 172 293 l 257
 373 293 l 257
 373 870 l 257
 172 870 l 257
170 496 m 257
 170 296 l 257
 860 296 l 257
 860 496 l 257
 170 496 l 257
77 162 m 257
 77 0 l 257
 945 0 l 257
 945 162 l 257
 77 162 l 257
EndSplineSet
EndChar

StartChar: ordmasculine
Encoding: 186 186 258
GlifName: ordmasculine
Width: 1024
VWidth: 0
Flags: W
LayerCount: 2
Fore
SplineSet
104 1023 m 257
 104 0 l 257
 304 0 l 257
 304 1023 l 257
 104 1023 l 257
719 1023 m 257
 719 0 l 257
 921 0 l 257
 921 1023 l 257
 719 1023 l 257
227 1023 m 257
 227 822 l 257
 813 822 l 257
 813 1023 l 257
 227 1023 l 257
231 200 m 257
 231 0 l 257
 803 0 l 257
 803 200 l 257
 231 200 l 257
-5 -70 m 257
 -5 -136 l 257
 1019 -136 l 257
 1019 -70 l 257
 -5 -70 l 257
EndSplineSet
EndChar

StartChar: oslash
Encoding: 248 248 259
GlifName: oslash
Width: 1024
VWidth: 0
Flags: W
LayerCount: 2
Fore
SplineSet
837 1164 m 257
 9 -5 l 257
 171 -103 l 257
 1000 1066 l 257
 837 1164 l 257
104 1023 m 257
 104 0 l 257
 304 0 l 257
 304 1023 l 257
 104 1023 l 257
719 1023 m 257
 719 0 l 257
 921 0 l 257
 921 1023 l 257
 719 1023 l 257
227 1023 m 257
 227 822 l 257
 813 822 l 257
 813 1023 l 257
 227 1023 l 257
231 200 m 257
 231 0 l 257
 803 0 l 257
 803 200 l 257
 231 200 l 257
EndSplineSet
EndChar

StartChar: p
Encoding: 112 112 261
GlifName: p
Width: 1024
VWidth: 0
Flags: W
LayerCount: 2
Fore
SplineSet
173 1203 m 257
 173 -406 l 257
 373 -406 l 257
 373 1203 l 257
 173 1203 l 257
271 1023 m 257
 271 821 l 257
 810 821 l 257
 810 1023 l 257
 271 1023 l 257
275 202 m 257
 275 0 l 257
 815 0 l 257
 815 202 l 257
 275 202 l 257
613 876 m 257
 613 175 l 257
 811 175 l 257
 811 876 l 257
 613 876 l 257
EndSplineSet
EndChar

StartChar: paragraph
Encoding: 182 182 262
GlifName: paragraph
Width: 1024
VWidth: 0
Flags: W
LayerCount: 2
Fore
SplineSet
36 1130 m 257
 36 985 l 257
 601 985 l 257
 601 1130 l 257
 36 1130 l 257
36 1548 m 257
 36 1000 l 257
 196 1000 l 257
 196 1548 l 257
 36 1548 l 257
36 1548 m 257
 36 1435 l 257
 856 1435 l 257
 856 1548 l 257
 36 1548 l 257
506 1548 m 257
 506 0 l 257
 651 0 l 257
 651 1548 l 257
 506 1548 l 257
776 1548 m 257
 776 0 l 257
 881 0 l 257
 881 1548 l 257
 776 1548 l 257
EndSplineSet
EndChar

StartChar: parenleft
Encoding: 40 40 263
GlifName: parenleft
Width: 1024
VWidth: 0
Flags: W
LayerCount: 2
Fore
SplineSet
324 1023 m 257
 324 179 l 257
 514 179 l 257
 514 1023 l 257
 324 1023 l 257
642 1633 m 257
 324 1028 l 257
 512 1028 l 257
 672 1640 l 257
 642 1633 l 257
324 179 m 257
 668 -406 l 257
 700 -406 l 257
 514 179 l 257
 324 179 l 257
EndSplineSet
EndChar

StartChar: parenright
Encoding: 41 41 264
GlifName: parenright
Width: 1024
VWidth: 0
Flags: W
LayerCount: 2
Fore
SplineSet
488 1023 m 257
 488 179 l 257
 678 179 l 257
 678 1023 l 257
 488 1023 l 257
346 1629 m 257
 488 1023 l 257
 678 1023 l 257
 384 1629 l 257
 346 1629 l 257
488 179 m 257
 346 -406 l 257
 374 -406 l 257
 678 179 l 257
 488 179 l 257
EndSplineSet
EndChar

StartChar: percent
Encoding: 37 37 265
GlifName: percent
Width: 1024
VWidth: 0
Flags: W
LayerCount: 2
Fore
SplineSet
78 522 m 257
 122 377 l 257
 946 716 l 257
 902 860 l 257
 78 522 l 257
218 1148 m 257
 218 822 l 257
 296 822 l 257
 296 1148 l 257
 218 1148 l 257
218 1152 m 257
 218 1057 l 257
 566 1057 l 257
 566 1152 l 257
 218 1152 l 257
218 871 m 257
 218 789 l 257
 562 789 l 257
 562 871 l 257
 218 871 l 257
474 1152 m 257
 474 791 l 257
 566 791 l 257
 566 1152 l 257
 474 1152 l 257
546 436 m 257
 546 110 l 257
 624 110 l 257
 624 436 l 257
 546 436 l 257
546 440 m 257
 546 345 l 257
 892 345 l 257
 892 440 l 257
 546 440 l 257
546 159 m 257
 546 77 l 257
 890 77 l 257
 890 159 l 257
 546 159 l 257
800 440 m 257
 800 79 l 257
 892 79 l 257
 892 440 l 257
 800 440 l 257
EndSplineSet
EndChar

StartChar: period
Encoding: 46 46 266
GlifName: period
Width: 1024
VWidth: 0
Flags: W
LayerCount: 2
Fore
SplineSet
380 246 m 257
 380 0 l 257
 644 0 l 257
 644 246 l 257
 380 246 l 257
EndSplineSet
EndChar

StartChar: periodcentered
Encoding: 183 183 267
GlifName: periodcentered
Width: 1024
VWidth: 0
Flags: W
LayerCount: 2
Fore
SplineSet
379 1146 m 257
 379 899 l 257
 644 899 l 257
 644 1146 l 257
 379 1146 l 257
EndSplineSet
EndChar

StartChar: perthousand
Encoding: 8240 8240 268
GlifName: perthousand
Width: 1024
VWidth: 0
Flags: W
LayerCount: 2
Fore
SplineSet
632 436 m 257
 632 110 l 257
 710 110 l 257
 710 436 l 257
 632 436 l 257
632 440 m 257
 632 345 l 257
 978 345 l 257
 978 440 l 257
 632 440 l 257
632 159 m 257
 632 77 l 257
 976 77 l 257
 976 159 l 257
 632 159 l 257
886 440 m 257
 886 79 l 257
 978 79 l 257
 978 440 l 257
 886 440 l 257
-14 522 m 257
 28 377 l 257
 852 716 l 257
 808 860 l 257
 -14 522 l 257
126 1148 m 257
 126 822 l 257
 204 822 l 257
 204 1148 l 257
 126 1148 l 257
126 1152 m 257
 126 1057 l 257
 472 1057 l 257
 472 1152 l 257
 126 1152 l 257
126 871 m 257
 126 789 l 257
 470 789 l 257
 470 871 l 257
 126 871 l 257
380 1152 m 257
 380 791 l 257
 472 791 l 257
 472 1152 l 257
 380 1152 l 257
230 436 m 257
 230 110 l 257
 308 110 l 257
 308 436 l 257
 230 436 l 257
230 440 m 257
 230 345 l 257
 578 345 l 257
 578 440 l 257
 230 440 l 257
230 159 m 257
 230 77 l 257
 574 77 l 257
 574 159 l 257
 230 159 l 257
486 440 m 257
 486 79 l 257
 578 79 l 257
 578 440 l 257
 486 440 l 257
EndSplineSet
EndChar

StartChar: plus
Encoding: 43 43 269
GlifName: plus
Width: 1024
VWidth: 0
Flags: W
LayerCount: 2
Fore
SplineSet
384 1221 m 257
 384 165 l 257
 609 165 l 257
 609 1221 l 257
 384 1221 l 257
61 821 m 257
 61 613 l 257
 963 613 l 257
 963 821 l 257
 61 821 l 257
EndSplineSet
EndChar

StartChar: plusminus
Encoding: 177 177 270
GlifName: plusminus
Width: 1024
VWidth: 0
Flags: W
LayerCount: 2
Fore
SplineSet
99 108 m 257
 99 -100 l 257
 925 -100 l 257
 925 108 l 257
 99 108 l 257
384 1221 m 257
 384 165 l 257
 609 165 l 257
 609 1221 l 257
 384 1221 l 257
61 821 m 257
 61 613 l 257
 963 613 l 257
 963 821 l 257
 61 821 l 257
EndSplineSet
EndChar

StartChar: q
Encoding: 113 113 271
GlifName: q
Width: 1024
VWidth: 0
Flags: W
LayerCount: 2
Fore
SplineSet
662 1201 m 257
 662 -406 l 257
 861 -406 l 257
 861 1201 l 257
 662 1201 l 257
189 1023 m 257
 189 823 l 257
 838 823 l 257
 838 1023 l 257
 189 1023 l 257
190 203 m 257
 190 0 l 257
 806 0 l 257
 806 203 l 257
 190 203 l 257
188 855 m 257
 188 107 l 257
 388 107 l 257
 388 855 l 257
 188 855 l 257
701 -268 m 257
 701 -406 l 257
 937 -406 l 257
 937 -268 l 257
 701 -268 l 257
EndSplineSet
EndChar

StartChar: question
Encoding: 63 63 272
GlifName: question
Width: 1024
VWidth: 0
Flags: W
LayerCount: 2
Fore
SplineSet
368 247 m 257
 368 0 l 257
 614 0 l 257
 614 247 l 257
 368 247 l 257
192 1519 m 257
 192 1333 l 257
 828 1333 l 257
 828 1519 l 257
 192 1519 l 257
638 1514 m 257
 638 966 l 257
 832 966 l 257
 832 1514 l 257
 638 1514 l 257
368 1015 m 257
 368 816 l 257
 832 816 l 257
 832 1015 l 257
 368 1015 l 257
368 1011 m 257
 368 392 l 257
 616 392 l 257
 616 1011 l 257
 368 1011 l 257
EndSplineSet
EndChar

StartChar: questiondown
Encoding: 191 191 273
GlifName: questiondown
Width: 1024
VWidth: 0
Flags: W
LayerCount: 2
Fore
SplineSet
655 1273 m 257
 655 1519 l 257
 405 1519 l 257
 405 1272 l 257
 655 1273 l 257
832 0 m 257
 832 186 l 257
 195 186 l 257
 195 0 l 257
 832 0 l 257
385 5 m 257
 385 553 l 257
 191 553 l 257
 191 5 l 257
 385 5 l 257
655 504 m 257
 655 703 l 257
 191 703 l 257
 191 504 l 257
 655 504 l 257
655 508 m 257
 655 1127 l 257
 407 1127 l 257
 407 508 l 257
 655 508 l 257
EndSplineSet
EndChar

StartChar: quotedbl
Encoding: 34 34 274
GlifName: quotedbl
Width: 1024
VWidth: 0
Flags: W
LayerCount: 2
Fore
SplineSet
240 1326 m 257
 384 1326 l 257
 384 1574 l 257
 240 1574 l 257
 240 1326 l 257
640 1326 m 257
 784 1326 l 257
 784 1574 l 257
 640 1574 l 257
 640 1326 l 257
EndSplineSet
EndChar

StartChar: quotedblbase
Encoding: 8222 8222 275
GlifName: quotedblbase
Width: 1024
VWidth: 0
Flags: W
LayerCount: 2
Fore
SplineSet
198 237 m 257
 198 8 l 257
 446 8 l 257
 446 237 l 257
 198 237 l 257
297 135 m 257
 179 -146 l 257
 322 -206 l 257
 444 0 l 257
 297 135 l 257
597 237 m 257
 597 8 l 257
 845 8 l 257
 845 237 l 257
 597 237 l 257
696 135 m 257
 578 -146 l 257
 721 -206 l 257
 843 0 l 257
 696 135 l 257
EndSplineSet
EndChar

StartChar: quotedblleft
Encoding: 8220 8220 276
GlifName: quotedblleft
Width: 1024
VWidth: 0
Flags: W
LayerCount: 2
Fore
SplineSet
458 1842 m 257
 458 2071 l 257
 210 2071 l 257
 210 1842 l 257
 458 1842 l 257
360 1944 m 257
 478 2225 l 257
 334 2285 l 257
 212 2075 l 257
 360 1944 l 257
794 1842 m 257
 794 2071 l 257
 546 2071 l 257
 546 1842 l 257
 794 1842 l 257
696 1944 m 257
 814 2225 l 257
 670 2285 l 257
 548 2075 l 257
 696 1944 l 257
EndSplineSet
EndChar

StartChar: quotedblright
Encoding: 8221 8221 277
GlifName: quotedblright
Width: 1024
VWidth: 0
Flags: W
LayerCount: 2
Fore
SplineSet
556 2285 m 257
 556 2056 l 257
 804 2056 l 257
 804 2285 l 257
 556 2285 l 257
656 2183 m 257
 538 1902 l 257
 680 1842 l 257
 802 2052 l 257
 656 2183 l 257
238 2285 m 257
 238 2056 l 257
 486 2056 l 257
 486 2285 l 257
 238 2285 l 257
338 2183 m 257
 220 1902 l 257
 362 1842 l 257
 484 2052 l 257
 338 2183 l 257
EndSplineSet
EndChar

StartChar: quoteleft
Encoding: 8216 8216 278
GlifName: quoteleft
Width: 1024
VWidth: 0
Flags: W
LayerCount: 2
Fore
SplineSet
626 1842 m 257
 626 2071 l 257
 378 2071 l 257
 378 1842 l 257
 626 1842 l 257
528 1944 m 257
 646 2225 l 257
 502 2285 l 257
 380 2075 l 257
 528 1944 l 257
EndSplineSet
EndChar

StartChar: quoteright
Encoding: 8217 8217 279
GlifName: quoteright
Width: 1024
VWidth: 0
Flags: W
LayerCount: 2
Fore
SplineSet
398 2285 m 257
 398 2056 l 257
 646 2056 l 257
 646 2285 l 257
 398 2285 l 257
496 2183 m 257
 378 1902 l 257
 522 1842 l 257
 644 2052 l 257
 496 2183 l 257
EndSplineSet
EndChar

StartChar: quotesinglbase
Encoding: 8218 8218 280
GlifName: quotesinglbase
Width: 1024
VWidth: 0
Flags: W
LayerCount: 2
Fore
SplineSet
398 237 m 257
 398 8 l 257
 646 8 l 257
 646 237 l 257
 398 237 l 257
496 135 m 257
 378 -146 l 257
 522 -206 l 257
 644 0 l 257
 496 135 l 257
EndSplineSet
EndChar

StartChar: quotesingle
Encoding: 39 39 281
GlifName: quotesingle
Width: 1024
VWidth: 0
Flags: W
LayerCount: 2
Fore
SplineSet
447 1496 m 257
 447 1264 l 257
 577 1264 l 257
 577 1496 l 257
 447 1496 l 257
EndSplineSet
EndChar

StartChar: r
Encoding: 114 114 282
GlifName: r
Width: 1024
VWidth: 0
Flags: W
LayerCount: 2
Fore
SplineSet
165 1023 m 257
 165 821 l 257
 898 821 l 257
 898 1023 l 257
 165 1023 l 257
380 954 m 257
 380 0 l 257
 580 0 l 257
 580 954 l 257
 380 954 l 257
698 976 m 257
 698 650 l 257
 898 650 l 257
 898 976 l 257
 698 976 l 257
EndSplineSet
EndChar

StartChar: registered
Encoding: 174 174 285
GlifName: registered
Width: 1024
VWidth: 0
Flags: W
LayerCount: 2
Fore
SplineSet
389 1032 m 257
 389 501 l 257
 457 501 l 257
 457 1032 l 257
 389 1032 l 257
414 1032 m 257
 414 963 l 257
 643 963 l 257
 643 1032 l 257
 414 1032 l 257
583 1032 m 257
 583 802 l 257
 652 802 l 257
 652 1032 l 257
 583 1032 l 257
410 875 m 257
 410 801 l 257
 648 801 l 257
 648 875 l 257
 410 875 l 257
457 809 m 257
 596 500 l 257
 679 500 l 257
 527 809 l 257
 457 809 l 257
33 1537 m 257
 33 0 l 257
 234 0 l 257
 234 1537 l 257
 33 1537 l 257
772 1537 m 257
 772 0 l 257
 975 0 l 257
 975 1537 l 257
 772 1537 l 257
174 1537 m 257
 174 1337 l 257
 817 1337 l 257
 817 1537 l 257
 174 1537 l 257
150 204 m 257
 150 0 l 257
 823 0 l 257
 823 204 l 257
 150 204 l 257
EndSplineSet
EndChar

StartChar: ring
Encoding: 730 730 286
GlifName: ring
Width: 1024
VWidth: 0
Flags: W
LayerCount: 2
Fore
SplineSet
467 1756 m 257
 615 1756 l 257
 615 1626 l 257
 467 1626 l 257
 467 1756 l 257
362 1847 m 257
 362 1537 l 257
 722 1537 l 257
 722 1847 l 257
 362 1847 l 257
EndSplineSet
EndChar

StartChar: s
Encoding: 115 115 287
GlifName: s
Width: 1024
VWidth: 0
Flags: W
LayerCount: 2
Fore
SplineSet
186 1023 m 257
 186 826 l 257
 795 826 l 257
 795 1023 l 257
 186 1023 l 257
186 1023 m 257
 186 736 l 257
 386 736 l 257
 386 1023 l 257
 186 1023 l 257
187 201 m 257
 187 0 l 257
 792 0 l 257
 792 201 l 257
 187 201 l 257
591 293 m 257
 591 12 l 257
 791 12 l 257
 791 293 l 257
 591 293 l 257
187 736 m 257
 591 293 l 257
 791 293 l 257
 387 736 l 257
 187 736 l 257
EndSplineSet
EndChar

StartChar: section
Encoding: 167 167 292
GlifName: section
Width: 1024
VWidth: 0
Flags: W
LayerCount: 2
Fore
SplineSet
146 1238 m 257
 146 1035 l 257
 744 1035 l 257
 744 1238 l 257
 146 1238 l 257
146 1241 m 257
 146 605 l 257
 348 605 l 257
 348 1241 l 257
 146 1241 l 257
183 -61 m 257
 183 -260 l 257
 891 -260 l 257
 891 -61 l 257
 183 -61 l 257
726 -259 m 257
 927 -259 l 257
 927 95 l 257
 726 95 l 257
 726 -259 l 257
146 605 m 257
 726 95 l 257
 927 95 l 257
 348 605 l 257
 146 605 l 257
146 1626 m 257
 146 1423 l 257
 744 1423 l 257
 744 1626 l 257
 146 1626 l 257
146 1629 m 257
 146 1237 l 257
 348 1237 l 257
 348 1629 l 257
 146 1629 l 257
174 286 m 257
 174 87 l 257
 882 87 l 257
 882 286 l 257
 174 286 l 257
717 88 m 257
 918 88 l 257
 918 442 l 257
 717 442 l 257
 717 88 l 257
146 1237 m 257
 717 442 l 257
 918 442 l 257
 348 1237 l 257
 146 1237 l 257
EndSplineSet
EndChar

StartChar: semicolon
Encoding: 59 59 293
GlifName: semicolon
Width: 1024
VWidth: 0
Flags: W
LayerCount: 2
Fore
SplineSet
400 430 m 257
 400 201 l 257
 648 201 l 257
 648 430 l 257
 400 430 l 257
498 328 m 257
 380 47 l 257
 524 -13 l 257
 646 197 l 257
 498 328 l 257
376 871 m 257
 376 624 l 257
 642 624 l 257
 642 871 l 257
 376 871 l 257
EndSplineSet
EndChar

StartChar: seven
Encoding: 55 55 294
GlifName: seven
Width: 1024
VWidth: 0
Flags: W
LayerCount: 2
Fore
SplineSet
54 1355 m 257
 764 1355 l 257
 764 0 l 257
 967 0 l 257
 967 1557 l 257
 54 1557 l 257
 54 1355 l 257
EndSplineSet
EndChar

StartChar: six
Encoding: 54 54 295
GlifName: six
Width: 1024
VWidth: 0
Flags: W
LayerCount: 2
Fore
SplineSet
41 1548 m 257
 41 201 l 257
 41 0 l 257
 980 0 l 257
 980 959 l 257
 244 959 l 257
 244 1348 l 257
 985 1348 l 257
 985 1548 l 257
 41 1548 l 257
772 759 m 257
 772 203 l 257
 250 203 l 257
 250 759 l 257
 772 759 l 257
EndSplineSet
EndChar

StartChar: slash
Encoding: 47 47 296
GlifName: slash
Width: 1024
VWidth: 0
Flags: W
LayerCount: 2
Fore
SplineSet
703 1483 m 257
 133 6 l 257
 321 -67 l 257
 891 1410 l 257
 703 1483 l 257
EndSplineSet
EndChar

StartChar: sterling
Encoding: 163 163 298
GlifName: sterling
Width: 1024
VWidth: 0
Flags: W
LayerCount: 2
Fore
SplineSet
381 1543 m 257
 381 1344 l 257
 672 1344 l 257
 672 1543 l 257
 381 1543 l 257
54 770 m 257
 54 571 l 257
 780 571 l 257
 780 770 l 257
 54 770 l 257
337 1542 m 257
 337 0 l 257
 535 0 l 257
 535 1542 l 257
 337 1542 l 257
162 202 m 257
 162 0 l 257
 888 0 l 257
 888 202 l 257
 162 202 l 257
EndSplineSet
EndChar

StartChar: t
Encoding: 116 116 299
GlifName: t
Width: 1024
VWidth: 0
Flags: W
LayerCount: 2
Fore
SplineSet
410 1548 m 257
 410 0 l 257
 610 0 l 257
 610 1548 l 257
 410 1548 l 257
418 199 m 257
 418 0 l 257
 809 0 l 257
 809 199 l 257
 418 199 l 257
174 1023 m 257
 174 824 l 257
 848 824 l 257
 848 1023 l 257
 174 1023 l 257
EndSplineSet
EndChar

StartChar: tcaron
Encoding: 357 357 300
GlifName: tcaron
Width: 1024
VWidth: 0
Flags: W
LayerCount: 2
Fore
SplineSet
342 1529 m 257
 342 0 l 257
 543 0 l 257
 543 1529 l 257
 342 1529 l 257
495 199 m 257
 495 0 l 257
 886 0 l 257
 886 199 l 257
 495 199 l 257
70 1023 m 257
 70 824 l 257
 849 824 l 257
 849 1023 l 257
 70 1023 l 257
672 1496 m 257
 672 1291 l 257
 802 1291 l 257
 802 1496 l 257
 672 1496 l 257
EndSplineSet
EndChar

StartChar: thorn
Encoding: 254 254 301
GlifName: thorn
Width: 1024
VWidth: 0
Flags: W
LayerCount: 2
Fore
SplineSet
173 1034 m 257
 173 -406 l 257
 373 -406 l 257
 373 1034 l 257
 173 1034 l 257
360 667 m 257
 360 468 l 257
 916 468 l 257
 916 667 l 257
 360 667 l 257
368 6 m 257
 368 -195 l 257
 914 -195 l 257
 914 6 l 257
 368 6 l 257
716 597 m 257
 716 -104 l 257
 914 -104 l 257
 914 597 l 257
 716 597 l 257
EndSplineSet
EndChar

StartChar: three
Encoding: 51 51 302
GlifName: three
Width: 1024
VWidth: 0
Flags: W
LayerCount: 2
Fore
SplineSet
101 736 m 257
 759 736 l 257
 759 192 l 257
 59 192 l 257
 59 -8 l 257
 963 -8 l 257
 963 1553 l 257
 89 1553 l 257
 89 1353 l 257
 757 1353 l 257
 757 936 l 257
 101 936 l 257
 101 736 l 257
EndSplineSet
EndChar

StartChar: threequarters
Encoding: 190 190 303
GlifName: threequarters
Width: 1024
VWidth: 0
Flags: W
LayerCount: 2
Fore
SplineSet
703 1483 m 257
 133 6 l 257
 321 -67 l 257
 891 1410 l 257
 703 1483 l 257
77 1272 m 257
 355 1272 l 257
 355 1084 l 257
 59 1084 l 257
 59 1015 l 257
 441 1015 l 257
 441 1553 l 257
 72 1553 l 257
 72 1484 l 257
 354 1484 l 257
 354 1340 l 257
 77 1340 l 257
 77 1272 l 257
643 340 m 257
 908 340 l 257
 908 7 l 257
 989 7 l 257
 989 687 l 257
 907 687 l 257
 907 428 l 257
 725 428 l 257
 725 689 l 257
 643 689 l 257
 643 340 l 257
EndSplineSet
EndChar

StartChar: tilde
Encoding: 732 732 304
GlifName: tilde
Width: 1024
VWidth: 0
Flags: W
LayerCount: 2
Fore
SplineSet
359 1607 m 257
 359 1528 l 257
 639 1479 l 257
 639 1558 l 257
 359 1607 l 257
169 1560 m 257
 181 1482 l 257
 359 1528 l 257
 359 1607 l 257
 169 1560 l 257
639 1558 m 257
 639 1479 l 257
 784 1592 l 257
 765 1668 l 257
 639 1558 l 257
EndSplineSet
EndChar

StartChar: tildecomb
Encoding: 771 771 305
GlifName: tildecomb
Width: 1024
VWidth: 0
Flags: W
LayerCount: 2
Fore
SplineSet
330 2015 m 257
 330 1916 l 257
 680 1855 l 257
 680 1954 l 257
 330 2015 l 257
92 1957 m 257
 107 1859 l 257
 330 1916 l 257
 330 2015 l 257
 92 1957 l 257
680 1954 m 257
 680 1855 l 257
 861 1996 l 257
 837 2092 l 257
 680 1954 l 257
EndSplineSet
EndChar

StartChar: two
Encoding: 50 50 307
GlifName: two
Width: 1024
VWidth: 0
Flags: W
LayerCount: 2
Fore
SplineSet
109 1344 m 257
 718 1344 l 257
 718 908 l 257
 116 908 l 257
 116 0 l 257
 904 0 l 257
 904 200 l 257
 319 200 l 257
 319 707 l 257
 918 707 l 257
 918 1548 l 257
 109 1548 l 257
 109 1344 l 257
EndSplineSet
EndChar

StartChar: u
Encoding: 117 117 308
GlifName: u
Width: 1024
VWidth: 0
Flags: W
LayerCount: 2
Fore
SplineSet
139 1023 m 257
 139 0 l 257
 340 0 l 257
 340 1023 l 257
 139 1023 l 257
571 1023 m 257
 571 0 l 257
 771 0 l 257
 771 1023 l 257
 571 1023 l 257
186 200 m 257
 186 0 l 257
 888 0 l 257
 888 200 l 257
 186 200 l 257
EndSplineSet
EndChar

StartChar: underscore
Encoding: 95 95 316
GlifName: underscore
Width: 1024
VWidth: 0
Flags: W
LayerCount: 2
Fore
SplineSet
-5 -5 m 257
 -5 -71 l 257
 1019 -71 l 257
 1019 -5 l 257
 -5 -5 l 257
EndSplineSet
EndChar

StartChar: uni00B2
Encoding: 178 178 318
GlifName: uni00B_2
Width: 1024
VWidth: 0
Flags: W
LayerCount: 2
Fore
SplineSet
225 1455 m 257
 573 1455 l 257
 573 1259 l 257
 229 1259 l 257
 229 851 l 257
 678 851 l 257
 678 940 l 257
 345 940 l 257
 345 1168 l 257
 687 1168 l 257
 687 1548 l 257
 225 1548 l 257
 225 1455 l 257
EndSplineSet
EndChar

StartChar: uni00B3
Encoding: 179 179 319
GlifName: uni00B_3
Width: 1024
VWidth: 0
Flags: W
LayerCount: 2
Fore
SplineSet
193 1215 m 257
 645 1215 l 257
 645 990 l 257
 164 990 l 257
 164 908 l 257
 785 908 l 257
 785 1553 l 257
 185 1553 l 257
 185 1471 l 257
 644 1471 l 257
 644 1298 l 257
 193 1298 l 257
 193 1215 l 257
EndSplineSet
EndChar

StartChar: uni00B9
Encoding: 185 185 320
GlifName: uni00B_9
Width: 1024
VWidth: 0
Flags: W
LayerCount: 2
Fore
SplineSet
510.75 887 m 257
 610.25 887 l 257
 610.25 1661 l 257
 510.75 1661 l 257
 510.75 887 l 257
512.75 1661 m 257
 413.75 1513 l 257
 488.75 1463 l 257
 587.75 1611.5 l 257
 512.75 1661 l 257
EndSplineSet
EndChar

StartChar: uni0123
Encoding: 291 291 322
GlifName: uni0123
Width: 1024
VWidth: 0
Flags: W
LayerCount: 2
Fore
SplineSet
297 1023 m 257
 297 0 l 257
 489 0 l 257
 489 1023 l 257
 297 1023 l 257
337 1023 m 257
 337 823 l 257
 853 823 l 257
 853 1023 l 257
 337 1023 l 257
681 1023 m 257
 681 -411 l 257
 875 -411 l 257
 875 1023 l 257
 681 1023 l 257
360 198 m 257
 360 0 l 257
 817 0 l 257
 817 198 l 257
 360 198 l 257
291 -214 m 257
 291 -413 l 257
 826 -413 l 257
 826 -214 l 257
 291 -214 l 257
447 1496 m 257
 447 1198 l 257
 577 1198 l 257
 577 1496 l 257
 447 1496 l 257
EndSplineSet
EndChar

StartChar: uni0192
Encoding: 402 402 333
GlifName: uni0192
Width: 1024
VWidth: 0
Flags: W
LayerCount: 2
Fore
SplineSet
413 1023 m 257
 413 -406 l 257
 613 -406 l 257
 613 1023 l 257
 413 1023 l 257
475 1023 m 257
 475 831 l 257
 957 831 l 257
 957 1023 l 257
 475 1023 l 257
229 559 m 257
 229 356 l 257
 860 356 l 257
 860 559 l 257
 229 559 l 257
167 -201 m 257
 167 -406 l 257
 615 -406 l 257
 615 -201 l 257
 167 -201 l 257
EndSplineSet
EndChar

StartChar: uni0237
Encoding: 567 567 341
GlifName: uni0237
Width: 1024
VWidth: 0
Flags: W
LayerCount: 2
Fore
SplineSet
627 940 m 257
 627 -411 l 257
 826 -411 l 257
 826 940 l 257
 627 940 l 257
197 -209 m 257
 197 -406 l 257
 727 -406 l 257
 727 -209 l 257
 197 -209 l 257
198 -6 m 257
 198 -351 l 257
 398 -351 l 257
 398 -6 l 257
 198 -6 l 257
EndSplineSet
EndChar

StartChar: uni02C9
Encoding: 713 713 345
GlifName: uni02C_9
Width: 1024
VWidth: 0
Flags: W
LayerCount: 2
Fore
SplineSet
226 1630 m 257
 226 1548 l 257
 786 1548 l 257
 786 1630 l 257
 226 1630 l 257
EndSplineSet
EndChar

StartChar: uni02CA
Encoding: 714 714 346
GlifName: uni02C_A_
Width: 1024
VWidth: 0
Flags: W
LayerCount: 2
Fore
SplineSet
556 1346 m 257
 426 1092 l 257
 514 1046 l 257
 645 1301 l 257
 556 1346 l 257
EndSplineSet
EndChar

StartChar: uni02CB
Encoding: 715 715 347
GlifName: uni02C_B_
Width: 1024
VWidth: 0
Flags: W
LayerCount: 2
Fore
SplineSet
421 2107 m 257
 541 1871 l 257
 632 1917 l 257
 513 2154 l 257
 421 2107 l 257
EndSplineSet
EndChar

StartChar: uni0302
Encoding: 770 770 348
GlifName: uni0302
Width: 1024
VWidth: 0
Flags: W
LayerCount: 2
Fore
SplineSet
502 2158 m 257
 442 2158 l 257
 336 1911 l 257
 396 1886 l 257
 502 2158 l 257
444 2110 m 257
 547 1886 l 257
 607 1908 l 257
 502 2158 l 257
 444 2110 l 257
EndSplineSet
EndChar

StartChar: uni0304
Encoding: 772 772 349
GlifName: uni0304
Width: 1024
VWidth: 0
Flags: W
LayerCount: 2
Fore
SplineSet
226 1630 m 257
 226 1548 l 257
 786 1548 l 257
 786 1630 l 257
 226 1630 l 257
EndSplineSet
EndChar

StartChar: uni0305
Encoding: 773 773 350
GlifName: uni0305
Width: 0
VWidth: 0
LayerCount: 2
Fore
SplineSet
-901 1602 m 257
 -901 1542 l 257
 -147 1542 l 257
 -147 1602 l 257
 -901 1602 l 257
EndSplineSet
EndChar

StartChar: uni0306
Encoding: 774 774 351
GlifName: uni0306
Width: 1024
VWidth: 0
Flags: W
LayerCount: 2
Fore
SplineSet
656 1548 m 257
 656 1480 l 257
 821 1548 l 257
 821 1645 l 257
 656 1548 l 257
332 1548 m 257
 332 1480 l 257
 656 1480 l 257
 656 1548 l 257
 332 1548 l 257
161 1630 m 257
 161 1548 l 257
 332 1480 l 257
 332 1548 l 257
 161 1630 l 257
EndSplineSet
EndChar

StartChar: uni0307
Encoding: 775 775 352
GlifName: uni0307
Width: 1024
VWidth: 0
Flags: W
LayerCount: 2
Fore
SplineSet
400 1788 m 257
 400 1586 l 257
 624 1586 l 257
 624 1788 l 257
 400 1788 l 257
EndSplineSet
EndChar

StartChar: uni0308
Encoding: 776 776 353
GlifName: uni0308
Width: 1024
VWidth: 0
Flags: W
LayerCount: 2
Fore
SplineSet
335 1738 m 257
 335 1637 l 257
 447 1637 l 257
 447 1738 l 257
 335 1738 l 257
577 1738 m 257
 577 1637 l 257
 689 1637 l 257
 689 1738 l 257
 577 1738 l 257
EndSplineSet
EndChar

StartChar: uni030A
Encoding: 778 778 354
GlifName: uni030A_
Width: 1024
VWidth: 0
Flags: W
LayerCount: 2
Fore
SplineSet
467 1756 m 257
 615 1756 l 257
 615 1626 l 257
 467 1626 l 257
 467 1756 l 257
362 1847 m 257
 362 1537 l 257
 722 1537 l 257
 722 1847 l 257
 362 1847 l 257
EndSplineSet
EndChar

StartChar: uni030C
Encoding: 780 780 356
GlifName: uni030C_
Width: 1024
VWidth: 0
Flags: W
LayerCount: 2
Fore
SplineSet
552 1349 m 257
 446 1621 l 257
 386 1596 l 257
 492 1349 l 257
 552 1349 l 257
494 1397 m 257
 552 1349 l 257
 657 1599 l 257
 597 1621 l 257
 494 1397 l 257
EndSplineSet
EndChar

StartChar: uni0326
Encoding: 806 806 357
GlifName: uni0326
Width: 1024
VWidth: 0
Flags: W
LayerCount: 2
Fore
SplineSet
397 0 m 257
 397 -230 l 257
 645 -230 l 257
 645 0 l 257
 397 0 l 257
496 -103 m 257
 378 -384 l 257
 521 -444 l 257
 643 -234 l 257
 496 -103 l 257
EndSplineSet
EndChar

StartChar: uni0327
Encoding: 807 807 358
GlifName: uni0327
Width: 1024
VWidth: 0
Flags: W
LayerCount: 2
Fore
SplineSet
577 180 m 257
 577 -144 l 257
 733 -144 l 257
 733 180 l 257
 577 180 l 257
578 -288 m 257
 578 -406 l 257
 1024 -406 l 257
 1024 -288 l 257
 578 -288 l 257
872 0 m 257
 872 -372 l 257
 1024 -372 l 257
 1024 0 l 257
 872 0 l 257
578 0 m 257
 578 -156 l 257
 1024 -156 l 257
 1024 0 l 257
 578 0 l 257
EndSplineSet
EndChar

StartChar: uni0328
Encoding: 808 808 359
GlifName: uni0328
Width: 1024
VWidth: 0
Flags: W
LayerCount: 2
Fore
SplineSet
482 -288 m 257
 482 -406 l 257
 1024 -406 l 257
 1024 -288 l 257
 482 -288 l 257
482 0 m 257
 482 -406 l 257
 600 -406 l 257
 600 0 l 257
 482 0 l 257
482 0 m 257
 482 -121 l 257
 1024 -121 l 257
 1024 0 l 257
 482 0 l 257
EndSplineSet
EndChar

StartChar: uni0331
Encoding: 817 817 360
GlifName: uni0331
Width: 1024
VWidth: 0
Flags: W
LayerCount: 2
Fore
SplineSet
226 -170 m 257
 226 -248 l 257
 786 -248 l 257
 786 -170 l 257
 226 -170 l 257
EndSplineSet
EndChar

StartChar: uni0900
Encoding: 2304 2304 361
GlifName: uni0900
Width: 1024
VWidth: 0
Flags: W
LayerCount: 2
Fore
SplineSet
0 1548 m 257
 0 1348 l 257
 1026 1348 l 257
 1026 1548 l 257
 0 1548 l 257
110 2124 m 257
 110 1639 l 257
 309 1639 l 257
 309 2124 l 257
 110 2124 l 257
156 2126 m 257
 156 1925 l 257
 790 1925 l 257
 790 2126 l 257
 156 2126 l 257
422 1865 m 257
 422 1665 l 257
 622 1665 l 257
 622 1865 l 257
 422 1865 l 257
714 2127 m 257
 714 1636 l 257
 914 1636 l 257
 914 2127 l 257
 714 2127 l 257
EndSplineSet
EndChar

StartChar: uni0901
Encoding: 2305 2305 362
GlifName: uni0901
Width: 1024
VWidth: 0
Flags: W
LayerCount: 2
Fore
SplineSet
0 1548 m 257
 0 1348 l 257
 1025 1348 l 257
 1025 1548 l 257
 0 1548 l 257
153 2124 m 257
 153 1639 l 257
 352 1639 l 257
 352 2124 l 257
 153 2124 l 257
199 1842 m 257
 199 1641 l 257
 833 1641 l 257
 833 1842 l 257
 199 1842 l 257
455 2095 m 257
 455 1895 l 257
 655 1895 l 257
 655 2095 l 257
 455 2095 l 257
757 2132 m 257
 757 1641 l 257
 957 1641 l 257
 957 2132 l 257
 757 2132 l 257
EndSplineSet
EndChar

StartChar: uni0902
Encoding: 2306 2306 363
GlifName: uni0902
Width: 1024
VWidth: 0
Flags: W
LayerCount: 2
Fore
SplineSet
49 1839 m 257
 49 1639 l 257
 249 1639 l 257
 249 1839 l 257
 49 1839 l 257
0 1548 m 257
 0 1348 l 257
 1025 1348 l 257
 1025 1548 l 257
 0 1548 l 257
EndSplineSet
EndChar

StartChar: uni0903
Encoding: 2307 2307 364
GlifName: uni0903
Width: 1024
VWidth: 0
Flags: W
LayerCount: 2
Fore
SplineSet
412 649 m 257
 412 449 l 257
 612 449 l 257
 612 649 l 257
 412 649 l 257
412 1317 m 257
 412 1117 l 257
 612 1117 l 257
 612 1317 l 257
 412 1317 l 257
EndSplineSet
EndChar

StartChar: uni0904
Encoding: 2308 2308 365
GlifName: uni0904
Width: 1024
VWidth: 0
Flags: W
LayerCount: 2
Fore
SplineSet
266 2155 m 257
 266 1836 l 257
 464 1836 l 257
 464 2155 l 257
 266 2155 l 257
265 1967 m 257
 265 1768 l 257
 948 1768 l 257
 948 1967 l 257
 265 1967 l 257
749 1956 m 257
 749 1516 l 257
 950 1516 l 257
 950 1956 l 257
 749 1956 l 257
716 1548 m 257
 716 1347 l 257
 1025 1347 l 257
 1025 1548 l 257
 716 1548 l 257
777 1419 m 257
 777 0 l 257
 976 0 l 257
 976 1419 l 257
 777 1419 l 257
50 1548 m 257
 50 1348 l 257
 573 1348 l 257
 573 1548 l 257
 50 1548 l 257
399 1548 m 257
 399 140 l 257
 599 140 l 257
 599 1548 l 257
 399 1548 l 257
134 894 m 257
 134 693 l 257
 831 693 l 257
 831 894 l 257
 134 894 l 257
25 201 m 257
 25 0 l 257
 599 0 l 257
 599 201 l 257
 25 201 l 257
EndSplineSet
EndChar

StartChar: uni0905
Encoding: 2309 2309 366
GlifName: uni0905
Width: 1024
VWidth: 0
Flags: W
LayerCount: 2
Fore
SplineSet
716 1548 m 257
 716 1348 l 257
 1027 1348 l 257
 1027 1548 l 257
 716 1548 l 257
777 1419 m 257
 777 0 l 257
 976 0 l 257
 976 1419 l 257
 777 1419 l 257
50 1548 m 257
 50 1348 l 257
 573 1348 l 257
 573 1548 l 257
 50 1548 l 257
399 1548 m 257
 399 140 l 257
 599 140 l 257
 599 1548 l 257
 399 1548 l 257
134 894 m 257
 134 693 l 257
 831 693 l 257
 831 894 l 257
 134 894 l 257
25 201 m 257
 25 0 l 257
 599 0 l 257
 599 201 l 257
 25 201 l 257
EndSplineSet
EndChar

StartChar: uni0906
Encoding: 2310 2310 367
GlifName: uni0906
Width: 1024
VWidth: 0
Flags: W
LayerCount: 2
Fore
SplineSet
528 1548 m 257
 528 1348 l 257
 1025 1348 l 257
 1025 1548 l 257
 528 1548 l 257
544 1419 m 257
 544 0 l 257
 743 0 l 257
 743 1419 l 257
 544 1419 l 257
25 1548 m 257
 25 1348 l 257
 385 1348 l 257
 385 1548 l 257
 25 1548 l 257
211 1548 m 257
 211 140 l 257
 411 140 l 257
 411 1548 l 257
 211 1548 l 257
109 894 m 257
 109 693 l 257
 643 693 l 257
 643 894 l 257
 109 894 l 257
0 201 m 257
 0 0 l 257
 411 0 l 257
 411 201 l 257
 0 201 l 257
811 1420 m 257
 811 0 l 257
 1010 0 l 257
 1010 1420 l 257
 811 1420 l 257
EndSplineSet
EndChar

StartChar: uni0907
Encoding: 2311 2311 368
GlifName: uni0907
Width: 1024
VWidth: 0
Flags: W
LayerCount: 2
Fore
SplineSet
0 1548 m 257
 0 1348 l 257
 1025 1348 l 257
 1025 1548 l 257
 0 1548 l 257
546 1530 m 257
 546 1110 l 257
 746 1110 l 257
 746 1530 l 257
 546 1530 l 257
165 1205 m 257
 165 1004 l 257
 746 1004 l 257
 746 1205 l 257
 165 1205 l 257
165 1181 m 257
 165 738 l 257
 335 738 l 257
 335 1181 l 257
 165 1181 l 257
165 881 m 257
 165 681 l 257
 760 681 l 257
 760 881 l 257
 165 881 l 257
639 881 m 257
 639 278 l 257
 838 278 l 257
 838 881 l 257
 639 881 l 257
143 298 m 257
 143 97 l 257
 838 97 l 257
 838 298 l 257
 143 298 l 257
259 298 m 257
 259 -244 l 257
 459 -244 l 257
 459 298 l 257
 259 298 l 257
EndSplineSet
EndChar

StartChar: uni0908
Encoding: 2312 2312 369
GlifName: uni0908
Width: 1024
VWidth: 0
Flags: W
LayerCount: 2
Fore
SplineSet
0 1548 m 257
 0 1348 l 257
 1025 1348 l 257
 1025 1548 l 257
 0 1548 l 257
546 1548 m 257
 546 1104 l 257
 746 1104 l 257
 746 1548 l 257
 546 1548 l 257
165 1205 m 257
 165 1004 l 257
 746 1004 l 257
 746 1205 l 257
 165 1205 l 257
165 1181 m 257
 165 738 l 257
 365 738 l 257
 365 1181 l 257
 165 1181 l 257
165 881 m 257
 165 681 l 257
 760 681 l 257
 760 881 l 257
 165 881 l 257
657 881 m 257
 657 285 l 257
 838 285 l 257
 838 881 l 257
 657 881 l 257
143 298 m 257
 143 97 l 257
 841 97 l 257
 841 298 l 257
 143 298 l 257
259 298 m 257
 259 -244 l 257
 482 -244 l 257
 482 298 l 257
 259 298 l 257
268 1770 m 257
 515 1423 l 257
 678 1537 l 257
 430 1886 l 257
 268 1770 l 257
EndSplineSet
EndChar

StartChar: uni0909
Encoding: 2313 2313 370
GlifName: uni0909
Width: 1024
VWidth: 0
Flags: W
LayerCount: 2
Fore
SplineSet
0 1548 m 257
 0 1348 l 257
 1026 1348 l 257
 1026 1548 l 257
 0 1548 l 257
480 1530 m 257
 480 1001 l 257
 679 1001 l 257
 679 1530 l 257
 480 1530 l 257
235 1044 m 257
 235 845 l 257
 877 845 l 257
 877 1044 l 257
 235 1044 l 257
678 994 m 257
 678 0 l 257
 878 0 l 257
 878 994 l 257
 678 994 l 257
130 201 m 257
 130 0 l 257
 867 0 l 257
 867 201 l 257
 130 201 l 257
130 363 m 257
 130 36 l 257
 330 36 l 257
 330 363 l 257
 130 363 l 257
EndSplineSet
EndChar

StartChar: uni090A
Encoding: 2314 2314 371
GlifName: uni090A_
Width: 1024
VWidth: 0
Flags: W
LayerCount: 2
Fore
SplineSet
0 1548 m 257
 0 1348 l 257
 1025 1348 l 257
 1025 1548 l 257
 0 1548 l 257
308 1530 m 257
 308 1001 l 257
 507 1001 l 257
 507 1530 l 257
 308 1530 l 257
151 1044 m 257
 151 845 l 257
 974 845 l 257
 974 1044 l 257
 151 1044 l 257
487 994 m 257
 487 11 l 257
 687 11 l 257
 687 994 l 257
 487 994 l 257
46 204 m 257
 46 5 l 257
 684 5 l 257
 684 204 l 257
 46 204 l 257
46 366 m 257
 46 39 l 257
 246 39 l 257
 246 366 l 257
 46 366 l 257
775 946 m 257
 775 217 l 257
 974 217 l 257
 974 946 l 257
 775 946 l 257
EndSplineSet
EndChar

StartChar: uni090B
Encoding: 2315 2315 372
GlifName: uni090B_
Width: 1024
VWidth: 0
Flags: W
LayerCount: 2
Fore
SplineSet
0 1548 m 257
 0 1346 l 257
 1027 1346 l 257
 1027 1548 l 257
 0 1548 l 257
518 1525 m 257
 518 0 l 257
 717 0 l 257
 717 1525 l 257
 518 1525 l 257
22 1044 m 257
 22 845 l 257
 326 845 l 257
 326 1044 l 257
 22 1044 l 257
511 496 m 257
 118 329 l 257
 200 136 l 257
 593 303 l 257
 511 496 l 257
326 1044 m 257
 326 846 l 257
 608 742 l 257
 608 944 l 257
 326 1044 l 257
695 897 m 257
 695 699 l 257
 1010 699 l 257
 1010 897 l 257
 695 897 l 257
788 897 m 257
 788 262 l 257
 987 262 l 257
 987 897 l 257
 788 897 l 257
864 462 m 257
 864 262 l 257
 1028 262 l 257
 1028 462 l 257
 864 462 l 257
EndSplineSet
EndChar

StartChar: uni090C
Encoding: 2316 2316 373
GlifName: uni090C_
Width: 1024
VWidth: 0
Flags: W
LayerCount: 2
Fore
SplineSet
0 1548 m 257
 0 1350 l 257
 1026 1350 l 257
 1026 1548 l 257
 0 1548 l 257
557 1524 m 257
 557 689 l 257
 757 689 l 257
 757 1524 l 257
 557 1524 l 257
945 791 m 257
 41 791 l 257
 41 590 l 257
 945 590 l 257
 945 791 l 257
42 777 m 257
 42 252 l 257
 243 252 l 257
 243 777 l 257
 42 777 l 257
393 791 m 257
 393 433 l 257
 594 433 l 257
 594 791 l 257
 393 791 l 257
745 791 m 257
 745 72 l 257
 945 72 l 257
 945 791 l 257
 745 791 l 257
820 260 m 257
 820 72 l 257
 1021 72 l 257
 1021 260 l 257
 820 260 l 257
EndSplineSet
EndChar

StartChar: uni090D
Encoding: 2317 2317 374
GlifName: uni090D_
Width: 1024
VWidth: 0
Flags: W
LayerCount: 2
Fore
SplineSet
0 1548 m 257
 0 1348 l 257
 1026 1348 l 257
 1026 1548 l 257
 0 1548 l 257
729 1548 m 257
 729 779 l 257
 928 779 l 257
 928 1548 l 257
 729 1548 l 257
635 839 m 257
 635 639 l 257
 928 639 l 257
 928 839 l 257
 635 839 l 257
142 1542 m 257
 142 338 l 257
 341 338 l 257
 341 1542 l 257
 142 1542 l 257
142 496 m 257
 142 297 l 257
 749 297 l 257
 749 496 l 257
 142 496 l 257
550 358 m 257
 550 -98 l 257
 749 -98 l 257
 749 358 l 257
 550 358 l 257
387 101 m 257
 387 -98 l 257
 747 -98 l 257
 747 101 l 257
 387 101 l 257
157 2124 m 257
 157 1639 l 257
 356 1639 l 257
 356 2124 l 257
 157 2124 l 257
203 1840 m 257
 203 1641 l 257
 797 1641 l 257
 797 1840 l 257
 203 1840 l 257
622 2132 m 257
 622 1641 l 257
 821 1641 l 257
 821 2132 l 257
 622 2132 l 257
EndSplineSet
EndChar

StartChar: uni090E
Encoding: 2318 2318 375
GlifName: uni090E_
Width: 1024
VWidth: 0
Flags: W
LayerCount: 2
Fore
SplineSet
0 1548 m 257
 0 1348 l 257
 1026 1348 l 257
 1026 1548 l 257
 0 1548 l 257
729 1403 m 257
 729 779 l 257
 928 779 l 257
 928 1403 l 257
 729 1403 l 257
635 979 m 257
 635 779 l 257
 928 779 l 257
 928 979 l 257
 635 979 l 257
142 1542 m 257
 142 338 l 257
 341 338 l 257
 341 1542 l 257
 142 1542 l 257
142 358 m 257
 142 159 l 257
 742 159 l 257
 742 358 l 257
 142 358 l 257
541 358 m 257
 541 -98 l 257
 742 -98 l 257
 742 358 l 257
 541 358 l 257
382 -38 m 257
 382 -238 l 257
 742 -238 l 257
 742 -38 l 257
 382 -38 l 257
270 2062 m 257
 270 1823 l 257
 470 1823 l 257
 470 2062 l 257
 270 2062 l 257
269 1868 m 257
 269 1667 l 257
 952 1667 l 257
 952 1868 l 257
 269 1868 l 257
750 1858 m 257
 750 1537 l 257
 952 1537 l 257
 952 1858 l 257
 750 1858 l 257
EndSplineSet
EndChar

StartChar: uni090F
Encoding: 2319 2319 376
GlifName: uni090F_
Width: 1024
VWidth: 0
Flags: W
LayerCount: 2
Fore
SplineSet
0 1548 m 257
 0 1348 l 257
 1026 1348 l 257
 1026 1548 l 257
 0 1548 l 257
724 1548 m 257
 724 782 l 257
 924 782 l 257
 924 1548 l 257
 724 1548 l 257
631 979 m 257
 631 779 l 257
 924 779 l 257
 924 979 l 257
 631 979 l 257
138 1542 m 257
 138 338 l 257
 338 338 l 257
 338 1542 l 257
 138 1542 l 257
138 497 m 257
 138 297 l 257
 738 297 l 257
 738 497 l 257
 138 497 l 257
545 473 m 257
 545 -98 l 257
 745 -98 l 257
 745 473 l 257
 545 473 l 257
383 102 m 257
 383 -98 l 257
 743 -98 l 257
 743 102 l 257
 383 102 l 257
EndSplineSet
EndChar

StartChar: uni0910
Encoding: 2320 2320 377
GlifName: uni0910
Width: 1024
VWidth: 0
Flags: W
LayerCount: 2
Fore
SplineSet
0 1548 m 257
 0 1348 l 257
 1026 1348 l 257
 1026 1548 l 257
 0 1548 l 257
724 1548 m 257
 724 779 l 257
 924 779 l 257
 924 1548 l 257
 724 1548 l 257
631 979 m 257
 631 779 l 257
 924 779 l 257
 924 979 l 257
 631 979 l 257
138 1542 m 257
 138 338 l 257
 338 338 l 257
 338 1542 l 257
 138 1542 l 257
138 497 m 257
 138 297 l 257
 738 297 l 257
 738 497 l 257
 138 497 l 257
538 473 m 257
 538 -98 l 257
 738 -98 l 257
 738 473 l 257
 538 473 l 257
383 102 m 257
 383 -98 l 257
 743 -98 l 257
 743 102 l 257
 383 102 l 257
442 1883 m 257
 758 1433 l 257
 922 1548 l 257
 606 1998 l 257
 442 1883 l 257
EndSplineSet
EndChar

StartChar: uni0911
Encoding: 2321 2321 378
GlifName: uni0911
Width: 1024
VWidth: 0
Flags: W
LayerCount: 2
Fore
SplineSet
528 1548 m 257
 528 1348 l 257
 1025 1348 l 257
 1025 1548 l 257
 528 1548 l 257
544 1419 m 257
 544 0 l 257
 743 0 l 257
 743 1419 l 257
 544 1419 l 257
25 1548 m 257
 25 1348 l 257
 385 1348 l 257
 385 1548 l 257
 25 1548 l 257
211 1548 m 257
 211 140 l 257
 411 140 l 257
 411 1548 l 257
 211 1548 l 257
109 894 m 257
 109 693 l 257
 643 693 l 257
 643 894 l 257
 109 894 l 257
0 201 m 257
 0 0 l 257
 411 0 l 257
 411 201 l 257
 0 201 l 257
811 1420 m 257
 811 0 l 257
 1010 0 l 257
 1010 1420 l 257
 811 1420 l 257
532 2085 m 257
 532 1639 l 257
 732 1639 l 257
 732 2085 l 257
 532 2085 l 257
532 1839 m 257
 532 1638 l 257
 1023 1638 l 257
 1023 1839 l 257
 532 1839 l 257
823 2083 m 257
 823 1641 l 257
 1023 1641 l 257
 1023 2083 l 257
 823 2083 l 257
EndSplineSet
EndChar

StartChar: uni0912
Encoding: 2322 2322 379
GlifName: uni0912
Width: 1024
VWidth: 0
Flags: W
LayerCount: 2
Fore
SplineSet
528 1548 m 257
 528 1348 l 257
 1025 1348 l 257
 1025 1548 l 257
 528 1548 l 257
549 1419 m 257
 549 0 l 257
 748 0 l 257
 748 1419 l 257
 549 1419 l 257
25 1548 m 257
 25 1348 l 257
 385 1348 l 257
 385 1548 l 257
 25 1548 l 257
211 1548 m 257
 211 140 l 257
 411 140 l 257
 411 1548 l 257
 211 1548 l 257
109 894 m 257
 109 693 l 257
 643 693 l 257
 643 894 l 257
 109 894 l 257
0 201 m 257
 0 0 l 257
 411 0 l 257
 411 201 l 257
 0 201 l 257
811 1420 m 257
 811 0 l 257
 1010 0 l 257
 1010 1420 l 257
 811 1420 l 257
266 2155 m 257
 266 1836 l 257
 464 1836 l 257
 464 2155 l 257
 266 2155 l 257
265 1967 m 257
 265 1768 l 257
 948 1768 l 257
 948 1967 l 257
 265 1967 l 257
749 1956 m 257
 749 1516 l 257
 950 1516 l 257
 950 1956 l 257
 749 1956 l 257
EndSplineSet
EndChar

StartChar: uni0913
Encoding: 2323 2323 380
GlifName: uni0913
Width: 1024
VWidth: 0
Flags: W
LayerCount: 2
Fore
SplineSet
528 1548 m 257
 528 1348 l 257
 1025 1348 l 257
 1025 1548 l 257
 528 1548 l 257
544 1419 m 257
 544 0 l 257
 743 0 l 257
 743 1419 l 257
 544 1419 l 257
25 1548 m 257
 25 1348 l 257
 385 1348 l 257
 385 1548 l 257
 25 1548 l 257
211 1548 m 257
 211 140 l 257
 411 140 l 257
 411 1548 l 257
 211 1548 l 257
109 894 m 257
 109 693 l 257
 643 693 l 257
 643 894 l 257
 109 894 l 257
5 201 m 257
 5 0 l 257
 411 0 l 257
 411 201 l 257
 5 201 l 257
811 1423 m 257
 811 0 l 257
 1010 0 l 257
 1010 1423 l 257
 811 1423 l 257
639 1768 m 257
 800 1458 l 257
 978 1548 l 257
 816 1861 l 257
 639 1768 l 257
EndSplineSet
EndChar

StartChar: uni0914
Encoding: 2324 2324 381
GlifName: uni0914
Width: 1024
VWidth: 0
Flags: W
LayerCount: 2
Fore
SplineSet
528 1548 m 257
 528 1348 l 257
 1025 1348 l 257
 1025 1548 l 257
 528 1548 l 257
544 1419 m 257
 544 0 l 257
 743 0 l 257
 743 1419 l 257
 544 1419 l 257
25 1548 m 257
 25 1348 l 257
 385 1348 l 257
 385 1548 l 257
 25 1548 l 257
211 1548 m 257
 211 140 l 257
 411 140 l 257
 411 1548 l 257
 211 1548 l 257
109 894 m 257
 109 693 l 257
 643 693 l 257
 643 894 l 257
 109 894 l 257
12 201 m 257
 12 0 l 257
 411 0 l 257
 411 201 l 257
 12 201 l 257
811 1420 m 257
 811 0 l 257
 1010 0 l 257
 1010 1420 l 257
 811 1420 l 257
339 1750 m 257
 619 1548 l 257
 911 1548 l 257
 475 1903 l 257
 339 1750 l 257
728 1949 m 257
 791 1522 l 257
 1003 1548 l 257
 925 1988 l 257
 728 1949 l 257
EndSplineSet
EndChar

StartChar: uni0915
Encoding: 2325 2325 382
GlifName: uni0915
Width: 1024
VWidth: 0
Flags: W
LayerCount: 2
Fore
SplineSet
0 1548 m 257
 0 1348 l 257
 1025 1348 l 257
 1025 1548 l 257
 0 1548 l 257
522 1516 m 257
 522 10 l 257
 722 10 l 257
 722 1516 l 257
 522 1516 l 257
132 1029 m 257
 132 828 l 257
 495 828 l 257
 495 1029 l 257
 132 1029 l 257
132 989 m 257
 132 443 l 257
 330 443 l 257
 330 989 l 257
 132 989 l 257
150 647 m 257
 150 443 l 257
 576 443 l 257
 576 647 l 257
 150 647 l 257
628 874 m 257
 628 675 l 257
 934 675 l 257
 934 874 l 257
 628 874 l 257
785 874 m 257
 785 582 l 257
 984 582 l 257
 984 874 l 257
 785 874 l 257
EndSplineSet
EndChar

StartChar: uni0915_uni0930_uni094D.vatu
Encoding: 65537 -1 383
GlifName: uni0915_uni0930_uni094D_.vatu
Width: 1024
VWidth: 0
Flags: W
LayerCount: 2
Fore
SplineSet
0 1548 m 257
 0 1347 l 257
 1016 1347 l 257
 1016 1548 l 257
 0 1548 l 257
522 1516 m 257
 522 10 l 257
 722 10 l 257
 722 1516 l 257
 522 1516 l 257
132 1029 m 257
 132 828 l 257
 614 828 l 257
 614 1029 l 257
 132 1029 l 257
135 989 m 257
 135 443 l 257
 333 443 l 257
 333 989 l 257
 135 989 l 257
150 643 m 257
 150 439 l 257
 576 439 l 257
 576 643 l 257
 150 643 l 257
628 874 m 257
 628 675 l 257
 934 675 l 257
 934 874 l 257
 628 874 l 257
785 879 m 257
 785 587 l 257
 984 587 l 257
 984 879 l 257
 785 879 l 257
75 0 m 257
 332 0 l 257
 672 215 l 257
 672 416 l 257
 75 0 l 257
EndSplineSet
EndChar

StartChar: uni0915_uni094D.half
Encoding: 65538 -1 384
GlifName: uni0915_uni094D_.half
Width: 1024
VWidth: 0
Flags: W
LayerCount: 2
Fore
SplineSet
0 1548 m 257
 0 1347 l 257
 1016 1347 l 257
 1016 1548 l 257
 0 1548 l 257
522 1516 m 257
 522 10 l 257
 722 10 l 257
 722 1516 l 257
 522 1516 l 257
132 1029 m 257
 132 828 l 257
 614 828 l 257
 614 1029 l 257
 132 1029 l 257
135 989 m 257
 135 443 l 257
 333 443 l 257
 333 989 l 257
 135 989 l 257
150 643 m 257
 150 439 l 257
 576 439 l 257
 576 643 l 257
 150 643 l 257
628 874 m 257
 628 675 l 257
 1013 675 l 257
 1013 874 l 257
 628 874 l 257
EndSplineSet
EndChar

StartChar: uni0915_uni094D_uni0937.akhn
Encoding: 65540 -1 386
GlifName: uni0915_uni094D__uni0937.akhn
Width: 1024
VWidth: 0
Flags: W
LayerCount: 2
Fore
SplineSet
665 1548 m 257
 665 1351 l 257
 1024 1351 l 257
 1024 1548 l 257
 665 1548 l 257
722 1511 m 257
 722 0 l 257
 921 0 l 257
 921 1511 l 257
 722 1511 l 257
48 1078 m 257
 48 878 l 257
 921 878 l 257
 921 1078 l 257
 48 1078 l 257
47 1023 m 257
 248 1023 l 257
 248 1422 l 257
 47 1422 l 257
 47 1023 l 257
48 1435 m 257
 48 1235 l 257
 567 1235 l 257
 567 1435 l 257
 48 1435 l 257
368 1422 m 257
 368 882 l 257
 566 882 l 257
 566 1422 l 257
 368 1422 l 257
158 635 m 257
 355 635 l 257
 565 880 l 257
 367 880 l 257
 158 635 l 257
158 635 m 257
 158 200 l 257
 357 200 l 257
 357 635 l 257
 158 635 l 257
158 367 m 257
 158 166 l 257
 882 166 l 257
 882 367 l 257
 158 367 l 257
EndSplineSet
EndChar

StartChar: uni0915_uni094D_uni0937.half
Encoding: 65541 -1 387
GlifName: uni0915_uni094D__uni0937.half
Width: 1024
VWidth: 0
Flags: W
LayerCount: 2
Fore
SplineSet
655 1548 m 257
 655 1351 l 257
 1014 1351 l 257
 1014 1548 l 257
 655 1548 l 257
38 1078 m 257
 38 878 l 257
 1111 878 l 257
 1111 1078 l 257
 38 1078 l 257
37 1023 m 257
 238 1023 l 257
 238 1422 l 257
 37 1422 l 257
 37 1023 l 257
38 1435 m 257
 38 1235 l 257
 557 1235 l 257
 557 1435 l 257
 38 1435 l 257
358 1422 m 257
 358 882 l 257
 556 882 l 257
 556 1422 l 257
 358 1422 l 257
148 635 m 257
 345 635 l 257
 555 880 l 257
 357 880 l 257
 148 635 l 257
148 635 m 257
 148 200 l 257
 347 200 l 257
 347 635 l 257
 148 635 l 257
148 367 m 257
 148 166 l 257
 1072 166 l 257
 1072 367 l 257
 148 367 l 257
EndSplineSet
EndChar

StartChar: uni0916
Encoding: 2326 2326 389
GlifName: uni0916
Width: 1024
VWidth: 0
Flags: W
LayerCount: 2
Fore
SplineSet
-7 1548 m 257
 -7 1349 l 257
 1023 1349 l 257
 1023 1548 l 257
 -7 1548 l 257
690 1514 m 257
 690 0 l 257
 890 0 l 257
 890 1514 l 257
 690 1514 l 257
429 979 m 257
 429 779 l 257
 657 779 l 257
 657 979 l 257
 429 979 l 257
399 979 m 257
 399 457 l 257
 599 457 l 257
 599 979 l 257
 399 979 l 257
399 568 m 257
 399 368 l 257
 742 368 l 257
 742 568 l 257
 399 568 l 257
114 1441 m 257
 114 120 l 257
 314 120 l 257
 314 1441 l 257
 114 1441 l 257
9 734 m 257
 9 534 l 257
 313 534 l 257
 313 734 l 257
 9 734 l 257
113 270 m 257
 113 70 l 257
 827 70 l 257
 827 270 l 257
 113 270 l 257
EndSplineSet
EndChar

StartChar: uni0916_uni0930_uni094D.vatu
Encoding: 65543 -1 390
GlifName: uni0916_uni0930_uni094D_.vatu
Width: 1024
VWidth: 0
Flags: W
LayerCount: 2
Fore
SplineSet
75 0 m 257
 332 0 l 257
 672 215 l 257
 672 416 l 257
 75 0 l 257
-7 1548 m 257
 -7 1349 l 257
 1023 1349 l 257
 1023 1548 l 257
 -7 1548 l 257
690 1514 m 257
 690 0 l 257
 890 0 l 257
 890 1514 l 257
 690 1514 l 257
429 1145 m 257
 429 945 l 257
 657 945 l 257
 657 1145 l 257
 429 1145 l 257
399 1145 m 257
 399 623 l 257
 599 623 l 257
 599 1145 l 257
 399 1145 l 257
399 734 m 257
 399 534 l 257
 742 534 l 257
 742 734 l 257
 399 734 l 257
114 1441 m 257
 114 286 l 257
 314 286 l 257
 314 1441 l 257
 114 1441 l 257
9 900 m 257
 9 700 l 257
 313 700 l 257
 313 900 l 257
 9 900 l 257
113 436 m 257
 113 236 l 257
 827 236 l 257
 827 436 l 257
 113 436 l 257
EndSplineSet
EndChar

StartChar: uni0916_uni094D.half
Encoding: 65544 -1 391
GlifName: uni0916_uni094D_.half
Width: 1024
VWidth: 0
Flags: W
LayerCount: 2
Fore
SplineSet
-7 1548 m 257
 -7 1349 l 257
 1023 1349 l 257
 1023 1548 l 257
 -7 1548 l 257
623 979 m 257
 623 779 l 257
 851 779 l 257
 851 979 l 257
 623 979 l 257
593 979 m 257
 593 457 l 257
 793 457 l 257
 793 979 l 257
 593 979 l 257
593 568 m 257
 593 368 l 257
 1015 368 l 257
 1015 568 l 257
 593 568 l 257
308 1441 m 257
 308 120 l 257
 508 120 l 257
 508 1441 l 257
 308 1441 l 257
203 734 m 257
 203 534 l 257
 507 534 l 257
 507 734 l 257
 203 734 l 257
307 270 m 257
 307 70 l 257
 1021 70 l 257
 1021 270 l 257
 307 270 l 257
EndSplineSet
EndChar

StartChar: uni0917
Encoding: 2327 2327 393
GlifName: uni0917
Width: 1024
VWidth: 0
Flags: W
LayerCount: 2
Fore
SplineSet
102 853 m 257
 301 853 l 257
 301 1044 l 257
 102 1044 l 257
 102 853 l 257
102 882 m 257
 102 683 l 257
 578 683 l 257
 578 882 l 257
 102 882 l 257
379 1548 m 257
 379 812 l 257
 578 812 l 257
 578 1548 l 257
 379 1548 l 257
1025 1548 m 257
 261 1548 l 257
 261 1348 l 257
 1025 1348 l 257
 1025 1548 l 257
732 1523 m 257
 732 0 l 257
 931 0 l 257
 931 1523 l 257
 732 1523 l 257
EndSplineSet
EndChar

StartChar: uni0917_uni0930_uni094D.vatu
Encoding: 65546 -1 394
GlifName: uni0917_uni0930_uni094D_.vatu
Width: 1024
VWidth: 0
Flags: W
LayerCount: 2
Fore
SplineSet
153 0 m 257
 410 0 l 257
 750 215 l 257
 750 416 l 257
 153 0 l 257
102 853 m 257
 301 853 l 257
 301 1044 l 257
 102 1044 l 257
 102 853 l 257
102 882 m 257
 102 683 l 257
 578 683 l 257
 578 882 l 257
 102 882 l 257
379 1548 m 257
 379 812 l 257
 578 812 l 257
 578 1548 l 257
 379 1548 l 257
1012 1548 m 257
 261 1548 l 257
 261 1348 l 257
 1012 1348 l 257
 1012 1548 l 257
732 1523 m 257
 732 0 l 257
 931 0 l 257
 931 1523 l 257
 732 1523 l 257
EndSplineSet
EndChar

StartChar: uni0917_uni094D.half
Encoding: 65547 -1 395
GlifName: uni0917_uni094D_.half
Width: 1024
VWidth: 0
Flags: W
LayerCount: 2
Fore
SplineSet
102 853 m 257
 301 853 l 257
 301 1044 l 257
 102 1044 l 257
 102 853 l 257
102 882 m 257
 102 683 l 257
 578 683 l 257
 578 882 l 257
 102 882 l 257
379 1548 m 257
 379 812 l 257
 578 812 l 257
 578 1548 l 257
 379 1548 l 257
1012 1548 m 257
 261 1548 l 257
 261 1348 l 257
 1012 1348 l 257
 1012 1548 l 257
EndSplineSet
EndChar

StartChar: uni0918
Encoding: 2328 2328 397
GlifName: uni0918
Width: 1024
VWidth: 0
Flags: W
LayerCount: 2
Fore
SplineSet
0 1548 m 257
 0 1348 l 257
 1026 1348 l 257
 1026 1548 l 257
 0 1548 l 257
701 1522 m 257
 701 13 l 257
 901 13 l 257
 901 1522 l 257
 701 1522 l 257
173 1515 m 257
 173 883 l 257
 372 883 l 257
 372 1515 l 257
 173 1515 l 257
267 917 m 257
 267 717 l 257
 511 717 l 257
 511 917 l 257
 267 917 l 257
179 469 m 257
 179 269 l 257
 877 269 l 257
 877 469 l 257
 179 469 l 257
173 269 m 257
 372 269 l 257
 372 764 l 257
 173 764 l 257
 173 269 l 257
EndSplineSet
EndChar

StartChar: uni0918_uni0930_uni094D.vatu
Encoding: 65549 -1 398
GlifName: uni0918_uni0930_uni094D_.vatu
Width: 1024
VWidth: 0
Flags: W
LayerCount: 2
Fore
SplineSet
129 0 m 257
 386 0 l 257
 726 215 l 257
 726 416 l 257
 129 0 l 257
0 1554 m 257
 0 1354 l 257
 1022 1354 l 257
 1022 1554 l 257
 0 1554 l 257
701 1522 m 257
 701 13 l 257
 901 13 l 257
 901 1522 l 257
 701 1522 l 257
173 1515 m 257
 173 883 l 257
 372 883 l 257
 372 1515 l 257
 173 1515 l 257
267 917 m 257
 267 717 l 257
 511 717 l 257
 511 917 l 257
 267 917 l 257
179 469 m 257
 179 269 l 257
 877 269 l 257
 877 469 l 257
 179 469 l 257
173 269 m 257
 372 269 l 257
 372 764 l 257
 173 764 l 257
 173 269 l 257
EndSplineSet
EndChar

StartChar: uni0918_uni094D.half
Encoding: 65550 -1 399
GlifName: uni0918_uni094D_.half
Width: 1024
VWidth: 0
Flags: W
LayerCount: 2
Fore
SplineSet
0 1554 m 257
 0 1354 l 257
 1022 1354 l 257
 1022 1554 l 257
 0 1554 l 257
173 1515 m 257
 173 883 l 257
 372 883 l 257
 372 1515 l 257
 173 1515 l 257
267 917 m 257
 267 717 l 257
 511 717 l 257
 511 917 l 257
 267 917 l 257
179 469 m 257
 179 269 l 257
 1014 269 l 257
 1014 469 l 257
 179 469 l 257
173 269 m 257
 372 269 l 257
 372 764 l 257
 173 764 l 257
 173 269 l 257
EndSplineSet
EndChar

StartChar: uni0919
Encoding: 2329 2329 401
GlifName: uni0919
Width: 1024
VWidth: 0
Flags: W
LayerCount: 2
Fore
SplineSet
0 1548 m 257
 0 1350 l 257
 1025 1350 l 257
 1025 1548 l 257
 0 1548 l 257
509 1543 m 257
 509 1023 l 257
 709 1023 l 257
 709 1543 l 257
 509 1543 l 257
700 1226 m 257
 226 1226 l 257
 226 1023 l 257
 700 1023 l 257
 700 1226 l 257
225 1083 m 257
 225 629 l 257
 430 629 l 257
 430 1083 l 257
 225 1083 l 257
225 820 m 257
 225 620 l 257
 786 620 l 257
 786 820 l 257
 225 820 l 257
586 680 m 257
 586 29 l 257
 786 29 l 257
 786 680 l 257
 586 680 l 257
112 201 m 257
 112 0 l 257
 787 0 l 257
 787 201 l 257
 112 201 l 257
112 423 m 257
 112 8 l 257
 313 8 l 257
 313 423 l 257
 112 423 l 257
813 1037 m 257
 813 890 l 257
 970 890 l 257
 970 1037 l 257
 813 1037 l 257
EndSplineSet
EndChar

StartChar: uni0919_uni0930_uni094D.vatu
Encoding: 65552 -1 402
GlifName: uni0919_uni0930_uni094D_.vatu
Width: 1024
VWidth: 0
Flags: W
LayerCount: 2
Fore
SplineSet
340 112 m 257
 564 -268 l 257
 846 -268 l 257
 462 281 l 257
 340 112 l 257
462 281 m 257
 55 -277 l 257
 276 -277 l 257
 577 116 l 257
 462 281 l 257
0 1554 m 257
 0 1354 l 257
 1022 1354 l 257
 1022 1554 l 257
 0 1554 l 257
509 1543 m 257
 509 1088 l 257
 709 1088 l 257
 709 1543 l 257
 509 1543 l 257
700 1288 m 257
 226 1288 l 257
 226 1088 l 257
 700 1088 l 257
 700 1288 l 257
225 1145 m 257
 225 691 l 257
 430 691 l 257
 430 1145 l 257
 225 1145 l 257
225 882 m 257
 225 682 l 257
 786 682 l 257
 786 882 l 257
 225 882 l 257
586 742 m 257
 586 331 l 257
 786 331 l 257
 786 742 l 257
 586 742 l 257
112 503 m 257
 112 302 l 257
 787 302 l 257
 787 503 l 257
 112 503 l 257
112 639 m 257
 112 310 l 257
 313 310 l 257
 313 639 l 257
 112 639 l 257
813 1099 m 257
 813 952 l 257
 970 952 l 257
 970 1099 l 257
 813 1099 l 257
EndSplineSet
EndChar

StartChar: uni0919_uni094D.half
Encoding: 65553 -1 403
GlifName: uni0919_uni094D_.half
Width: 1024
VWidth: 0
Flags: W
LayerCount: 2
Fore
SplineSet
0 1554 m 257
 0 1354 l 257
 1022 1354 l 257
 1022 1554 l 257
 0 1554 l 257
509 1543 m 257
 509 1023 l 257
 709 1023 l 257
 709 1543 l 257
 509 1543 l 257
700 1226 m 257
 226 1226 l 257
 226 1023 l 257
 700 1023 l 257
 700 1226 l 257
225 1083 m 257
 225 629 l 257
 430 629 l 257
 430 1083 l 257
 225 1083 l 257
225 820 m 257
 225 620 l 257
 786 620 l 257
 786 820 l 257
 225 820 l 257
586 680 m 257
 586 165 l 257
 786 165 l 257
 786 680 l 257
 586 680 l 257
112 337 m 257
 112 136 l 257
 787 136 l 257
 787 337 l 257
 112 337 l 257
112 559 m 257
 112 144 l 257
 313 144 l 257
 313 559 l 257
 112 559 l 257
813 1037 m 257
 813 890 l 257
 970 890 l 257
 970 1037 l 257
 813 1037 l 257
339 55 m 257
 215 -141 l 257
 572 -141 l 257
 696 55 l 257
 339 55 l 257
549 -106 m 257
 886 -511 l 257
 1030 -348 l 257
 692 56 l 257
 549 -106 l 257
EndSplineSet
EndChar

StartChar: uni091A
Encoding: 2330 2330 405
GlifName: uni091A_
Width: 1024
VWidth: 0
Flags: W
LayerCount: 2
Fore
SplineSet
0 1548 m 257
 0 1351 l 257
 1025 1351 l 257
 1025 1548 l 257
 0 1548 l 257
636 1553 m 257
 636 0 l 257
 836 0 l 257
 836 1553 l 257
 636 1553 l 257
803 280 m 257
 803 480 l 257
 296 480 l 257
 296 280 l 257
 803 280 l 257
296 837 m 257
 296 421 l 257
 496 421 l 257
 496 837 l 257
 296 837 l 257
72 991 m 257
 72 791 l 257
 568 791 l 257
 568 991 l 257
 72 991 l 257
EndSplineSet
EndChar

StartChar: uni091A_uni0930_uni094D.vatu
Encoding: 65555 -1 406
GlifName: uni091A__uni0930_uni094D_.vatu
Width: 1024
VWidth: 0
Flags: W
LayerCount: 2
Fore
SplineSet
129 0 m 257
 386 0 l 257
 726 215 l 257
 726 416 l 257
 129 0 l 257
0 1556 m 257
 0 1356 l 257
 1022 1356 l 257
 1022 1556 l 257
 0 1556 l 257
636 1553 m 257
 636 0 l 257
 836 0 l 257
 836 1553 l 257
 636 1553 l 257
803 280 m 257
 803 480 l 257
 296 480 l 257
 296 280 l 257
 803 280 l 257
296 837 m 257
 296 421 l 257
 496 421 l 257
 496 837 l 257
 296 837 l 257
72 991 m 257
 72 791 l 257
 568 791 l 257
 568 991 l 257
 72 991 l 257
EndSplineSet
EndChar

StartChar: uni091A_uni094D.half
Encoding: 65556 -1 407
GlifName: uni091A__uni094D_.half
Width: 1024
VWidth: 0
Flags: W
LayerCount: 2
Fore
SplineSet
0 1556 m 257
 0 1356 l 257
 1022 1356 l 257
 1022 1556 l 257
 0 1556 l 257
1053 280 m 257
 1053 480 l 257
 296 480 l 257
 296 280 l 257
 1053 280 l 257
296 837 m 257
 296 421 l 257
 496 421 l 257
 496 837 l 257
 296 837 l 257
72 991 m 257
 72 791 l 257
 568 791 l 257
 568 991 l 257
 72 991 l 257
EndSplineSet
EndChar

StartChar: uni091B
Encoding: 2331 2331 409
GlifName: uni091B_
Width: 1024
VWidth: 0
Flags: W
LayerCount: 2
Fore
SplineSet
0 1548 m 257
 0 1350 l 257
 1026 1350 l 257
 1026 1548 l 257
 0 1548 l 257
433 1130 m 257
 92 1130 l 257
 92 931 l 257
 433 931 l 257
 433 1130 l 257
89 1130 m 257
 89 584 l 257
 289 584 l 257
 289 1130 l 257
 89 1130 l 257
167 639 m 257
 167 439 l 257
 417 439 l 257
 417 639 l 257
 167 639 l 257
84 493 m 257
 84 0 l 257
 284 0 l 257
 284 493 l 257
 84 493 l 257
84 199 m 257
 84 0 l 257
 719 0 l 257
 719 199 l 257
 84 199 l 257
518 6 m 257
 719 6 l 257
 719 1515 l 257
 518 1515 l 257
 518 6 l 257
659 1007 m 257
 659 808 l 257
 997 808 l 257
 997 1007 l 257
 659 1007 l 257
796 868 m 257
 796 471 l 257
 997 471 l 257
 997 868 l 257
 796 868 l 257
EndSplineSet
EndChar

StartChar: uni091B_uni0930_uni094D.vatu
Encoding: 65558 -1 410
GlifName: uni091B__uni0930_uni094D_.vatu
Width: 1024
VWidth: 0
Flags: W
LayerCount: 2
Fore
SplineSet
100 0 m 257
 357 0 l 257
 697 215 l 257
 697 416 l 257
 100 0 l 257
-6 1555 m 257
 -6 1355 l 257
 1016 1355 l 257
 1016 1555 l 257
 -6 1555 l 257
433 1206 m 257
 92 1206 l 257
 92 1007 l 257
 433 1007 l 257
 433 1206 l 257
89 1206 m 257
 89 746 l 257
 289 746 l 257
 289 1206 l 257
 89 1206 l 257
167 801 m 257
 167 601 l 257
 417 601 l 257
 417 801 l 257
 167 801 l 257
84 655 m 257
 84 234 l 257
 284 234 l 257
 284 655 l 257
 84 655 l 257
84 433 m 257
 84 234 l 257
 719 234 l 257
 719 433 l 257
 84 433 l 257
518 0 m 257
 719 0 l 257
 719 1446 l 257
 518 1446 l 257
 518 0 l 257
659 1007 m 257
 659 808 l 257
 997 808 l 257
 997 1007 l 257
 659 1007 l 257
796 868 m 257
 796 471 l 257
 997 471 l 257
 997 868 l 257
 796 868 l 257
EndSplineSet
EndChar

StartChar: uni091B_uni094D.half
Encoding: 65559 -1 411
GlifName: uni091B__uni094D_.half
Width: 1024
VWidth: 0
Flags: W
LayerCount: 2
Fore
SplineSet
-6 1555 m 257
 -6 1355 l 257
 1016 1355 l 257
 1016 1555 l 257
 -6 1555 l 257
683 1130 m 257
 342 1130 l 257
 342 931 l 257
 683 931 l 257
 683 1130 l 257
339 1130 m 257
 339 584 l 257
 539 584 l 257
 539 1130 l 257
 339 1130 l 257
417 639 m 257
 417 439 l 257
 667 439 l 257
 667 639 l 257
 417 639 l 257
334 493 m 257
 334 0 l 257
 534 0 l 257
 534 493 l 257
 334 493 l 257
334 199 m 257
 334 0 l 257
 1019 0 l 257
 1019 199 l 257
 334 199 l 257
EndSplineSet
EndChar

StartChar: uni091C
Encoding: 2332 2332 413
GlifName: uni091C_
Width: 1024
VWidth: 0
Flags: W
LayerCount: 2
Fore
SplineSet
0 1548 m 257
 0 1348 l 257
 1026 1348 l 257
 1026 1548 l 257
 0 1548 l 257
678 1548 m 257
 678 -12 l 257
 877 -12 l 257
 877 1548 l 257
 678 1548 l 257
397 860 m 257
 397 663 l 257
 811 663 l 257
 811 860 l 257
 397 860 l 257
351 860 m 257
 351 413 l 257
 551 413 l 257
 551 860 l 257
 351 860 l 257
41 567 m 257
 41 367 l 257
 551 367 l 257
 551 567 l 257
 41 567 l 257
41 727 m 257
 41 509 l 257
 241 509 l 257
 241 727 l 257
 41 727 l 257
EndSplineSet
EndChar

StartChar: uni091C_uni0930_uni094D.vatu
Encoding: 65561 -1 414
GlifName: uni091C__uni0930_uni094D_.vatu
Width: 1024
VWidth: 0
Flags: W
LayerCount: 2
Fore
SplineSet
129 0 m 257
 386 0 l 257
 726 215 l 257
 726 416 l 257
 129 0 l 257
-34 1548 m 257
 -34 1350 l 257
 1024 1350 l 257
 1024 1548 l 257
 -34 1548 l 257
678 1548 m 257
 678 -12 l 257
 877 -12 l 257
 877 1548 l 257
 678 1548 l 257
397 860 m 257
 397 663 l 257
 811 663 l 257
 811 860 l 257
 397 860 l 257
351 860 m 257
 351 413 l 257
 551 413 l 257
 551 860 l 257
 351 860 l 257
41 567 m 257
 41 367 l 257
 551 367 l 257
 551 567 l 257
 41 567 l 257
41 727 m 257
 41 509 l 257
 241 509 l 257
 241 727 l 257
 41 727 l 257
EndSplineSet
EndChar

StartChar: uni091C_uni094D.half
Encoding: 65562 -1 415
GlifName: uni091C__uni094D_.half
Width: 1024
VWidth: 0
Flags: W
LayerCount: 2
Fore
SplineSet
-34 1548 m 257
 -34 1350 l 257
 1024 1350 l 257
 1024 1548 l 257
 -34 1548 l 257
547 860 m 257
 547 663 l 257
 1061 663 l 257
 1061 860 l 257
 547 860 l 257
501 860 m 257
 501 413 l 257
 701 413 l 257
 701 860 l 257
 501 860 l 257
191 567 m 257
 191 367 l 257
 701 367 l 257
 701 567 l 257
 191 567 l 257
191 727 m 257
 191 509 l 257
 391 509 l 257
 391 727 l 257
 191 727 l 257
EndSplineSet
EndChar

StartChar: uni091C_uni094D_uni091E.akhn
Encoding: 65564 -1 417
GlifName: uni091C__uni094D__uni091E_.akhn
Width: 1024
VWidth: 0
Flags: W
LayerCount: 2
Fore
SplineSet
-34 1548 m 257
 -34 1350 l 257
 1024 1350 l 257
 1024 1548 l 257
 -34 1548 l 257
678 1548 m 257
 678 -12 l 257
 877 -12 l 257
 877 1548 l 257
 678 1548 l 257
397 860 m 257
 397 663 l 257
 811 663 l 257
 811 860 l 257
 397 860 l 257
351 860 m 257
 351 413 l 257
 551 413 l 257
 551 860 l 257
 351 860 l 257
41 567 m 257
 41 367 l 257
 551 367 l 257
 551 567 l 257
 41 567 l 257
41 368 m 257
 189 75 l 257
 447 75 l 257
 284 368 l 257
 41 368 l 257
EndSplineSet
EndChar

StartChar: uni091C_uni094D_uni091E.half
Encoding: 65565 -1 418
GlifName: uni091C__uni094D__uni091E_.half
Width: 1024
VWidth: 0
Flags: W
LayerCount: 2
Fore
SplineSet
-34 1548 m 257
 -34 1350 l 257
 1024 1350 l 257
 1024 1548 l 257
 -34 1548 l 257
593 860 m 257
 593 663 l 257
 1007 663 l 257
 1007 860 l 257
 593 860 l 257
547 860 m 257
 547 413 l 257
 747 413 l 257
 747 860 l 257
 547 860 l 257
237 567 m 257
 237 367 l 257
 747 367 l 257
 747 567 l 257
 237 567 l 257
237 368 m 257
 385 75 l 257
 643 75 l 257
 480 368 l 257
 237 368 l 257
EndSplineSet
EndChar

StartChar: uni091D
Encoding: 2333 2333 420
GlifName: uni091D_
Width: 1024
VWidth: 0
Flags: W
LayerCount: 2
Fore
SplineSet
0 1548 m 257
 0 1349 l 257
 1026 1349 l 257
 1026 1548 l 257
 0 1548 l 257
679 1548 m 257
 679 0 l 257
 880 0 l 257
 880 1548 l 257
 679 1548 l 257
447 1537 m 257
 447 1023 l 257
 646 1023 l 257
 646 1537 l 257
 447 1537 l 257
125 1223 m 257
 125 1023 l 257
 646 1023 l 257
 646 1223 l 257
 125 1223 l 257
125 1085 m 257
 125 651 l 257
 325 651 l 257
 325 1085 l 257
 125 1085 l 257
125 837 m 257
 125 638 l 257
 874 638 l 257
 874 837 l 257
 125 837 l 257
418 691 m 257
 418 7 l 257
 618 7 l 257
 618 691 l 257
 418 691 l 257
125 200 m 257
 125 0 l 257
 618 0 l 257
 618 200 l 257
 125 200 l 257
125 63 m 257
 125 -148 l 257
 325 -148 l 257
 325 63 l 257
 125 63 l 257
EndSplineSet
EndChar

StartChar: uni091D_uni0930_uni094D.vatu
Encoding: 65567 -1 421
GlifName: uni091D__uni0930_uni094D_.vatu
Width: 1024
VWidth: 0
Flags: W
LayerCount: 2
Fore
SplineSet
391 0 m 257
 557 0 l 257
 790 215 l 257
 790 490 l 257
 391 0 l 257
-18 1548 m 257
 -18 1349 l 257
 1023 1349 l 257
 1023 1548 l 257
 -18 1548 l 257
740 1537 m 257
 740 -5 l 257
 941 -5 l 257
 941 1537 l 257
 740 1537 l 257
447 1537 m 257
 447 1023 l 257
 646 1023 l 257
 646 1537 l 257
 447 1537 l 257
125 1223 m 257
 125 1023 l 257
 646 1023 l 257
 646 1223 l 257
 125 1223 l 257
42 1218 m 257
 42 651 l 257
 242 651 l 257
 242 1218 l 257
 42 1218 l 257
125 849 m 257
 125 650 l 257
 874 650 l 257
 874 849 l 257
 125 849 l 257
221 691 m 257
 221 147 l 257
 421 147 l 257
 421 691 l 257
 221 691 l 257
18 350 m 257
 18 147 l 257
 400 147 l 257
 400 350 l 257
 18 350 l 257
18 210 m 257
 18 0 l 257
 218 0 l 257
 218 210 l 257
 18 210 l 257
EndSplineSet
EndChar

StartChar: uni091D_uni094D.half
Encoding: 65568 -1 422
GlifName: uni091D__uni094D_.half
Width: 1024
VWidth: 0
Flags: W
LayerCount: 2
Fore
SplineSet
-18 1548 m 257
 -18 1349 l 257
 1023 1349 l 257
 1023 1548 l 257
 -18 1548 l 257
447 1537 m 257
 447 1023 l 257
 646 1023 l 257
 646 1537 l 257
 447 1537 l 257
125 1223 m 257
 125 1023 l 257
 646 1023 l 257
 646 1223 l 257
 125 1223 l 257
125 1085 m 257
 125 651 l 257
 325 651 l 257
 325 1085 l 257
 125 1085 l 257
125 837 m 257
 125 638 l 257
 1074 638 l 257
 1074 837 l 257
 125 837 l 257
418 691 m 257
 418 7 l 257
 618 7 l 257
 618 691 l 257
 418 691 l 257
125 203 m 257
 125 0 l 257
 618 0 l 257
 618 203 l 257
 125 203 l 257
125 63 m 257
 125 -148 l 257
 325 -148 l 257
 325 63 l 257
 125 63 l 257
EndSplineSet
EndChar

StartChar: uni091E
Encoding: 2334 2334 424
GlifName: uni091E_
Width: 1024
VWidth: 0
Flags: W
LayerCount: 2
Fore
SplineSet
0 1548 m 257
 0 1348 l 257
 1026 1348 l 257
 1026 1548 l 257
 0 1548 l 257
735 1537 m 257
 735 -8 l 257
 935 -8 l 257
 935 1537 l 257
 735 1537 l 257
465 737 m 257
 465 537 l 257
 832 537 l 257
 832 737 l 257
 465 737 l 257
84 960 m 257
 84 760 l 257
 442 760 l 257
 442 960 l 257
 84 960 l 257
411 960 m 257
 411 316 l 257
 611 316 l 257
 611 960 l 257
 411 960 l 257
61 460 m 257
 61 260 l 257
 611 260 l 257
 611 460 l 257
 61 460 l 257
EndSplineSet
EndChar

StartChar: uni091E_uni0930_uni094D.vatu
Encoding: 65570 -1 425
GlifName: uni091E__uni0930_uni094D_.vatu
Width: 1024
VWidth: 0
Flags: W
LayerCount: 2
Fore
SplineSet
168 0 m 257
 425 0 l 257
 765 182 l 257
 765 383 l 257
 168 0 l 257
-5 1548 m 257
 -5 1348 l 257
 1029 1348 l 257
 1029 1548 l 257
 -5 1548 l 257
735 1537 m 257
 735 -8 l 257
 935 -8 l 257
 935 1537 l 257
 735 1537 l 257
465 737 m 257
 465 537 l 257
 832 537 l 257
 832 737 l 257
 465 737 l 257
84 960 m 257
 84 760 l 257
 442 760 l 257
 442 960 l 257
 84 960 l 257
411 960 m 257
 411 316 l 257
 611 316 l 257
 611 960 l 257
 411 960 l 257
61 510 m 257
 61 310 l 257
 611 310 l 257
 611 510 l 257
 61 510 l 257
EndSplineSet
EndChar

StartChar: uni091E_uni094D.half
Encoding: 65571 -1 426
GlifName: uni091E__uni094D_.half
Width: 1024
VWidth: 0
Flags: W
LayerCount: 2
Fore
SplineSet
-5 1548 m 257
 -5 1348 l 257
 1029 1348 l 257
 1029 1548 l 257
 -5 1548 l 257
665 737 m 257
 665 537 l 257
 1032 537 l 257
 1032 737 l 257
 665 737 l 257
284 960 m 257
 284 760 l 257
 642 760 l 257
 642 960 l 257
 284 960 l 257
611 960 m 257
 611 316 l 257
 811 316 l 257
 811 960 l 257
 611 960 l 257
261 460 m 257
 261 260 l 257
 811 260 l 257
 811 460 l 257
 261 460 l 257
EndSplineSet
EndChar

StartChar: uni091F
Encoding: 2335 2335 428
GlifName: uni091F_
Width: 1024
VWidth: 0
Flags: W
LayerCount: 2
Fore
SplineSet
10 1548 m 257
 10 1349 l 257
 1024 1349 l 257
 1024 1548 l 257
 10 1548 l 257
569 1528 m 257
 569 988 l 257
 769 988 l 257
 769 1528 l 257
 569 1528 l 257
769 1023 m 257
 120 1023 l 257
 120 822 l 257
 769 822 l 257
 769 1023 l 257
99 1023 m 257
 99 5 l 257
 299 5 l 257
 299 1023 l 257
 99 1023 l 257
99 201 m 257
 99 0 l 257
 812 0 l 257
 812 201 l 257
 99 201 l 257
EndSplineSet
EndChar

StartChar: uni091F_uni0930_uni094D.vatu
Encoding: 65573 -1 429
GlifName: uni091F__uni0930_uni094D_.vatu
Width: 1024
VWidth: 0
Flags: W
LayerCount: 2
Fore
SplineSet
411 213 m 257
 635 -167 l 257
 917 -167 l 257
 533 382 l 257
 411 213 l 257
533 382 m 257
 126 -176 l 257
 347 -176 l 257
 648 217 l 257
 533 382 l 257
0 1548 m 257
 0 1348 l 257
 1026 1348 l 257
 1026 1548 l 257
 0 1548 l 257
559 1528 m 257
 559 1064 l 257
 759 1064 l 257
 759 1528 l 257
 559 1528 l 257
759 1099 m 257
 110 1099 l 257
 110 898 l 257
 759 898 l 257
 759 1099 l 257
89 1100 m 257
 89 405 l 257
 289 405 l 257
 289 1100 l 257
 89 1100 l 257
89 601 m 257
 89 400 l 257
 802 400 l 257
 802 601 l 257
 89 601 l 257
EndSplineSet
EndChar

StartChar: uni0920
Encoding: 2336 2336 431
GlifName: uni0920
Width: 1024
VWidth: 0
Flags: W
LayerCount: 2
Fore
SplineSet
0 1548 m 257
 0 1349 l 257
 1025 1349 l 257
 1025 1548 l 257
 0 1548 l 257
411 1484 m 257
 411 1023 l 257
 611 1023 l 257
 611 1484 l 257
 411 1484 l 257
85 1035 m 257
 85 834 l 257
 963 834 l 257
 963 1035 l 257
 85 1035 l 257
72 1035 m 257
 72 13 l 257
 272 13 l 257
 272 1035 l 257
 72 1035 l 257
763 1035 m 257
 763 0 l 257
 963 0 l 257
 963 1035 l 257
 763 1035 l 257
73 198 m 257
 73 0 l 257
 943 0 l 257
 943 198 l 257
 73 198 l 257
EndSplineSet
EndChar

StartChar: uni0920_uni0930_uni094D.vatu
Encoding: 65575 -1 432
GlifName: uni0920_uni0930_uni094D_.vatu
Width: 1024
VWidth: 0
Flags: W
LayerCount: 2
Fore
SplineSet
435 216 m 257
 659 -164 l 257
 941 -164 l 257
 557 385 l 257
 435 216 l 257
557 385 m 257
 150 -173 l 257
 371 -173 l 257
 672 220 l 257
 557 385 l 257
0 1548 m 257
 0 1350 l 257
 1026 1350 l 257
 1026 1548 l 257
 0 1548 l 257
457 1484 m 257
 457 1023 l 257
 657 1023 l 257
 657 1484 l 257
 457 1484 l 257
85 1035 m 257
 85 834 l 257
 963 834 l 257
 963 1035 l 257
 85 1035 l 257
72 1035 m 257
 72 413 l 257
 272 413 l 257
 272 1035 l 257
 72 1035 l 257
763 1035 m 257
 763 398 l 257
 963 398 l 257
 963 1035 l 257
 763 1035 l 257
73 598 m 257
 73 397 l 257
 943 397 l 257
 943 598 l 257
 73 598 l 257
EndSplineSet
EndChar

StartChar: uni0921
Encoding: 2337 2337 434
GlifName: uni0921
Width: 1024
VWidth: 0
Flags: W
LayerCount: 2
Fore
SplineSet
0 1548 m 257
 0 1348 l 257
 1026 1348 l 257
 1026 1548 l 257
 0 1548 l 257
384 1049 m 257
 384 638 l 257
 583 638 l 257
 583 1049 l 257
 384 1049 l 257
384 746 m 257
 384 538 l 257
 927 538 l 257
 927 746 l 257
 384 746 l 257
728 703 m 257
 728 5 l 257
 927 5 l 257
 927 703 l 257
 728 703 l 257
62 200 m 257
 62 0 l 257
 927 0 l 257
 927 200 l 257
 62 200 l 257
62 331 m 257
 62 5 l 257
 262 5 l 257
 262 331 l 257
 62 331 l 257
384 1134 m 257
 384 926 l 257
 927 926 l 257
 927 1134 l 257
 384 1134 l 257
728 1391 m 257
 728 980 l 257
 927 980 l 257
 927 1391 l 257
 728 1391 l 257
EndSplineSet
EndChar

StartChar: uni0921_uni0930_uni094D.vatu
Encoding: 65577 -1 435
GlifName: uni0921_uni0930_uni094D_.vatu
Width: 1024
VWidth: 0
Flags: W
LayerCount: 2
Fore
SplineSet
426 134 m 257
 650 -137 l 257
 932 -137 l 257
 548 255 l 257
 426 134 l 257
548 255 m 257
 141 -143 l 257
 362 -143 l 257
 663 137 l 257
 548 255 l 257
0 1548 m 257
 0 1348 l 257
 1026 1348 l 257
 1026 1548 l 257
 0 1548 l 257
384 1129 m 257
 384 756 l 257
 583 756 l 257
 583 1129 l 257
 384 1129 l 257
384 864 m 257
 384 656 l 257
 927 656 l 257
 927 864 l 257
 384 864 l 257
728 821 m 257
 728 254 l 257
 927 254 l 257
 927 821 l 257
 728 821 l 257
62 449 m 257
 62 249 l 257
 927 249 l 257
 927 449 l 257
 62 449 l 257
62 580 m 257
 62 254 l 257
 262 254 l 257
 262 580 l 257
 62 580 l 257
384 1214 m 257
 384 1006 l 257
 927 1006 l 257
 927 1214 l 257
 384 1214 l 257
728 1391 m 257
 728 1060 l 257
 927 1060 l 257
 927 1391 l 257
 728 1391 l 257
EndSplineSet
EndChar

StartChar: uni0922
Encoding: 2338 2338 437
GlifName: uni0922
Width: 1024
VWidth: 0
Flags: W
LayerCount: 2
Fore
SplineSet
0 1548 m 257
 0 1348 l 257
 1025 1348 l 257
 1025 1548 l 257
 0 1548 l 257
569 1528 m 257
 569 988 l 257
 769 988 l 257
 769 1528 l 257
 569 1528 l 257
769 1023 m 257
 120 1023 l 257
 120 822 l 257
 769 822 l 257
 769 1023 l 257
99 1023 m 257
 99 5 l 257
 299 5 l 257
 299 1023 l 257
 99 1023 l 257
99 201 m 257
 99 0 l 257
 812 0 l 257
 812 201 l 257
 99 201 l 257
613 544 m 257
 613 0 l 257
 814 0 l 257
 814 544 l 257
 613 544 l 257
560 547 m 257
 560 347 l 257
 812 347 l 257
 812 547 l 257
 560 547 l 257
EndSplineSet
EndChar

StartChar: uni0922_uni0930_uni094D.vatu
Encoding: 65579 -1 438
GlifName: uni0922_uni0930_uni094D_.vatu
Width: 1024
VWidth: 0
Flags: W
LayerCount: 2
Fore
SplineSet
426 230 m 257
 650 -150 l 257
 932 -150 l 257
 548 399 l 257
 426 230 l 257
548 399 m 257
 141 -159 l 257
 362 -159 l 257
 663 234 l 257
 548 399 l 257
10 1548 m 257
 10 1348 l 257
 1024 1348 l 257
 1024 1548 l 257
 10 1548 l 257
569 1528 m 257
 569 988 l 257
 769 988 l 257
 769 1528 l 257
 569 1528 l 257
769 1169 m 257
 120 1169 l 257
 120 968 l 257
 769 968 l 257
 769 1169 l 257
99 1168 m 257
 99 405 l 257
 299 405 l 257
 299 1168 l 257
 99 1168 l 257
99 601 m 257
 99 400 l 257
 812 400 l 257
 812 601 l 257
 99 601 l 257
613 844 m 257
 613 398 l 257
 814 398 l 257
 814 844 l 257
 613 844 l 257
560 847 m 257
 560 647 l 257
 812 647 l 257
 812 847 l 257
 560 847 l 257
EndSplineSet
EndChar

StartChar: uni0923
Encoding: 2339 2339 440
GlifName: uni0923
Width: 1024
VWidth: 0
Flags: W
LayerCount: 2
Fore
SplineSet
0 1548 m 257
 0 1348 l 257
 1025 1348 l 257
 1025 1548 l 257
 0 1548 l 257
721 1530 m 257
 721 0 l 257
 921 0 l 257
 921 1530 l 257
 721 1530 l 257
109 1543 m 257
 109 855 l 257
 309 855 l 257
 309 1543 l 257
 109 1543 l 257
465 1528 m 257
 465 844 l 257
 665 844 l 257
 665 1528 l 257
 465 1528 l 257
109 1023 m 257
 109 825 l 257
 665 825 l 257
 665 1023 l 257
 109 1023 l 257
EndSplineSet
EndChar

StartChar: uni0923_uni0930_uni094D.vatu
Encoding: 65581 -1 441
GlifName: uni0923_uni0930_uni094D_.vatu
Width: 1024
VWidth: 0
Flags: W
LayerCount: 2
Fore
SplineSet
129 0 m 257
 386 0 l 257
 726 215 l 257
 726 416 l 257
 129 0 l 257
0 1548 m 257
 0 1350 l 257
 1029 1350 l 257
 1029 1548 l 257
 0 1548 l 257
721 1530 m 257
 721 0 l 257
 921 0 l 257
 921 1530 l 257
 721 1530 l 257
109 1543 m 257
 109 855 l 257
 309 855 l 257
 309 1543 l 257
 109 1543 l 257
465 1528 m 257
 465 844 l 257
 665 844 l 257
 665 1528 l 257
 465 1528 l 257
109 1023 m 257
 109 825 l 257
 665 825 l 257
 665 1023 l 257
 109 1023 l 257
EndSplineSet
EndChar

StartChar: uni0923_uni094D.half
Encoding: 65582 -1 442
GlifName: uni0923_uni094D_.half
Width: 1024
VWidth: 0
Flags: W
LayerCount: 2
Fore
SplineSet
0 1548 m 257
 0 1350 l 257
 1029 1350 l 257
 1029 1548 l 257
 0 1548 l 257
309 1543 m 257
 309 855 l 257
 509 855 l 257
 509 1543 l 257
 309 1543 l 257
665 1528 m 257
 665 844 l 257
 865 844 l 257
 865 1528 l 257
 665 1528 l 257
309 1023 m 257
 309 825 l 257
 865 825 l 257
 865 1023 l 257
 309 1023 l 257
EndSplineSet
EndChar

StartChar: uni0924
Encoding: 2340 2340 444
GlifName: uni0924
Width: 1024
VWidth: 0
Flags: W
LayerCount: 2
Fore
SplineSet
0 1548 m 257
 0 1348 l 257
 1025 1348 l 257
 1025 1548 l 257
 0 1548 l 257
630 1511 m 257
 630 0 l 257
 829 0 l 257
 829 1511 l 257
 630 1511 l 257
784 788 m 257
 105 788 l 257
 105 588 l 257
 784 588 l 257
 784 788 l 257
105 588 m 257
 227 0 l 257
 427 0 l 257
 305 588 l 257
 105 588 l 257
EndSplineSet
EndChar

StartChar: uni0924_uni0930_uni094D.vatu
Encoding: 65584 -1 445
GlifName: uni0924_uni0930_uni094D_.vatu
Width: 1024
VWidth: 0
Flags: W
LayerCount: 2
Fore
SplineSet
129 0 m 257
 483 0 l 257
 726 322 l 257
 726 523 l 257
 129 0 l 257
-30 1562 m 257
 -30 1362 l 257
 1020 1362 l 257
 1020 1562 l 257
 -30 1562 l 257
630 1562 m 257
 630 0 l 257
 829 0 l 257
 829 1562 l 257
 630 1562 l 257
757 546 m 257
 360 935 l 257
 54 935 l 257
 615 405 l 257
 757 546 l 257
EndSplineSet
EndChar

StartChar: uni0924_uni094D.half
Encoding: 65585 -1 446
GlifName: uni0924_uni094D_.half
Width: 1024
VWidth: 0
Flags: W
LayerCount: 2
Fore
SplineSet
-30 1562 m 257
 -30 1362 l 257
 1020 1362 l 257
 1020 1562 l 257
 -30 1562 l 257
1084 788 m 257
 405 788 l 257
 405 588 l 257
 1084 588 l 257
 1084 788 l 257
405 588 m 257
 544 0 l 257
 744 0 l 257
 605 588 l 257
 405 588 l 257
EndSplineSet
EndChar

StartChar: uni0924_uni094D_uni0924.pres
Encoding: 65587 -1 448
GlifName: uni0924_uni094D__uni0924.pres
Width: 1024
VWidth: 0
Flags: W
LayerCount: 2
Fore
SplineSet
-30 1554 m 257
 -30 1354 l 257
 1020 1354 l 257
 1020 1554 l 257
 -30 1554 l 257
630 1511 m 257
 630 0 l 257
 829 0 l 257
 829 1511 l 257
 630 1511 l 257
784 788 m 257
 105 788 l 257
 105 588 l 257
 784 588 l 257
 784 788 l 257
105 588 m 257
 212 0 l 257
 412 0 l 257
 304 588 l 257
 105 588 l 257
695 1038 m 257
 16 1038 l 257
 16 838 l 257
 695 838 l 257
 695 1038 l 257
EndSplineSet
EndChar

StartChar: uni0925
Encoding: 2341 2341 449
GlifName: uni0925
Width: 1024
VWidth: 0
Flags: W
LayerCount: 2
Fore
SplineSet
646 1548 m 257
 646 1348 l 257
 1026 1348 l 257
 1026 1548 l 257
 646 1548 l 257
782 1537 m 257
 782 -18 l 257
 981 -18 l 257
 981 1537 l 257
 782 1537 l 257
34 1548 m 257
 34 1348 l 257
 479 1348 l 257
 479 1548 l 257
 34 1548 l 257
278 1413 m 257
 278 927 l 257
 478 927 l 257
 478 1413 l 257
 278 1413 l 257
479 1018 m 257
 38 1018 l 257
 38 810 l 257
 479 810 l 257
 479 1018 l 257
38 946 m 257
 38 132 l 257
 237 132 l 257
 237 946 l 257
 38 946 l 257
38 331 m 257
 38 132 l 257
 981 132 l 257
 981 331 l 257
 38 331 l 257
EndSplineSet
EndChar

StartChar: uni0925_uni0930_uni094D.vatu
Encoding: 65588 -1 450
GlifName: uni0925_uni0930_uni094D_.vatu
Width: 1024
VWidth: 0
Flags: W
LayerCount: 2
Fore
SplineSet
182 0 m 257
 439 0 l 257
 779 215 l 257
 779 416 l 257
 182 0 l 257
646 1548 m 257
 646 1350 l 257
 1030 1350 l 257
 1030 1548 l 257
 646 1548 l 257
782 1537 m 257
 782 -18 l 257
 981 -18 l 257
 981 1537 l 257
 782 1537 l 257
34 1548 m 257
 34 1350 l 257
 479 1350 l 257
 479 1548 l 257
 34 1548 l 257
278 1413 m 257
 278 927 l 257
 478 927 l 257
 478 1413 l 257
 278 1413 l 257
479 1018 m 257
 38 1018 l 257
 38 810 l 257
 479 810 l 257
 479 1018 l 257
38 946 m 257
 38 243 l 257
 237 243 l 257
 237 946 l 257
 38 946 l 257
38 442 m 257
 38 243 l 257
 981 243 l 257
 981 442 l 257
 38 442 l 257
EndSplineSet
EndChar

StartChar: uni0925_uni094D.half
Encoding: 65589 -1 451
GlifName: uni0925_uni094D_.half
Width: 1024
VWidth: 0
Flags: W
LayerCount: 2
Fore
SplineSet
646 1548 m 257
 646 1350 l 257
 1030 1350 l 257
 1030 1548 l 257
 646 1548 l 257
34 1548 m 257
 34 1350 l 257
 479 1350 l 257
 479 1548 l 257
 34 1548 l 257
278 1413 m 257
 278 927 l 257
 478 927 l 257
 478 1413 l 257
 278 1413 l 257
479 1018 m 257
 38 1018 l 257
 38 810 l 257
 479 810 l 257
 479 1018 l 257
38 946 m 257
 38 132 l 257
 237 132 l 257
 237 946 l 257
 38 946 l 257
38 331 m 257
 38 132 l 257
 981 132 l 257
 981 331 l 257
 38 331 l 257
EndSplineSet
EndChar

StartChar: uni0926
Encoding: 2342 2342 453
GlifName: uni0926
Width: 1024
VWidth: 0
Flags: W
LayerCount: 2
Fore
SplineSet
0 1548 m 257
 0 1348 l 257
 1025 1348 l 257
 1025 1548 l 257
 0 1548 l 257
484 1509 m 257
 484 923 l 257
 684 923 l 257
 684 1509 l 257
 484 1509 l 257
683 1023 m 257
 61 1023 l 257
 61 821 l 257
 683 821 l 257
 683 1023 l 257
57 996 m 257
 57 219 l 257
 257 219 l 257
 257 996 l 257
 57 996 l 257
57 346 m 257
 57 146 l 257
 809 146 l 257
 809 346 l 257
 57 346 l 257
613 406 m 257
 613 -7 l 257
 813 -7 l 257
 813 406 l 257
 613 406 l 257
EndSplineSet
EndChar

StartChar: uni0926_uni0930_uni094D.vatu
Encoding: 65591 -1 454
GlifName: uni0926_uni0930_uni094D_.vatu
Width: 1024
VWidth: 0
Flags: W
LayerCount: 2
Fore
SplineSet
182 0 m 257
 439 0 l 257
 779 215 l 257
 779 416 l 257
 182 0 l 257
7 1548 m 257
 7 1350 l 257
 1022 1350 l 257
 1022 1548 l 257
 7 1548 l 257
484 1509 m 257
 484 923 l 257
 684 923 l 257
 684 1509 l 257
 484 1509 l 257
683 1023 m 257
 61 1023 l 257
 61 821 l 257
 683 821 l 257
 683 1023 l 257
57 996 m 257
 57 274 l 257
 257 274 l 257
 257 996 l 257
 57 996 l 257
57 401 m 257
 57 201 l 257
 809 201 l 257
 809 401 l 257
 57 401 l 257
613 461 m 257
 613 -7 l 257
 813 -7 l 257
 813 461 l 257
 613 461 l 257
EndSplineSet
EndChar

StartChar: uni0926_uni094D.half
Encoding: 65592 -1 455
GlifName: uni0926_uni094D_.half
Width: 1024
VWidth: 0
Flags: W
LayerCount: 2
Fore
SplineSet
0 1548 m 257
 0 1348 l 257
 1025 1348 l 257
 1025 1548 l 257
 0 1548 l 257
484 1509 m 257
 484 923 l 257
 684 923 l 257
 684 1509 l 257
 484 1509 l 257
683 1023 m 257
 61 1023 l 257
 61 821 l 257
 683 821 l 257
 683 1023 l 257
57 996 m 257
 57 219 l 257
 257 219 l 257
 257 996 l 257
 57 996 l 257
57 346 m 257
 57 146 l 257
 809 146 l 257
 809 346 l 257
 57 346 l 257
613 406 m 257
 613 -7 l 257
 813 -7 l 257
 813 406 l 257
 613 406 l 257
347 -22 m 257
 347 -218 l 257
 704 -218 l 257
 704 -22 l 257
 347 -22 l 257
563 -183 m 257
 900 -588 l 257
 1044 -425 l 257
 706 -21 l 257
 563 -183 l 257
EndSplineSet
EndChar

StartChar: uni0926_uni094D_uni0926.pres
Encoding: 65594 -1 457
GlifName: uni0926_uni094D__uni0926.pres
Width: 1024
VWidth: 0
Flags: W
LayerCount: 2
Fore
SplineSet
7 1548 m 257
 7 1350 l 257
 1022 1350 l 257
 1022 1548 l 257
 7 1548 l 257
484 1509 m 257
 484 1100 l 257
 684 1100 l 257
 684 1509 l 257
 484 1509 l 257
683 1197 m 257
 61 1197 l 257
 61 998 l 257
 683 998 l 257
 683 1197 l 257
57 1173 m 257
 57 758 l 257
 257 758 l 257
 257 1173 l 257
 57 1173 l 257
57 346 m 257
 57 146 l 257
 809 146 l 257
 809 346 l 257
 57 346 l 257
613 406 m 257
 613 -7 l 257
 813 -7 l 257
 813 406 l 257
 613 406 l 257
683 798 m 257
 202 798 l 257
 202 599 l 257
 683 599 l 257
 683 798 l 257
57 651 m 257
 57 279 l 257
 257 279 l 257
 257 651 l 257
 57 651 l 257
EndSplineSet
EndChar

StartChar: uni0926_uni094D_uni0927.pres
Encoding: 65595 -1 458
GlifName: uni0926_uni094D__uni0927.pres
Width: 1024
VWidth: 0
Flags: W
LayerCount: 2
Fore
SplineSet
7 1548 m 257
 7 1350 l 257
 1022 1350 l 257
 1022 1548 l 257
 7 1548 l 257
631 1509 m 257
 631 923 l 257
 831 923 l 257
 831 1509 l 257
 631 1509 l 257
830 1023 m 257
 381 1023 l 257
 381 821 l 257
 830 821 l 257
 830 1023 l 257
381 996 m 257
 381 219 l 257
 581 219 l 257
 581 996 l 257
 381 996 l 257
760 406 m 257
 760 -7 l 257
 960 -7 l 257
 960 406 l 257
 760 406 l 257
0 1117 m 257
 0 918 l 257
 302 918 l 257
 302 1117 l 257
 0 1117 l 257
0 950 m 257
 0 718 l 257
 195 718 l 257
 195 950 l 257
 0 950 l 257
-5 719 m 257
 -5 518 l 257
 394 518 l 257
 394 719 l 257
 -5 719 l 257
29 674 m 257
 29 218 l 257
 229 218 l 257
 229 674 l 257
 29 674 l 257
29 339 m 257
 29 139 l 257
 847 139 l 257
 847 339 l 257
 29 339 l 257
EndSplineSet
EndChar

StartChar: uni0926_uni094D_uni092F.pres
Encoding: 65596 -1 459
GlifName: uni0926_uni094D__uni092F_.pres
Width: 1024
VWidth: 0
Flags: W
LayerCount: 2
Fore
SplineSet
801 1531 m 257
 801 0 l 257
 1002 0 l 257
 1002 1531 l 257
 801 1531 l 257
674 428 m 257
 674 229 l 257
 801 0 l 257
 865 166 l 257
 674 428 l 257
-5 1548 m 257
 -5 1350 l 257
 1022 1350 l 257
 1022 1548 l 257
 -5 1548 l 257
484 1509 m 257
 484 923 l 257
 684 923 l 257
 684 1509 l 257
 484 1509 l 257
674 428 m 257
 57 428 l 257
 57 229 l 257
 674 229 l 257
 674 428 l 257
57 996 m 257
 57 290 l 257
 257 290 l 257
 257 996 l 257
 57 996 l 257
684 1023 m 257
 56 1023 l 257
 56 821 l 257
 684 821 l 257
 684 1023 l 257
EndSplineSet
EndChar

StartChar: uni0926_uni094D_uni0935.pres
Encoding: 65597 -1 460
GlifName: uni0926_uni094D__uni0935.pres
Width: 1024
VWidth: 0
Flags: W
LayerCount: 2
Fore
SplineSet
7 1548 m 257
 7 1350 l 257
 1022 1350 l 257
 1022 1548 l 257
 7 1548 l 257
484 1509 m 257
 484 1146 l 257
 684 1146 l 257
 684 1509 l 257
 484 1509 l 257
683 1243 m 257
 61 1243 l 257
 61 1044 l 257
 683 1044 l 257
 683 1243 l 257
57 1243 m 257
 57 659 l 257
 257 659 l 257
 257 1243 l 257
 57 1243 l 257
57 825 m 257
 57 625 l 257
 809 625 l 257
 809 825 l 257
 57 825 l 257
613 846 m 257
 613 -7 l 257
 813 -7 l 257
 813 846 l 257
 613 846 l 257
76 488 m 257
 76 102 l 257
 276 102 l 257
 276 488 l 257
 76 488 l 257
77 274 m 257
 77 74 l 257
 812 74 l 257
 812 274 l 257
 77 274 l 257
75 553 m 257
 75 352 l 257
 511 352 l 257
 511 553 l 257
 75 553 l 257
EndSplineSet
EndChar

StartChar: uni0927
Encoding: 2343 2343 461
GlifName: uni0927
Width: 1024
VWidth: 0
Flags: W
LayerCount: 2
Fore
SplineSet
734 1548 m 257
 734 1348 l 257
 1035 1348 l 257
 1035 1548 l 257
 734 1548 l 257
783 1440 m 257
 783 -6 l 257
 982 -6 l 257
 982 1440 l 257
 783 1440 l 257
113 1548 m 257
 113 1348 l 257
 499 1348 l 257
 499 1548 l 257
 113 1548 l 257
113 1501 m 257
 113 808 l 257
 312 808 l 257
 312 1501 l 257
 113 1501 l 257
112 882 m 257
 112 681 l 257
 511 681 l 257
 511 882 l 257
 112 882 l 257
146 711 m 257
 146 205 l 257
 346 205 l 257
 346 711 l 257
 146 711 l 257
146 326 m 257
 146 126 l 257
 849 126 l 257
 849 326 l 257
 146 326 l 257
EndSplineSet
EndChar

StartChar: uni0927_uni0930_uni094D.vatu
Encoding: 65598 -1 462
GlifName: uni0927_uni0930_uni094D_.vatu
Width: 1024
VWidth: 0
Flags: W
LayerCount: 2
Fore
SplineSet
182 0 m 257
 439 0 l 257
 779 215 l 257
 779 416 l 257
 182 0 l 257
734 1548 m 257
 734 1348 l 257
 1035 1348 l 257
 1035 1548 l 257
 734 1548 l 257
783 1440 m 257
 783 -6 l 257
 982 -6 l 257
 982 1440 l 257
 783 1440 l 257
119 1548 m 257
 119 1346 l 257
 505 1346 l 257
 505 1548 l 257
 119 1548 l 257
113 1501 m 257
 113 808 l 257
 312 808 l 257
 312 1501 l 257
 113 1501 l 257
112 882 m 257
 112 681 l 257
 511 681 l 257
 511 882 l 257
 112 882 l 257
146 711 m 257
 146 310 l 257
 346 310 l 257
 346 711 l 257
 146 711 l 257
146 431 m 257
 146 231 l 257
 849 231 l 257
 849 431 l 257
 146 431 l 257
EndSplineSet
EndChar

StartChar: uni0927_uni094D.half
Encoding: 65599 -1 463
GlifName: uni0927_uni094D_.half
Width: 1024
VWidth: 0
Flags: W
LayerCount: 2
Fore
SplineSet
299 1548 m 257
 299 1346 l 257
 685 1346 l 257
 685 1548 l 257
 299 1548 l 257
293 1501 m 257
 293 808 l 257
 492 808 l 257
 492 1501 l 257
 293 1501 l 257
292 882 m 257
 292 681 l 257
 691 681 l 257
 691 882 l 257
 292 882 l 257
326 711 m 257
 326 205 l 257
 526 205 l 257
 526 711 l 257
 326 711 l 257
326 326 m 257
 326 126 l 257
 1029 126 l 257
 1029 326 l 257
 326 326 l 257
EndSplineSet
EndChar

StartChar: uni0928
Encoding: 2344 2344 465
GlifName: uni0928
Width: 1024
VWidth: 0
Flags: W
LayerCount: 2
Fore
SplineSet
0 1548 m 257
 0 1348 l 257
 1025 1348 l 257
 1025 1548 l 257
 0 1548 l 257
706 1548 m 257
 706 0 l 257
 905 0 l 257
 905 1548 l 257
 706 1548 l 257
101 744 m 257
 101 544 l 257
 875 544 l 257
 875 744 l 257
 101 744 l 257
102 741 m 257
 102 456 l 257
 303 456 l 257
 303 741 l 257
 102 741 l 257
EndSplineSet
EndChar

StartChar: uni0928_uni0930_uni094D.vatu
Encoding: 65601 -1 466
GlifName: uni0928_uni0930_uni094D_.vatu
Width: 1024
VWidth: 0
Flags: W
LayerCount: 2
Fore
SplineSet
182 0 m 257
 439 0 l 257
 779 215 l 257
 779 416 l 257
 182 0 l 257
6 1548 m 257
 6 1347 l 257
 1021 1347 l 257
 1021 1548 l 257
 6 1548 l 257
706 1548 m 257
 706 0 l 257
 905 0 l 257
 905 1548 l 257
 706 1548 l 257
101 744 m 257
 101 544 l 257
 875 544 l 257
 875 744 l 257
 101 744 l 257
102 741 m 257
 102 456 l 257
 303 456 l 257
 303 741 l 257
 102 741 l 257
EndSplineSet
EndChar

StartChar: uni0928_uni094D.half
Encoding: 65602 -1 467
GlifName: uni0928_uni094D_.half
Width: 1024
VWidth: 0
Flags: W
LayerCount: 2
Fore
SplineSet
6 1548 m 257
 6 1347 l 257
 1021 1347 l 257
 1021 1548 l 257
 6 1548 l 257
281 744 m 257
 281 544 l 257
 1055 544 l 257
 1055 744 l 257
 281 744 l 257
282 741 m 257
 282 456 l 257
 483 456 l 257
 483 741 l 257
 282 741 l 257
EndSplineSet
EndChar

StartChar: uni0929
Encoding: 2345 2345 469
GlifName: uni0929
Width: 1024
VWidth: 0
Flags: W
LayerCount: 2
Fore
SplineSet
6 1548 m 257
 6 1347 l 257
 1021 1347 l 257
 1021 1548 l 257
 6 1548 l 257
706 1548 m 257
 706 0 l 257
 905 0 l 257
 905 1548 l 257
 706 1548 l 257
101 744 m 257
 101 544 l 257
 875 544 l 257
 875 744 l 257
 101 744 l 257
102 741 m 257
 102 456 l 257
 303 456 l 257
 303 741 l 257
 102 741 l 257
374 -57 m 257
 374 -304 l 257
 638 -304 l 257
 638 -57 l 257
 374 -57 l 257
EndSplineSet
EndChar

StartChar: uni0929_uni0930_uni094D.vatu
Encoding: 65604 -1 470
GlifName: uni0929_uni0930_uni094D_.vatu
Width: 1024
VWidth: 0
Flags: W
LayerCount: 2
Fore
SplineSet
182 0 m 257
 439 0 l 257
 779 215 l 257
 779 416 l 257
 182 0 l 257
6 1548 m 257
 6 1347 l 257
 1021 1347 l 257
 1021 1548 l 257
 6 1548 l 257
706 1548 m 257
 706 0 l 257
 905 0 l 257
 905 1548 l 257
 706 1548 l 257
101 744 m 257
 101 544 l 257
 875 544 l 257
 875 744 l 257
 101 744 l 257
102 741 m 257
 102 456 l 257
 303 456 l 257
 303 741 l 257
 102 741 l 257
374 -57 m 257
 374 -304 l 257
 638 -304 l 257
 638 -57 l 257
 374 -57 l 257
EndSplineSet
EndChar

StartChar: uni0929_uni094D.half
Encoding: 65605 -1 471
GlifName: uni0929_uni094D_.half
Width: 1024
VWidth: 0
Flags: W
LayerCount: 2
Fore
SplineSet
6 1548 m 257
 6 1347 l 257
 1021 1347 l 257
 1021 1548 l 257
 6 1548 l 257
281 744 m 257
 281 544 l 257
 1055 544 l 257
 1055 744 l 257
 281 744 l 257
282 741 m 257
 282 456 l 257
 483 456 l 257
 483 741 l 257
 282 741 l 257
554 -57 m 257
 554 -304 l 257
 818 -304 l 257
 818 -57 l 257
 554 -57 l 257
EndSplineSet
EndChar

StartChar: uni092A
Encoding: 2346 2346 473
GlifName: uni092A_
Width: 1024
VWidth: 0
Flags: W
LayerCount: 2
Fore
SplineSet
-30 1548 m 257
 -30 1349 l 257
 1031 1349 l 257
 1031 1548 l 257
 -30 1548 l 257
691 1537 m 257
 691 0 l 257
 891 0 l 257
 891 1537 l 257
 691 1537 l 257
94 1548 m 257
 94 837 l 257
 295 837 l 257
 295 1548 l 257
 94 1548 l 257
94 1023 m 257
 94 825 l 257
 857 825 l 257
 857 1023 l 257
 94 1023 l 257
EndSplineSet
EndChar

StartChar: uni092A_uni0930_uni094D.vatu
Encoding: 65607 -1 474
GlifName: uni092A__uni0930_uni094D_.vatu
Width: 1024
VWidth: 0
Flags: W
LayerCount: 2
Fore
SplineSet
123 0 m 257
 380 0 l 257
 779 407 l 257
 779 608 l 257
 123 0 l 257
-30 1548 m 257
 -30 1349 l 257
 1031 1349 l 257
 1031 1548 l 257
 -30 1548 l 257
691 1537 m 257
 691 0 l 257
 891 0 l 257
 891 1537 l 257
 691 1537 l 257
94 1548 m 257
 94 837 l 257
 295 837 l 257
 295 1548 l 257
 94 1548 l 257
94 1023 m 257
 94 825 l 257
 857 825 l 257
 857 1023 l 257
 94 1023 l 257
EndSplineSet
EndChar

StartChar: uni092A_uni094D.half
Encoding: 65608 -1 475
GlifName: uni092A__uni094D_.half
Width: 1024
VWidth: 0
Flags: W
LayerCount: 2
Fore
SplineSet
-30 1548 m 257
 -30 1349 l 257
 1031 1349 l 257
 1031 1548 l 257
 -30 1548 l 257
94 1548 m 257
 94 837 l 257
 295 837 l 257
 295 1548 l 257
 94 1548 l 257
94 1023 m 257
 94 825 l 257
 1057 825 l 257
 1057 1023 l 257
 94 1023 l 257
EndSplineSet
EndChar

StartChar: uni092B
Encoding: 2347 2347 477
GlifName: uni092B_
Width: 1024
VWidth: 0
Flags: W
LayerCount: 2
Fore
SplineSet
-30 1548 m 257
 -30 1349 l 257
 1031 1349 l 257
 1031 1548 l 257
 -30 1548 l 257
513 1537 m 257
 513 0 l 257
 713 0 l 257
 713 1537 l 257
 513 1537 l 257
94 1548 m 257
 94 837 l 257
 295 837 l 257
 295 1548 l 257
 94 1548 l 257
94 1023 m 257
 94 824 l 257
 971 824 l 257
 971 1023 l 257
 94 1023 l 257
781 1023 m 257
 781 686 l 257
 980 686 l 257
 980 1023 l 257
 781 1023 l 257
EndSplineSet
EndChar

StartChar: uni092B_uni0930_uni094D.vatu
Encoding: 65610 -1 478
GlifName: uni092B__uni0930_uni094D_.vatu
Width: 1024
VWidth: 0
Flags: W
LayerCount: 2
Fore
SplineSet
39 0 m 257
 296 0 l 257
 636 379 l 257
 636 593 l 257
 39 0 l 257
-30 1548 m 257
 -30 1349 l 257
 1031 1349 l 257
 1031 1548 l 257
 -30 1548 l 257
513 1537 m 257
 513 0 l 257
 713 0 l 257
 713 1537 l 257
 513 1537 l 257
94 1548 m 257
 94 837 l 257
 295 837 l 257
 295 1548 l 257
 94 1548 l 257
94 1023 m 257
 94 824 l 257
 971 824 l 257
 971 1023 l 257
 94 1023 l 257
781 1023 m 257
 781 686 l 257
 980 686 l 257
 980 1023 l 257
 781 1023 l 257
EndSplineSet
EndChar

StartChar: uni092B_uni094D.half
Encoding: 65611 -1 479
GlifName: uni092B__uni094D_.half
Width: 1024
VWidth: 0
Flags: W
LayerCount: 2
Fore
SplineSet
-30 1548 m 257
 -30 1349 l 257
 1031 1349 l 257
 1031 1548 l 257
 -30 1548 l 257
513 1537 m 257
 513 0 l 257
 713 0 l 257
 713 1537 l 257
 513 1537 l 257
94 1548 m 257
 94 837 l 257
 295 837 l 257
 295 1548 l 257
 94 1548 l 257
94 1023 m 257
 94 824 l 257
 1071 824 l 257
 1071 1023 l 257
 94 1023 l 257
EndSplineSet
EndChar

StartChar: uni092C
Encoding: 2348 2348 481
GlifName: uni092C_
Width: 1024
VWidth: 0
Flags: W
LayerCount: 2
Fore
SplineSet
0 1548 m 257
 0 1351 l 257
 1027 1351 l 257
 1027 1548 l 257
 0 1548 l 257
662 1437 m 257
 662 0 l 257
 862 0 l 257
 862 1437 l 257
 662 1437 l 257
76 1023 m 257
 76 232 l 257
 276 232 l 257
 276 1023 l 257
 76 1023 l 257
77 404 m 257
 77 204 l 257
 812 204 l 257
 812 404 l 257
 77 404 l 257
101 926 m 257
 531 224 l 257
 701 328 l 257
 271 1030 l 257
 101 926 l 257
75 1037 m 257
 75 820 l 257
 613 820 l 257
 613 1037 l 257
 75 1037 l 257
EndSplineSet
EndChar

StartChar: uni092C_uni0930_uni094D.vatu
Encoding: 65613 -1 482
GlifName: uni092C__uni0930_uni094D_.vatu
Width: 1024
VWidth: 0
Flags: W
LayerCount: 2
Fore
SplineSet
182 0 m 257
 439 0 l 257
 779 215 l 257
 779 416 l 257
 182 0 l 257
0 1548 m 257
 0 1351 l 257
 1027 1351 l 257
 1027 1548 l 257
 0 1548 l 257
662 1437 m 257
 662 0 l 257
 862 0 l 257
 862 1437 l 257
 662 1437 l 257
76 1023 m 257
 76 285 l 257
 276 285 l 257
 276 1023 l 257
 76 1023 l 257
77 457 m 257
 77 257 l 257
 812 257 l 257
 812 457 l 257
 77 457 l 257
101 926 m 257
 531 277 l 257
 701 381 l 257
 271 1030 l 257
 101 926 l 257
75 1037 m 257
 75 820 l 257
 613 820 l 257
 613 1037 l 257
 75 1037 l 257
EndSplineSet
EndChar

StartChar: uni092C_uni094D.half
Encoding: 65614 -1 483
GlifName: uni092C__uni094D_.half
Width: 1024
VWidth: 0
Flags: W
LayerCount: 2
Fore
SplineSet
0 1548 m 257
 0 1351 l 257
 1027 1351 l 257
 1027 1548 l 257
 0 1548 l 257
326 1023 m 257
 326 232 l 257
 526 232 l 257
 526 1023 l 257
 326 1023 l 257
327 404 m 257
 327 204 l 257
 1062 204 l 257
 1062 404 l 257
 327 404 l 257
351 926 m 257
 781 224 l 257
 951 328 l 257
 521 1030 l 257
 351 926 l 257
325 1037 m 257
 325 820 l 257
 863 820 l 257
 863 1037 l 257
 325 1037 l 257
EndSplineSet
EndChar

StartChar: uni092D
Encoding: 2349 2349 485
GlifName: uni092D_
Width: 1024
VWidth: 0
Flags: W
LayerCount: 2
Fore
SplineSet
0 169 m 257
 0 0 l 257
 462 0 l 257
 462 169 l 257
 0 169 l 257
0 473 m 257
 0 0 l 257
 186 0 l 257
 186 473 l 257
 0 473 l 257
586 1548 m 257
 586 1348 l 257
 1031 1348 l 257
 1031 1548 l 257
 586 1548 l 257
756 1543 m 257
 756 0 l 257
 955 0 l 257
 955 1543 l 257
 756 1543 l 257
41 1532 m 257
 41 1079 l 257
 241 1079 l 257
 241 1532 l 257
 41 1532 l 257
67 1537 m 257
 67 1338 l 257
 359 1338 l 257
 359 1537 l 257
 67 1537 l 257
294 1537 m 257
 294 5 l 257
 493 5 l 257
 493 1537 l 257
 294 1537 l 257
100 473 m 257
 100 273 l 257
 927 273 l 257
 927 473 l 257
 100 473 l 257
EndSplineSet
EndChar

StartChar: uni092D_uni0930_uni094D.vatu
Encoding: 65616 -1 486
GlifName: uni092D__uni0930_uni094D_.vatu
Width: 1024
VWidth: 0
Flags: W
LayerCount: 2
Fore
SplineSet
182 0 m 257
 439 0 l 257
 779 215 l 257
 779 416 l 257
 182 0 l 257
0 394 m 257
 0 225 l 257
 462 225 l 257
 462 394 l 257
 0 394 l 257
0 698 m 257
 0 225 l 257
 186 225 l 257
 186 698 l 257
 0 698 l 257
586 1548 m 257
 586 1348 l 257
 1031 1348 l 257
 1031 1548 l 257
 586 1548 l 257
756 1543 m 257
 756 -16 l 257
 955 -16 l 257
 955 1543 l 257
 756 1543 l 257
41 1532 m 257
 41 1079 l 257
 241 1079 l 257
 241 1532 l 257
 41 1532 l 257
67 1537 m 257
 67 1338 l 257
 359 1338 l 257
 359 1537 l 257
 67 1537 l 257
294 1537 m 257
 294 230 l 257
 493 230 l 257
 493 1537 l 257
 294 1537 l 257
100 698 m 257
 100 498 l 257
 927 498 l 257
 927 698 l 257
 100 698 l 257
EndSplineSet
EndChar

StartChar: uni092D_uni094D.half
Encoding: 65617 -1 487
GlifName: uni092D__uni094D_.half
Width: 1024
VWidth: 0
Flags: W
LayerCount: 2
Fore
SplineSet
0 169 m 257
 0 0 l 257
 462 0 l 257
 462 169 l 257
 0 169 l 257
0 473 m 257
 0 0 l 257
 186 0 l 257
 186 473 l 257
 0 473 l 257
586 1548 m 257
 586 1348 l 257
 1031 1348 l 257
 1031 1548 l 257
 586 1548 l 257
41 1532 m 257
 41 1079 l 257
 241 1079 l 257
 241 1532 l 257
 41 1532 l 257
67 1537 m 257
 67 1338 l 257
 359 1338 l 257
 359 1537 l 257
 67 1537 l 257
294 1537 m 257
 294 5 l 257
 493 5 l 257
 493 1537 l 257
 294 1537 l 257
100 473 m 257
 100 273 l 257
 1027 273 l 257
 1027 473 l 257
 100 473 l 257
EndSplineSet
EndChar

StartChar: uni092E
Encoding: 2350 2350 489
GlifName: uni092E_
Width: 1024
VWidth: 0
Flags: W
LayerCount: 2
Fore
SplineSet
0 169 m 257
 0 0 l 257
 462 0 l 257
 462 169 l 257
 0 169 l 257
0 473 m 257
 0 0 l 257
 186 0 l 257
 186 473 l 257
 0 473 l 257
6 1548 m 257
 6 1348 l 257
 1031 1348 l 257
 1031 1548 l 257
 6 1548 l 257
756 1543 m 257
 756 0 l 257
 955 0 l 257
 955 1543 l 257
 756 1543 l 257
294 1537 m 257
 294 0 l 257
 493 0 l 257
 493 1537 l 257
 294 1537 l 257
100 473 m 257
 100 273 l 257
 927 273 l 257
 927 473 l 257
 100 473 l 257
EndSplineSet
EndChar

StartChar: uni092E_uni0930_uni094D.vatu
Encoding: 65619 -1 490
GlifName: uni092E__uni0930_uni094D_.vatu
Width: 1024
VWidth: 0
Flags: W
LayerCount: 2
Fore
SplineSet
182 0 m 257
 439 0 l 257
 779 215 l 257
 779 416 l 257
 182 0 l 257
0 379 m 257
 0 210 l 257
 462 210 l 257
 462 379 l 257
 0 379 l 257
0 683 m 257
 0 210 l 257
 186 210 l 257
 186 683 l 257
 0 683 l 257
6 1548 m 257
 6 1348 l 257
 1031 1348 l 257
 1031 1548 l 257
 6 1548 l 257
756 1543 m 257
 756 0 l 257
 955 0 l 257
 955 1543 l 257
 756 1543 l 257
294 1537 m 257
 294 213 l 257
 493 213 l 257
 493 1537 l 257
 294 1537 l 257
100 683 m 257
 100 483 l 257
 927 483 l 257
 927 683 l 257
 100 683 l 257
EndSplineSet
EndChar

StartChar: uni092E_uni094D.half
Encoding: 65620 -1 491
GlifName: uni092E__uni094D_.half
Width: 1024
VWidth: 0
Flags: W
LayerCount: 2
Fore
SplineSet
0 169 m 257
 0 0 l 257
 462 0 l 257
 462 169 l 257
 0 169 l 257
0 473 m 257
 0 0 l 257
 186 0 l 257
 186 473 l 257
 0 473 l 257
6 1548 m 257
 6 1348 l 257
 1031 1348 l 257
 1031 1548 l 257
 6 1548 l 257
294 1537 m 257
 294 0 l 257
 493 0 l 257
 493 1537 l 257
 294 1537 l 257
100 473 m 257
 100 273 l 257
 1027 273 l 257
 1027 473 l 257
 100 473 l 257
EndSplineSet
EndChar

StartChar: uni092F
Encoding: 2351 2351 493
GlifName: uni092F_
Width: 1024
VWidth: 0
Flags: W
LayerCount: 2
Fore
SplineSet
-18 1548 m 257
 -18 1351 l 257
 1023 1351 l 257
 1023 1548 l 257
 -18 1548 l 257
688 1531 m 257
 688 0 l 257
 889 0 l 257
 889 1531 l 257
 688 1531 l 257
125 1484 m 257
 318 846 l 257
 528 846 l 257
 319 1537 l 257
 125 1484 l 257
318 846 m 257
 127 472 l 257
 290 405 l 257
 528 846 l 257
 318 846 l 257
213 640 m 257
 128 472 l 257
 741 199 l 257
 818 372 l 257
 213 640 l 257
EndSplineSet
EndChar

StartChar: uni092F_uni0930_uni094D.vatu
Encoding: 65622 -1 494
GlifName: uni092F__uni0930_uni094D_.vatu
Width: 1024
VWidth: 0
Flags: W
LayerCount: 2
Fore
SplineSet
182 0 m 257
 439 0 l 257
 779 215 l 257
 779 416 l 257
 182 0 l 257
-18 1548 m 257
 -18 1351 l 257
 1023 1351 l 257
 1023 1548 l 257
 -18 1548 l 257
688 1531 m 257
 688 0 l 257
 889 0 l 257
 889 1531 l 257
 688 1531 l 257
125 1484 m 257
 318 846 l 257
 528 846 l 257
 319 1537 l 257
 125 1484 l 257
318 846 m 257
 127 472 l 257
 290 405 l 257
 528 846 l 257
 318 846 l 257
213 640 m 257
 128 472 l 257
 741 199 l 257
 818 372 l 257
 213 640 l 257
EndSplineSet
EndChar

StartChar: uni092F_uni094D.half
Encoding: 65623 -1 495
GlifName: uni092F__uni094D_.half
Width: 1024
VWidth: 0
Flags: W
LayerCount: 2
Fore
SplineSet
-18 1548 m 257
 -18 1351 l 257
 1023 1351 l 257
 1023 1548 l 257
 -18 1548 l 257
375 1484 m 257
 568 846 l 257
 778 846 l 257
 569 1537 l 257
 375 1484 l 257
568 846 m 257
 377 472 l 257
 540 405 l 257
 778 846 l 257
 568 846 l 257
463 640 m 257
 378 472 l 257
 991 199 l 257
 1068 372 l 257
 463 640 l 257
EndSplineSet
EndChar

StartChar: uni0930
Encoding: 2352 2352 497
GlifName: uni0930
Width: 1024
VWidth: 0
Flags: W
LayerCount: 2
Fore
SplineSet
0 1548 m 257
 0 1350 l 257
 1020 1350 l 257
 1020 1548 l 257
 0 1548 l 257
585 1537 m 257
 585 790 l 257
 785 790 l 257
 785 1537 l 257
 585 1537 l 257
785 802 m 257
 352 802 l 257
 352 603 l 257
 785 603 l 257
 785 802 l 257
352 603 m 257
 700 -50 l 257
 873 41 l 257
 524 694 l 257
 352 603 l 257
EndSplineSet
EndChar

StartChar: uni0930_uni0930_uni094D.vatu
Encoding: 65625 -1 498
GlifName: uni0930_uni0930_uni094D_.vatu
Width: 1024
VWidth: 0
Flags: W
LayerCount: 2
Fore
SplineSet
87 0 m 257
 344 0 l 257
 684 215 l 257
 684 416 l 257
 87 0 l 257
0 1548 m 257
 0 1350 l 257
 1020 1350 l 257
 1020 1548 l 257
 0 1548 l 257
585 1537 m 257
 585 790 l 257
 785 790 l 257
 785 1537 l 257
 585 1537 l 257
785 802 m 257
 352 802 l 257
 352 603 l 257
 785 603 l 257
 785 802 l 257
352 603 m 257
 700 -50 l 257
 873 41 l 257
 524 694 l 257
 352 603 l 257
EndSplineSet
EndChar

StartChar: uni0930_uni0941.blws
Encoding: 65626 -1 499
GlifName: uni0930_uni0941.blws
Width: 1024
VWidth: 0
Flags: W
LayerCount: 2
Fore
SplineSet
448.5 877.5 m 257
 866.5 877.5 l 257
 866.5 1077.5 l 257
 448.5 1077.5 l 257
 448.5 877.5 l 257
759.5 379.5 m 257
 958.5 379.5 l 257
 958.5 1078.5 l 257
 759.5 1078.5 l 257
 759.5 379.5 l 257
645.5 379.5 m 257
 856.5 379.5 l 257
 856.5 579.5 l 257
 645.5 579.5 l 257
 645.5 379.5 l 257
0 1548 m 257
 0 1350 l 257
 1020 1350 l 257
 1020 1548 l 257
 0 1548 l 257
364 1537 m 257
 364 790 l 257
 564 790 l 257
 564 1537 l 257
 364 1537 l 257
564 802 m 257
 131 802 l 257
 131 603 l 257
 564 603 l 257
 564 802 l 257
131 603 m 257
 479 -50 l 257
 652 41 l 257
 303 694 l 257
 131 603 l 257
EndSplineSet
EndChar

StartChar: uni0930_uni0942.blws
Encoding: 65627 -1 500
GlifName: uni0930_uni0942.blws
Width: 1024
VWidth: 0
Flags: W
LayerCount: 2
Fore
SplineSet
787 539 m 257
 787 739 l 257
 542 739 l 257
 542 539 l 257
 787 539 l 257
743 735 m 257
 743 1024 l 257
 542 1024 l 257
 542 735 l 257
 743 735 l 257
417 1024 m 257
 417 825 l 257
 819 825 l 257
 819 1024 l 257
 417 1024 l 257
819 828 m 257
 1024 594 l 257
 1024 774 l 257
 819 1024 l 257
 819 828 l 257
-1 1548 m 257
 -2 1347 l 257
 1023 1348 l 257
 1024 1548 l 257
 -1 1548 l 257
251 1537 m 257
 251 790 l 257
 451 790 l 257
 451 1537 l 257
 251 1537 l 257
451 802 m 257
 18 802 l 257
 18 603 l 257
 451 603 l 257
 451 802 l 257
18 603 m 257
 366 -50 l 257
 539 41 l 257
 190 694 l 257
 18 603 l 257
EndSplineSet
EndChar

StartChar: uni0930_uni094D.abvs
Encoding: 65628 -1 501
GlifName: uni0930_uni094D_.abvs
Width: 1024
VWidth: 0
Flags: W
LayerCount: 2
Fore
SplineSet
-16 1548 m 257
 182 1548 l 257
 182 1871 l 257
 -16 1871 l 257
 -16 1548 l 257
244 2142 m 257
 244 1942 l 257
 572 1942 l 257
 572 2142 l 257
 244 2142 l 257
244 2142 m 257
 -17 1869 l 257
 181 1869 l 257
 244 1942 l 257
 244 2142 l 257
EndSplineSet
EndChar

StartChar: uni0930_uni094D.blwf
Encoding: 65629 -1 502
GlifName: uni0930_uni094D_.blwf
Width: 1024
VWidth: 0
Flags: W
LayerCount: 2
Fore
SplineSet
-14 1548 m 257
 -14 1351 l 257
 1026 1351 l 257
 1026 1548 l 257
 -14 1548 l 257
-971 -210 m 257
 -747 -590 l 257
 -465 -590 l 257
 -849 -41 l 257
 -971 -210 l 257
-849 -41 m 257
 -1256 -599 l 257
 -1035 -599 l 257
 -734 -206 l 257
 -849 -41 l 257
EndSplineSet
EndChar

StartChar: uni0930_uni094D.half
Encoding: 65630 -1 503
GlifName: uni0930_uni094D_.half
Width: 1024
VWidth: 0
Flags: W
LayerCount: 2
Fore
SplineSet
0 1548 m 257
 0 1350 l 257
 1020 1350 l 257
 1020 1548 l 257
 0 1548 l 257
1024 935 m 257
 696 802 l 257
 696 603 l 257
 1024 778 l 257
 1024 935 l 257
696 802 m 257
 352 802 l 257
 352 603 l 257
 696 603 l 257
 696 802 l 257
50 935 m 257
 352 604 l 257
 352 802 l 257
 246 935 l 257
 50 935 l 257
EndSplineSet
EndChar

StartChar: uni0930_uni094D.rphf
Encoding: 65632 -1 505
GlifName: uni0930_uni094D_.rphf
Width: 1024
VWidth: 0
Flags: W
LayerCount: 2
Fore
SplineSet
-11 1548 m 257
 -11 1352 l 257
 1028 1352 l 257
 1028 1548 l 257
 -11 1548 l 257
-516 1548 m 257
 -318 1548 l 257
 -318 1871 l 257
 -516 1871 l 257
 -516 1548 l 257
-256 2142 m 257
 -256 1942 l 257
 72 1942 l 257
 72 2142 l 257
 -256 2142 l 257
-256 2142 m 257
 -517 1869 l 257
 -319 1869 l 257
 -256 1942 l 257
 -256 2142 l 257
EndSplineSet
EndChar

StartChar: uni0930_uni094D.vatu
Encoding: 65633 -1 506
GlifName: uni0930_uni094D_.vatu
Width: 1024
VWidth: 0
Flags: W
LayerCount: 2
Fore
SplineSet
-19 0 m 257
 238 0 l 257
 578 215 l 257
 578 416 l 257
 -19 0 l 257
EndSplineSet
EndChar

StartChar: uni0931
Encoding: 2353 2353 507
GlifName: uni0931
Width: 1024
VWidth: 0
Flags: W
LayerCount: 2
Fore
SplineSet
0 1548 m 257
 0 1350 l 257
 1020 1350 l 257
 1020 1548 l 257
 0 1548 l 257
585 1537 m 257
 585 790 l 257
 785 790 l 257
 785 1537 l 257
 585 1537 l 257
785 802 m 257
 352 802 l 257
 352 603 l 257
 785 603 l 257
 785 802 l 257
352 603 m 257
 700 -50 l 257
 873 41 l 257
 524 694 l 257
 352 603 l 257
332 -45 m 257
 332 -292 l 257
 596 -292 l 257
 596 -45 l 257
 332 -45 l 257
EndSplineSet
EndChar

StartChar: uni0931_uni0930_uni094D.vatu
Encoding: 65634 -1 508
GlifName: uni0931_uni0930_uni094D_.vatu
Width: 1024
VWidth: 0
Flags: W
LayerCount: 2
Fore
SplineSet
96 0 m 257
 353 0 l 257
 693 215 l 257
 652 382 l 257
 96 0 l 257
0 1548 m 257
 0 1350 l 257
 1020 1350 l 257
 1020 1548 l 257
 0 1548 l 257
585 1537 m 257
 585 790 l 257
 785 790 l 257
 785 1537 l 257
 585 1537 l 257
785 802 m 257
 352 802 l 257
 352 603 l 257
 785 603 l 257
 785 802 l 257
352 603 m 257
 700 -50 l 257
 873 41 l 257
 524 694 l 257
 352 603 l 257
332 -45 m 257
 332 -292 l 257
 596 -292 l 257
 596 -45 l 257
 332 -45 l 257
EndSplineSet
EndChar

StartChar: uni0932
Encoding: 2354 2354 510
GlifName: uni0932
Width: 1024
VWidth: 0
Flags: W
LayerCount: 2
Fore
SplineSet
-11 1548 m 257
 -11 1344 l 257
 1025 1344 l 257
 1025 1548 l 257
 -11 1548 l 257
900 1548 m 257
 700 1548 l 257
 700 0 l 257
 900 0 l 257
 900 1548 l 257
32 703 m 257
 32 194 l 257
 235 194 l 257
 235 703 l 257
 32 703 l 257
32 782 m 257
 32 582 l 257
 814 582 l 257
 814 782 l 257
 32 782 l 257
375 689 m 257
 375 374 l 257
 575 374 l 257
 575 689 l 257
 375 689 l 257
EndSplineSet
EndChar

StartChar: uni0932_uni0930_uni094D.vatu
Encoding: 65636 -1 511
GlifName: uni0932_uni0930_uni094D_.vatu
Width: 1024
VWidth: 0
Flags: W
LayerCount: 2
Fore
SplineSet
182 0 m 257
 439 0 l 257
 779 215 l 257
 779 416 l 257
 182 0 l 257
-11 1548 m 257
 -11 1344 l 257
 1025 1344 l 257
 1025 1548 l 257
 -11 1548 l 257
900 1548 m 257
 700 1548 l 257
 700 0 l 257
 900 0 l 257
 900 1548 l 257
32 703 m 257
 32 194 l 257
 235 194 l 257
 235 703 l 257
 32 703 l 257
32 782 m 257
 32 582 l 257
 814 582 l 257
 814 782 l 257
 32 782 l 257
375 689 m 257
 375 374 l 257
 575 374 l 257
 575 689 l 257
 375 689 l 257
EndSplineSet
EndChar

StartChar: uni0932_uni094D.half
Encoding: 65637 -1 512
GlifName: uni0932_uni094D_.half
Width: 1024
VWidth: 0
Flags: W
LayerCount: 2
Fore
SplineSet
-11 1548 m 257
 -11 1344 l 257
 1025 1344 l 257
 1025 1548 l 257
 -11 1548 l 257
252 703 m 257
 252 194 l 257
 455 194 l 257
 455 703 l 257
 252 703 l 257
252 782 m 257
 252 582 l 257
 1034 582 l 257
 1034 782 l 257
 252 782 l 257
595 689 m 257
 595 374 l 257
 795 374 l 257
 795 689 l 257
 595 689 l 257
EndSplineSet
EndChar

StartChar: uni0933
Encoding: 2355 2355 514
GlifName: uni0933
Width: 1024
VWidth: 0
Flags: W
LayerCount: 2
Fore
SplineSet
-11 1548 m 257
 -11 1344 l 257
 1025 1344 l 257
 1025 1548 l 257
 -11 1548 l 257
900 1548 m 257
 700 1548 l 257
 700 194 l 257
 900 194 l 257
 900 1548 l 257
32 703 m 257
 32 194 l 257
 235 194 l 257
 235 703 l 257
 32 703 l 257
32 782 m 257
 32 582 l 257
 814 582 l 257
 814 782 l 257
 32 782 l 257
375 689 m 257
 375 374 l 257
 575 374 l 257
 575 689 l 257
 375 689 l 257
34 391 m 257
 34 191 l 257
 900 191 l 257
 900 391 l 257
 34 391 l 257
EndSplineSet
EndChar

StartChar: uni0933_uni0930_uni094D.vatu
Encoding: 65639 -1 515
GlifName: uni0933_uni0930_uni094D_.vatu
Width: 1024
VWidth: 0
Flags: W
LayerCount: 2
Fore
SplineSet
340 16 m 257
 564 -364 l 257
 846 -364 l 257
 462 185 l 257
 340 16 l 257
462 185 m 257
 55 -373 l 257
 276 -373 l 257
 577 20 l 257
 462 185 l 257
-11 1548 m 257
 -11 1344 l 257
 1025 1344 l 257
 1025 1548 l 257
 -11 1548 l 257
900 1548 m 257
 700 1548 l 257
 700 194 l 257
 900 194 l 257
 900 1548 l 257
32 703 m 257
 32 194 l 257
 235 194 l 257
 235 703 l 257
 32 703 l 257
32 782 m 257
 32 582 l 257
 814 582 l 257
 814 782 l 257
 32 782 l 257
375 689 m 257
 375 374 l 257
 575 374 l 257
 575 689 l 257
 375 689 l 257
34 391 m 257
 34 191 l 257
 900 191 l 257
 900 391 l 257
 34 391 l 257
EndSplineSet
EndChar

StartChar: uni0933_uni094D.half
Encoding: 65640 -1 516
GlifName: uni0933_uni094D_.half
Width: 1024
VWidth: 0
Flags: W
LayerCount: 2
Fore
SplineSet
-11 1548 m 257
 -11 1344 l 257
 1025 1344 l 257
 1025 1548 l 257
 -11 1548 l 257
900 785 m 257
 700 785 l 257
 700 194 l 257
 900 194 l 257
 900 785 l 257
32 703 m 257
 32 194 l 257
 235 194 l 257
 235 703 l 257
 32 703 l 257
32 782 m 257
 32 582 l 257
 814 582 l 257
 814 782 l 257
 32 782 l 257
375 689 m 257
 375 374 l 257
 575 374 l 257
 575 689 l 257
 375 689 l 257
34 391 m 257
 34 191 l 257
 900 191 l 257
 900 391 l 257
 34 391 l 257
EndSplineSet
EndChar

StartChar: uni0934
Encoding: 2356 2356 518
GlifName: uni0934
Width: 1024
VWidth: 0
Flags: W
LayerCount: 2
Fore
SplineSet
-11 1548 m 257
 -11 1344 l 257
 1025 1344 l 257
 1025 1548 l 257
 -11 1548 l 257
900 1548 m 257
 700 1548 l 257
 700 194 l 257
 900 194 l 257
 900 1548 l 257
32 703 m 257
 32 194 l 257
 235 194 l 257
 235 703 l 257
 32 703 l 257
32 782 m 257
 32 582 l 257
 814 582 l 257
 814 782 l 257
 32 782 l 257
375 689 m 257
 375 374 l 257
 575 374 l 257
 575 689 l 257
 375 689 l 257
34 391 m 257
 34 191 l 257
 900 191 l 257
 900 391 l 257
 34 391 l 257
602 -54 m 257
 602 -301 l 257
 866 -301 l 257
 866 -54 l 257
 602 -54 l 257
EndSplineSet
EndChar

StartChar: uni0934_uni0930_uni094D.vatu
Encoding: 65642 -1 519
GlifName: uni0934_uni0930_uni094D_.vatu
Width: 1024
VWidth: 0
Flags: W
LayerCount: 2
Fore
SplineSet
406 -18 m 257
 630 -398 l 257
 912 -398 l 257
 528 151 l 257
 406 -18 l 257
528 151 m 257
 121 -407 l 257
 342 -407 l 257
 643 -14 l 257
 528 151 l 257
-11 1548 m 257
 -11 1344 l 257
 1025 1344 l 257
 1025 1548 l 257
 -11 1548 l 257
900 1548 m 257
 700 1548 l 257
 700 194 l 257
 900 194 l 257
 900 1548 l 257
32 703 m 257
 32 194 l 257
 235 194 l 257
 235 703 l 257
 32 703 l 257
32 782 m 257
 32 582 l 257
 814 582 l 257
 814 782 l 257
 32 782 l 257
375 689 m 257
 375 374 l 257
 575 374 l 257
 575 689 l 257
 375 689 l 257
34 391 m 257
 34 191 l 257
 900 191 l 257
 900 391 l 257
 34 391 l 257
21 136 m 257
 21 -111 l 257
 285 -111 l 257
 285 136 l 257
 21 136 l 257
EndSplineSet
EndChar

StartChar: uni0934_uni094D.half
Encoding: 65643 -1 520
GlifName: uni0934_uni094D_.half
Width: 1024
VWidth: 0
Flags: W
LayerCount: 2
Fore
SplineSet
-11 1548 m 257
 -11 1344 l 257
 1025 1344 l 257
 1025 1548 l 257
 -11 1548 l 257
900 782 m 257
 700 782 l 257
 700 194 l 257
 900 194 l 257
 900 782 l 257
32 703 m 257
 32 194 l 257
 235 194 l 257
 235 703 l 257
 32 703 l 257
32 782 m 257
 32 582 l 257
 814 582 l 257
 814 782 l 257
 32 782 l 257
375 689 m 257
 375 374 l 257
 575 374 l 257
 575 689 l 257
 375 689 l 257
34 391 m 257
 34 191 l 257
 900 191 l 257
 900 391 l 257
 34 391 l 257
602 -54 m 257
 602 -301 l 257
 866 -301 l 257
 866 -54 l 257
 602 -54 l 257
EndSplineSet
EndChar

StartChar: uni0935
Encoding: 2357 2357 522
GlifName: uni0935
Width: 1024
VWidth: 0
Flags: W
LayerCount: 2
Fore
SplineSet
0 1548 m 257
 0 1351 l 257
 1027 1351 l 257
 1027 1548 l 257
 0 1548 l 257
662 1437 m 257
 662 0 l 257
 862 0 l 257
 862 1437 l 257
 662 1437 l 257
76 1023 m 257
 76 232 l 257
 276 232 l 257
 276 1023 l 257
 76 1023 l 257
77 404 m 257
 77 204 l 257
 812 204 l 257
 812 404 l 257
 77 404 l 257
75 1037 m 257
 75 820 l 257
 613 820 l 257
 613 1037 l 257
 75 1037 l 257
EndSplineSet
EndChar

StartChar: uni0935_uni0930_uni094D.vatu
Encoding: 65645 -1 523
GlifName: uni0935_uni0930_uni094D_.vatu
Width: 1024
VWidth: 0
Flags: W
LayerCount: 2
Fore
SplineSet
182 0 m 257
 439 0 l 257
 779 215 l 257
 779 416 l 257
 182 0 l 257
0 1548 m 257
 0 1351 l 257
 1027 1351 l 257
 1027 1548 l 257
 0 1548 l 257
662 1437 m 257
 662 0 l 257
 862 0 l 257
 862 1437 l 257
 662 1437 l 257
76 1023 m 257
 76 320 l 257
 276 320 l 257
 276 1023 l 257
 76 1023 l 257
77 492 m 257
 77 292 l 257
 812 292 l 257
 812 492 l 257
 77 492 l 257
75 1037 m 257
 75 820 l 257
 613 820 l 257
 613 1037 l 257
 75 1037 l 257
EndSplineSet
EndChar

StartChar: uni0935_uni094D.half
Encoding: 65646 -1 524
GlifName: uni0935_uni094D_.half
Width: 1024
VWidth: 0
Flags: W
LayerCount: 2
Fore
SplineSet
0 1548 m 257
 0 1351 l 257
 1027 1351 l 257
 1027 1548 l 257
 0 1548 l 257
316 1023 m 257
 316 232 l 257
 516 232 l 257
 516 1023 l 257
 316 1023 l 257
317 404 m 257
 317 204 l 257
 1052 204 l 257
 1052 404 l 257
 317 404 l 257
315 1037 m 257
 315 820 l 257
 853 820 l 257
 853 1037 l 257
 315 1037 l 257
EndSplineSet
EndChar

StartChar: uni0936
Encoding: 2358 2358 526
GlifName: uni0936
Width: 1024
VWidth: 0
Flags: W
LayerCount: 2
Fore
SplineSet
647 1548 m 257
 647 1349 l 257
 1024 1349 l 257
 1024 1548 l 257
 647 1548 l 257
774 1520 m 257
 774 0 l 257
 975 0 l 257
 975 1520 l 257
 774 1520 l 257
100 1543 m 257
 100 1224 l 257
 300 1224 l 257
 300 1543 l 257
 100 1543 l 257
100 1548 m 257
 100 1348 l 257
 531 1348 l 257
 531 1548 l 257
 100 1548 l 257
407 1548 m 257
 407 816 l 257
 607 816 l 257
 607 1548 l 257
 407 1548 l 257
163 1023 m 257
 163 816 l 257
 598 816 l 257
 598 1023 l 257
 163 1023 l 257
160 822 m 257
 480 8 l 257
 647 68 l 257
 327 882 l 257
 160 822 l 257
EndSplineSet
EndChar

StartChar: uni0936_uni0930_uni094D.vatu
Encoding: 65648 -1 527
GlifName: uni0936_uni0930_uni094D_.vatu
Width: 1024
VWidth: 0
Flags: W
LayerCount: 2
Fore
SplineSet
182 0 m 257
 439 0 l 257
 779 355 l 257
 779 556 l 257
 182 0 l 257
771 1548 m 257
 771 1349 l 257
 1024 1349 l 257
 1024 1548 l 257
 771 1548 l 257
774 1520 m 257
 774 0 l 257
 975 0 l 257
 975 1520 l 257
 774 1520 l 257
100 1543 m 257
 100 1224 l 257
 300 1224 l 257
 300 1543 l 257
 100 1543 l 257
100 1548 m 257
 100 1348 l 257
 531 1348 l 257
 531 1548 l 257
 100 1548 l 257
407 1548 m 257
 407 961 l 257
 607 961 l 257
 607 1548 l 257
 407 1548 l 257
63 734 m 257
 209 588 l 257
 517 896 l 257
 370 1042 l 257
 63 734 l 257
115 1235 m 257
 773 658 l 257
 894 788 l 257
 236 1365 l 257
 115 1235 l 257
EndSplineSet
EndChar

StartChar: uni0936_uni094D.half
Encoding: 65649 -1 528
GlifName: uni0936_uni094D_.half
Width: 1024
VWidth: 0
Flags: W
LayerCount: 2
Fore
SplineSet
400 1543 m 257
 400 1224 l 257
 600 1224 l 257
 600 1543 l 257
 400 1543 l 257
400 1548 m 257
 400 1348 l 257
 831 1348 l 257
 831 1548 l 257
 400 1548 l 257
707 1548 m 257
 707 816 l 257
 907 816 l 257
 907 1548 l 257
 707 1548 l 257
463 1023 m 257
 463 816 l 257
 898 816 l 257
 898 1023 l 257
 463 1023 l 257
460 822 m 257
 780 8 l 257
 947 68 l 257
 627 882 l 257
 460 822 l 257
EndSplineSet
EndChar

StartChar: uni0937
Encoding: 2359 2359 530
GlifName: uni0937
Width: 1024
VWidth: 0
Flags: W
LayerCount: 2
Fore
SplineSet
-8 1548 m 257
 -8 1350 l 257
 1031 1350 l 257
 1031 1548 l 257
 -8 1548 l 257
691 1537 m 257
 691 0 l 257
 891 0 l 257
 891 1537 l 257
 691 1537 l 257
94 1548 m 257
 94 965 l 257
 293 965 l 257
 293 1548 l 257
 94 1548 l 257
94 1023 m 257
 94 824 l 257
 857 824 l 257
 857 1023 l 257
 94 1023 l 257
97 1362 m 257
 690 981 l 257
 891 981 l 257
 291 1362 l 257
 97 1362 l 257
EndSplineSet
EndChar

StartChar: uni0937_uni0930_uni094D.vatu
Encoding: 65651 -1 531
GlifName: uni0937_uni0930_uni094D_.vatu
Width: 1024
VWidth: 0
Flags: W
LayerCount: 2
Fore
SplineSet
182 0 m 257
 439 0 l 257
 779 215 l 257
 779 416 l 257
 182 0 l 257
-8 1548 m 257
 -8 1350 l 257
 1031 1350 l 257
 1031 1548 l 257
 -8 1548 l 257
691 1537 m 257
 691 0 l 257
 891 0 l 257
 891 1537 l 257
 691 1537 l 257
94 1548 m 257
 94 965 l 257
 293 965 l 257
 293 1548 l 257
 94 1548 l 257
94 1023 m 257
 94 824 l 257
 857 824 l 257
 857 1023 l 257
 94 1023 l 257
97 1362 m 257
 690 981 l 257
 891 981 l 257
 291 1362 l 257
 97 1362 l 257
EndSplineSet
EndChar

StartChar: uni0937_uni094D.half
Encoding: 65652 -1 532
GlifName: uni0937_uni094D_.half
Width: 1024
VWidth: 0
Flags: W
LayerCount: 2
Fore
SplineSet
-8 1548 m 257
 -8 1350 l 257
 1031 1350 l 257
 1031 1548 l 257
 -8 1548 l 257
294 1548 m 257
 294 965 l 257
 493 965 l 257
 493 1548 l 257
 294 1548 l 257
294 1023 m 257
 294 824 l 257
 1057 824 l 257
 1057 1023 l 257
 294 1023 l 257
297 1362 m 257
 890 981 l 257
 1091 981 l 257
 491 1362 l 257
 297 1362 l 257
EndSplineSet
EndChar

StartChar: uni0938
Encoding: 2360 2360 534
GlifName: uni0938
Width: 1024
VWidth: 0
Flags: W
LayerCount: 2
Fore
SplineSet
0 1548 m 257
 0 1350 l 257
 1030 1350 l 257
 1030 1548 l 257
 0 1548 l 257
716 1548 m 257
 716 0 l 257
 916 0 l 257
 916 1548 l 257
 716 1548 l 257
156 1509 m 257
 156 729 l 257
 355 729 l 257
 355 1509 l 257
 156 1509 l 257
156 858 m 257
 156 659 l 257
 864 659 l 257
 864 858 l 257
 156 858 l 257
156 658 m 257
 483 0 l 257
 680 0 l 257
 346 742 l 257
 156 658 l 257
EndSplineSet
EndChar

StartChar: uni0938_uni0930_uni094D.vatu
Encoding: 65654 -1 535
GlifName: uni0938_uni0930_uni094D_.vatu
Width: 1024
VWidth: 0
Flags: W
LayerCount: 2
Fore
SplineSet
387 0 m 257
 644 0 l 257
 779 215 l 257
 779 416 l 257
 387 0 l 257
0 1548 m 257
 0 1350 l 257
 1030 1350 l 257
 1030 1548 l 257
 0 1548 l 257
716 1548 m 257
 716 0 l 257
 916 0 l 257
 916 1548 l 257
 716 1548 l 257
156 1509 m 257
 156 729 l 257
 355 729 l 257
 355 1509 l 257
 156 1509 l 257
156 858 m 257
 156 659 l 257
 864 659 l 257
 864 858 l 257
 156 858 l 257
156 658 m 257
 238 102 l 257
 435 102 l 257
 346 742 l 257
 156 658 l 257
EndSplineSet
EndChar

StartChar: uni0938_uni094D.half
Encoding: 65655 -1 536
GlifName: uni0938_uni094D_.half
Width: 1024
VWidth: 0
Flags: W
LayerCount: 2
Fore
SplineSet
0 1548 m 257
 0 1350 l 257
 1030 1350 l 257
 1030 1548 l 257
 0 1548 l 257
356 1509 m 257
 356 729 l 257
 555 729 l 257
 555 1509 l 257
 356 1509 l 257
356 858 m 257
 356 659 l 257
 1064 659 l 257
 1064 858 l 257
 356 858 l 257
356 658 m 257
 683 0 l 257
 880 0 l 257
 546 742 l 257
 356 658 l 257
EndSplineSet
EndChar

StartChar: uni0939
Encoding: 2361 2361 538
GlifName: uni0939
Width: 1024
VWidth: 0
Flags: W
LayerCount: 2
Fore
SplineSet
-6 1548 m 257
 -6 1351 l 257
 1025 1351 l 257
 1025 1548 l 257
 -6 1548 l 257
453 1510 m 257
 453 1174 l 257
 650 1174 l 257
 650 1510 l 257
 453 1510 l 257
655 1196 m 257
 322 1196 l 257
 322 996 l 257
 655 996 l 257
 655 1196 l 257
194 1195 m 257
 194 785 l 257
 395 785 l 257
 395 1195 l 257
 194 1195 l 257
501 789 m 257
 501 577 l 257
 699 577 l 257
 699 789 l 257
 501 789 l 257
139 841 m 257
 139 643 l 257
 699 643 l 257
 699 841 l 257
 139 841 l 257
139 793 m 257
 139 215 l 257
 339 215 l 257
 339 793 l 257
 139 793 l 257
338 215 m 257
 139 215 l 257
 389 0 l 257
 596 0 l 257
 338 215 l 257
EndSplineSet
EndChar

StartChar: uni0939_uni0930_uni094D.vatu
Encoding: 65657 -1 539
GlifName: uni0939_uni0930_uni094D_.vatu
Width: 1024
VWidth: 0
Flags: W
LayerCount: 2
Fore
SplineSet
366 227 m 257
 623 227 l 257
 779 439 l 257
 779 640 l 257
 366 227 l 257
-6 1548 m 257
 -6 1351 l 257
 1025 1351 l 257
 1025 1548 l 257
 -6 1548 l 257
453 1510 m 257
 453 1174 l 257
 650 1174 l 257
 650 1510 l 257
 453 1510 l 257
655 1196 m 257
 322 1196 l 257
 322 996 l 257
 655 996 l 257
 655 1196 l 257
194 1195 m 257
 194 785 l 257
 395 785 l 257
 395 1195 l 257
 194 1195 l 257
655 653 m 257
 655 441 l 257
 853 441 l 257
 853 653 l 257
 655 653 l 257
139 841 m 257
 139 640 l 257
 853 640 l 257
 853 841 l 257
 139 841 l 257
139 793 m 257
 139 215 l 257
 339 215 l 257
 339 793 l 257
 139 793 l 257
338 215 m 257
 139 215 l 257
 389 0 l 257
 596 0 l 257
 338 215 l 257
EndSplineSet
EndChar

StartChar: uni0939_uni0943.blws
Encoding: 65658 -1 540
GlifName: uni0939_uni0943.blws
Width: 1024
VWidth: 0
Flags: W
LayerCount: 2
Fore
SplineSet
509 756 m 257
 509 306 l 257
 709 306 l 257
 709 756 l 257
 509 756 l 257
581 506 m 257
 581 306 l 257
 857 306 l 257
 857 506 l 257
 581 506 l 257
-6 1548 m 257
 -6 1348 l 257
 1025 1348 l 257
 1025 1548 l 257
 -6 1548 l 257
453 1510 m 257
 453 1174 l 257
 650 1174 l 257
 650 1510 l 257
 453 1510 l 257
650 1196 m 257
 322 1196 l 257
 322 996 l 257
 650 996 l 257
 650 1196 l 257
194 1195 m 257
 194 785 l 257
 395 785 l 257
 395 1195 l 257
 194 1195 l 257
139 841 m 257
 139 643 l 257
 806 643 l 257
 806 841 l 257
 139 841 l 257
139 793 m 257
 139 215 l 257
 339 215 l 257
 339 793 l 257
 139 793 l 257
338 215 m 257
 139 215 l 257
 389 0 l 257
 596 0 l 257
 338 215 l 257
EndSplineSet
EndChar

StartChar: uni0939_uni094D.half
Encoding: 65659 -1 541
GlifName: uni0939_uni094D_.half
Width: 1024
VWidth: 0
Flags: W
LayerCount: 2
Fore
SplineSet
-6 1548 m 257
 -6 1351 l 257
 1025 1351 l 257
 1025 1548 l 257
 -6 1548 l 257
653 1510 m 257
 653 1174 l 257
 850 1174 l 257
 850 1510 l 257
 653 1510 l 257
855 1196 m 257
 522 1196 l 257
 522 996 l 257
 855 996 l 257
 855 1196 l 257
394 1195 m 257
 394 785 l 257
 595 785 l 257
 595 1195 l 257
 394 1195 l 257
339 841 m 257
 339 643 l 257
 1099 643 l 257
 1099 841 l 257
 339 841 l 257
339 793 m 257
 339 215 l 257
 539 215 l 257
 539 793 l 257
 339 793 l 257
538 215 m 257
 339 215 l 257
 589 0 l 257
 796 0 l 257
 538 215 l 257
EndSplineSet
EndChar

StartChar: uni0939_uni094D_uni092E.pres
Encoding: 65661 -1 543
GlifName: uni0939_uni094D__uni092E_.pres
Width: 1024
VWidth: 0
Flags: W
LayerCount: 2
Fore
SplineSet
-6 1548 m 257
 -6 1351 l 257
 1025 1351 l 257
 1025 1548 l 257
 -6 1548 l 257
453 1510 m 257
 453 1174 l 257
 650 1174 l 257
 650 1510 l 257
 453 1510 l 257
655 1196 m 257
 322 1196 l 257
 322 996 l 257
 655 996 l 257
 655 1196 l 257
194 1195 m 257
 194 785 l 257
 395 785 l 257
 395 1195 l 257
 194 1195 l 257
529 841 m 257
 529 82 l 257
 727 82 l 257
 727 841 l 257
 529 841 l 257
29 841 m 257
 29 643 l 257
 699 643 l 257
 699 841 l 257
 29 841 l 257
29 793 m 257
 29 316 l 257
 229 316 l 257
 229 793 l 257
 29 793 l 257
397 169 m 257
 397 0 l 257
 728 0 l 257
 728 169 l 257
 397 169 l 257
309 473 m 257
 309 0 l 257
 495 0 l 257
 495 473 l 257
 309 473 l 257
756 1543 m 257
 756 0 l 257
 955 0 l 257
 955 1543 l 257
 756 1543 l 257
455 473 m 257
 455 273 l 257
 831 273 l 257
 831 473 l 257
 455 473 l 257
235 316 m 257
 29 316 l 257
 187 0 l 257
 263 8 l 257
 235 316 l 257
EndSplineSet
EndChar

StartChar: uni093A
Encoding: 2362 2362 544
GlifName: uni093A_
Width: 1024
VWidth: 0
Flags: W
LayerCount: 2
Fore
SplineSet
0 1633 m 257
 0 1090 l 257
 170 1090 l 257
 170 1633 l 257
 0 1633 l 257
EndSplineSet
EndChar

StartChar: uni093B
Encoding: 2363 2363 545
GlifName: uni093B_
Width: 1024
VWidth: 0
Flags: W
LayerCount: 2
Fore
SplineSet
412 1819 m 257
 412 0 l 257
 612 0 l 257
 612 1819 l 257
 412 1819 l 257
8 1548 m 257
 8 1350 l 257
 1003 1350 l 257
 1003 1548 l 257
 8 1548 l 257
EndSplineSet
EndChar

StartChar: uni093C
Encoding: 2364 2364 546
GlifName: uni093C_
Width: 1024
VWidth: 0
Flags: W
LayerCount: 2
Fore
SplineSet
-422 -54 m 257
 -422 -301 l 257
 -158 -301 l 257
 -158 -54 l 257
 -422 -54 l 257
EndSplineSet
EndChar

StartChar: uni093D
Encoding: 2365 2365 547
GlifName: uni093D_
Width: 1024
VWidth: 0
Flags: W
LayerCount: 2
Fore
SplineSet
351 1264 m 257
 351 1080 l 257
 876 1080 l 257
 876 1264 l 257
 351 1264 l 257
352 1079 m 257
 656 269 l 257
 846 269 l 257
 553 1079 l 257
 352 1079 l 257
462 269 m 257
 462 104 l 257
 846 104 l 257
 846 269 l 257
 462 269 l 257
162 457 m 257
 463 104 l 257
 463 270 l 257
 307 548 l 257
 162 457 l 257
EndSplineSet
EndChar

StartChar: uni093E
Encoding: 2366 2366 548
GlifName: uni093E_
Width: 1024
VWidth: 0
Flags: W
LayerCount: 2
Fore
SplineSet
0 1548 m 257
 0 1350 l 257
 1029 1350 l 257
 1029 1548 l 257
 0 1548 l 257
412 1514 m 257
 412 0 l 257
 612 0 l 257
 612 1514 l 257
 412 1514 l 257
EndSplineSet
EndChar

StartChar: uni093F
Encoding: 2367 2367 550
GlifName: uni093F_
Width: 1024
VWidth: 0
Flags: W
LayerCount: 2
Fore
SplineSet
13 1548 m 257
 13 1352 l 257
 1022 1352 l 257
 1022 1548 l 257
 13 1548 l 257
353 1784 m 257
 353 0 l 257
 552 0 l 257
 552 1784 l 257
 353 1784 l 257
350 1933 m 257
 350 1733 l 257
 1146 1733 l 257
 1146 1933 l 257
 350 1933 l 257
949 1909 m 257
 949 1621 l 257
 1149 1621 l 257
 1149 1909 l 257
 949 1909 l 257
EndSplineSet
EndChar

StartChar: uni0940
Encoding: 2368 2368 551
GlifName: uni0940
Width: 1024
VWidth: 0
Flags: W
LayerCount: 2
Fore
SplineSet
0 1548 m 257
 0 1350 l 257
 1023 1350 l 257
 1023 1548 l 257
 0 1548 l 257
423 1748 m 257
 423 12 l 257
 622 12 l 257
 622 1748 l 257
 423 1748 l 257
622 1694 m 257
 622 1895 l 257
 -232 1895 l 257
 -232 1694 l 257
 622 1694 l 257
-243 1895 m 257
 -243 1563 l 257
 -44 1563 l 257
 -44 1895 l 257
 -243 1895 l 257
EndSplineSet
EndChar

StartChar: uni0941
Encoding: 2369 2369 554
GlifName: uni0941
Width: 1024
VWidth: 0
Flags: W
LayerCount: 2
Fore
SplineSet
-12 1548 m 257
 -12 1350 l 257
 1032 1350 l 257
 1032 1548 l 257
 -12 1548 l 257
-180 -23 m 257
 -180 -222 l 257
 249 -222 l 257
 249 -23 l 257
 -180 -23 l 257
49 -40 m 257
 49 -458 l 257
 249 -458 l 257
 249 -40 l 257
 49 -40 l 257
-449 -351 m 257
 -449 -550 l 257
 250 -550 l 257
 250 -351 l 257
 -449 -351 l 257
-449 -183 m 257
 -449 -448 l 257
 -249 -448 l 257
 -249 -183 l 257
 -449 -183 l 257
EndSplineSet
EndChar

StartChar: uni0942
Encoding: 2370 2370 557
GlifName: uni0942
Width: 1024
VWidth: 0
Flags: W
LayerCount: 2
Fore
SplineSet
-11 1548 m 257
 -11 1353 l 257
 1023 1353 l 257
 1023 1548 l 257
 -11 1548 l 257
-36 -485 m 257
 -36 -285 l 257
 -350 -285 l 257
 -350 -485 l 257
 -36 -485 l 257
-149 -289 m 257
 -149 0 l 257
 -350 0 l 257
 -350 -289 l 257
 -149 -289 l 257
-350 0 m 257
 -350 -199 l 257
 66 -199 l 257
 66 0 l 257
 -350 0 l 257
66 -196 m 257
 320 -406 l 257
 583 -406 l 257
 66 0 l 257
 66 -196 l 257
EndSplineSet
EndChar

StartChar: uni0943
Encoding: 2371 2371 560
GlifName: uni0943
Width: 1024
VWidth: 0
Flags: W
LayerCount: 2
Fore
SplineSet
0 1548 m 257
 0 1349 l 257
 1031 1349 l 257
 1031 1548 l 257
 0 1548 l 257
-7 9 m 257
 -389 -133 l 257
 -319 -320 l 257
 62 -178 l 257
 -7 9 l 257
-389 -132 m 257
 -211 -611 l 257
 -23 -541 l 257
 -201 -62 l 257
 -389 -132 l 257
-269 -455 m 257
 -199 -643 l 257
 262 -471 l 257
 192 -284 l 257
 -269 -455 l 257
EndSplineSet
EndChar

StartChar: uni0944
Encoding: 2372 2372 563
GlifName: uni0944
Width: 1024
VWidth: 0
Flags: W
LayerCount: 2
Fore
SplineSet
-13 1548 m 257
 -13 1347 l 257
 1029 1347 l 257
 1029 1548 l 257
 -13 1548 l 257
-115 0 m 257
 -460 0 l 257
 -460 -196 l 257
 -115 -196 l 257
 -115 0 l 257
-515 0 m 257
 -515 -872 l 257
 -315 -872 l 257
 -315 0 l 257
 -515 0 l 257
-450 -321 m 257
 -450 -522 l 257
 -89 -522 l 257
 -89 -321 l 257
 -450 -321 l 257
-443 -672 m 257
 -443 -872 l 257
 -76 -872 l 257
 -76 -672 l 257
 -443 -672 l 257
EndSplineSet
EndChar

StartChar: uni0945
Encoding: 2373 2373 566
GlifName: uni0945
Width: 1024
VWidth: 0
Flags: W
LayerCount: 2
Fore
SplineSet
0 1553 m 257
 0 1354 l 257
 1026 1354 l 257
 1026 1553 l 257
 0 1553 l 257
-522 2124 m 257
 -522 1639 l 257
 -320 1639 l 257
 -320 2124 l 257
 -522 2124 l 257
-333 1841 m 257
 -333 1641 l 257
 261 1641 l 257
 261 1841 l 257
 -333 1841 l 257
225 2132 m 257
 225 1641 l 257
 425 1641 l 257
 425 2132 l 257
 225 2132 l 257
EndSplineSet
EndChar

StartChar: uni0946
Encoding: 2374 2374 569
GlifName: uni0946
Width: 1024
VWidth: 0
Flags: W
LayerCount: 2
Fore
SplineSet
-9 1548 m 257
 -9 1350 l 257
 1026 1350 l 257
 1026 1548 l 257
 -9 1548 l 257
-450 2123 m 257
 -450 1823 l 257
 -250 1823 l 257
 -250 2123 l 257
 -450 2123 l 257
-451 1963 m 257
 -451 1763 l 257
 232 1763 l 257
 232 1963 l 257
 -451 1963 l 257
32 1858 m 257
 32 1537 l 257
 232 1537 l 257
 232 1858 l 257
 32 1858 l 257
EndSplineSet
EndChar

StartChar: uni0947
Encoding: 2375 2375 572
GlifName: uni0947
Width: 1024
VWidth: 0
Flags: W
LayerCount: 2
Fore
SplineSet
-9 1548 m 257
 -9 1350 l 257
 1026 1350 l 257
 1026 1548 l 257
 -9 1548 l 257
-305 1919 m 257
 66 1447 l 257
 225 1555 l 257
 -124 2044 l 257
 -305 1919 l 257
EndSplineSet
EndChar

StartChar: uni0948
Encoding: 2376 2376 575
GlifName: uni0948
Width: 1024
VWidth: 0
Flags: W
LayerCount: 2
Fore
SplineSet
0 1548 m 257
 0 1343 l 257
 1022 1343 l 257
 1022 1548 l 257
 0 1548 l 257
-191 1750 m 257
 89 1548 l 257
 381 1548 l 257
 -55 1903 l 257
 -191 1750 l 257
198 1949 m 257
 261 1522 l 257
 473 1548 l 257
 395 1988 l 257
 198 1949 l 257
EndSplineSet
EndChar

StartChar: uni0949
Encoding: 2377 2377 578
GlifName: uni0949
Width: 1024
VWidth: 0
Flags: W
LayerCount: 2
Fore
SplineSet
17 1548 m 257
 17 1347 l 257
 1018 1347 l 257
 1018 1548 l 257
 17 1548 l 257
412 1504 m 257
 412 0 l 257
 613 0 l 257
 613 1504 l 257
 412 1504 l 257
125 2085 m 257
 125 1639 l 257
 324 1639 l 257
 324 2085 l 257
 125 2085 l 257
269 1841 m 257
 269 1641 l 257
 760 1641 l 257
 760 1841 l 257
 269 1841 l 257
689 2083 m 257
 689 1641 l 257
 888 1641 l 257
 888 2083 l 257
 689 2083 l 257
EndSplineSet
EndChar

StartChar: uni094A
Encoding: 2378 2378 581
GlifName: uni094A_
Width: 1024
VWidth: 0
Flags: W
LayerCount: 2
Fore
SplineSet
-14 1548 m 257
 -14 1352 l 257
 1020 1352 l 257
 1020 1548 l 257
 -14 1548 l 257
412 1518 m 257
 412 0 l 257
 606 0 l 257
 606 1518 l 257
 412 1518 l 257
-249 2062 m 257
 -249 1823 l 257
 -49 1823 l 257
 -49 2062 l 257
 -249 2062 l 257
-249 1866 m 257
 -249 1665 l 257
 434 1665 l 257
 434 1866 l 257
 -249 1866 l 257
406 1866 m 257
 406 1548 l 257
 605 1548 l 257
 605 1866 l 257
 406 1866 l 257
EndSplineSet
EndChar

StartChar: uni094B
Encoding: 2379 2379 584
GlifName: uni094B_
Width: 1024
VWidth: 0
Flags: W
LayerCount: 2
Fore
SplineSet
0 1548 m 257
 0 1343 l 257
 1026 1343 l 257
 1026 1548 l 257
 0 1548 l 257
414 1423 m 257
 414 5 l 257
 613 5 l 257
 613 1423 l 257
 414 1423 l 257
-162 1999 m 257
 288 1458 l 257
 466 1548 l 257
 15 2092 l 257
 -162 1999 l 257
EndSplineSet
EndChar

StartChar: uni094C
Encoding: 2380 2380 587
GlifName: uni094C_
Width: 1024
VWidth: 0
Flags: W
LayerCount: 2
Fore
SplineSet
13 1548 m 257
 13 1343 l 257
 1025 1343 l 257
 1025 1548 l 257
 13 1548 l 257
420 1419 m 257
 420 0 l 257
 619 0 l 257
 619 1419 l 257
 420 1419 l 257
-335 1805 m 257
 23 1548 l 257
 396 1548 l 257
 -161 2000 l 257
 -335 1805 l 257
213 2058 m 257
 276 1522 l 257
 498 1548 l 257
 410 2107 l 257
 213 2058 l 257
EndSplineSet
EndChar

StartChar: uni094D
Encoding: 2381 2381 590
GlifName: uni094D_
Width: 1024
VWidth: 0
Flags: W
LayerCount: 2
Fore
SplineSet
-553 -22 m 257
 -553 -218 l 257
 -196 -218 l 257
 -196 -22 l 257
 -553 -22 l 257
-337 -183 m 257
 133 -588 l 257
 277 -425 l 257
 -194 -21 l 257
 -337 -183 l 257
0 1548 m 257
 0 1353 l 257
 1026 1353 l 257
 1026 1548 l 257
 0 1548 l 257
EndSplineSet
EndChar

StartChar: uni094E
Encoding: 2382 2382 591
GlifName: uni094E_
Width: 1024
VWidth: 0
Flags: W
LayerCount: 2
Fore
SplineSet
423 1537 m 257
 423 0 l 257
 624 0 l 257
 624 1537 l 257
 423 1537 l 257
436 1548 m 257
 436 1342 l 257
 884 1342 l 257
 884 1548 l 257
 436 1548 l 257
EndSplineSet
EndChar

StartChar: uni094F
Encoding: 2383 2383 592
GlifName: uni094F_
Width: 1024
VWidth: 0
Flags: W
LayerCount: 2
Fore
SplineSet
-37 1555 m 257
 -37 1354 l 257
 1020 1354 l 257
 1020 1555 l 257
 -37 1555 l 257
347 1518 m 257
 347 0 l 257
 549 0 l 257
 549 1518 l 257
 347 1518 l 257
-287 2062 m 257
 -287 1823 l 257
 -88 1823 l 257
 -88 2062 l 257
 -287 2062 l 257
-288 1866 m 257
 -288 1666 l 257
 395 1666 l 257
 395 1866 l 257
 -288 1866 l 257
197 1863 m 257
 197 1548 l 257
 395 1548 l 257
 395 1863 l 257
 197 1863 l 257
260 2450 m 257
 79 2104 l 257
 234 2029 l 257
 424 2355 l 257
 260 2450 l 257
221 2283 m 257
 109 2089 l 257
 651 1816 l 257
 774 1987 l 257
 221 2283 l 257
773 1986 m 257
 442 1528 l 257
 721 1528 l 257
 945 1879 l 257
 773 1986 l 257
EndSplineSet
EndChar

StartChar: uni0950
Encoding: 2384 2384 593
GlifName: uni0950
Width: 1024
VWidth: 0
Flags: W
LayerCount: 2
Fore
SplineSet
801 894 m 257
 801 510 l 257
 1002 510 l 257
 1002 894 l 257
 801 894 l 257
50 1548 m 257
 50 1348 l 257
 428 1348 l 257
 428 1548 l 257
 50 1548 l 257
268 1548 m 257
 268 140 l 257
 468 140 l 257
 468 1548 l 257
 268 1548 l 257
134 894 m 257
 134 693 l 257
 831 693 l 257
 831 894 l 257
 134 894 l 257
25 201 m 257
 25 0 l 257
 466 0 l 257
 466 201 l 257
 25 201 l 257
532 1417 m 257
 532 988 l 257
 633 988 l 257
 633 1417 l 257
 532 1417 l 257
566 1085 m 257
 566 985 l 257
 943 985 l 257
 943 1085 l 257
 566 1085 l 257
862 1420 m 257
 862 985 l 257
 962 985 l 257
 962 1420 l 257
 862 1420 l 257
699 1269 m 257
 699 1188 l 257
 804 1188 l 257
 804 1269 l 257
 699 1269 l 257
EndSplineSet
EndChar

StartChar: uni0951
Encoding: 2385 2385 594
GlifName: uni0951
Width: 1024
VWidth: 0
Flags: W
LayerCount: 2
Fore
SplineSet
-399 2128 m 257
 -399 1738 l 257
 -201 1738 l 257
 -201 2128 l 257
 -399 2128 l 257
EndSplineSet
EndChar

StartChar: uni0952
Encoding: 2386 2386 595
GlifName: uni0952
Width: 1024
VWidth: 0
Flags: W
LayerCount: 2
Fore
SplineSet
-877 -134 m 257
 -877 -285 l 257
 -48 -285 l 257
 -48 -134 l 257
 -877 -134 l 257
EndSplineSet
EndChar

StartChar: uni0953
Encoding: 2387 2387 596
GlifName: uni0953
Width: 1024
VWidth: 0
Flags: W
LayerCount: 2
Fore
SplineSet
-579 1786 m 257
 -249 1318 l 257
 -146 1339 l 257
 -364 1841 l 257
 -579 1786 l 257
EndSplineSet
EndChar

StartChar: uni0954
Encoding: 2388 2388 597
GlifName: uni0954
Width: 1024
VWidth: 0
Flags: W
LayerCount: 2
Fore
SplineSet
-205 1894 m 257
 -359 1376 l 257
 -218 1376 l 257
 27 1850 l 257
 -205 1894 l 257
EndSplineSet
EndChar

StartChar: uni0955
Encoding: 2389 2389 598
GlifName: uni0955
Width: 1024
VWidth: 0
Flags: W
LayerCount: 2
Fore
SplineSet
-9 1553 m 257
 -9 1354 l 257
 1026 1354 l 257
 1026 1553 l 257
 -9 1553 l 257
-386 2190 m 257
 -386 1849 l 257
 -187 1849 l 257
 -187 2190 l 257
 -386 2190 l 257
-340 2047 m 257
 -340 1848 l 257
 254 1848 l 257
 254 2047 l 257
 -340 2047 l 257
79 2190 m 257
 79 1848 l 257
 278 1848 l 257
 278 2190 l 257
 79 2190 l 257
-479 1787 m 257
 -479 1588 l 257
 349 1588 l 257
 349 1787 l 257
 -479 1787 l 257
EndSplineSet
EndChar

StartChar: uni0956
Encoding: 2390 2390 599
GlifName: uni0956
Width: 1024
VWidth: 0
Flags: W
LayerCount: 2
Fore
SplineSet
-9 1553 m 257
 -9 1354 l 257
 1026 1354 l 257
 1026 1553 l 257
 -9 1553 l 257
-766 -58 m 257
 -766 -391 l 257
 -567 -391 l 257
 -567 -58 l 257
 -766 -58 l 257
-574 -191 m 257
 -574 -390 l 257
 20 -390 l 257
 20 -191 l 257
 -574 -191 l 257
-156 -53 m 257
 -156 -391 l 257
 44 -391 l 257
 44 -53 l 257
 -156 -53 l 257
EndSplineSet
EndChar

StartChar: uni0957
Encoding: 2391 2391 600
GlifName: uni0957
Width: 1024
VWidth: 0
Flags: W
LayerCount: 2
Fore
SplineSet
-9 1553 m 257
 -9 1353 l 257
 1026 1353 l 257
 1026 1553 l 257
 -9 1553 l 257
-620 0 m 257
 -620 -236 l 257
 -550 -236 l 257
 -550 0 l 257
 -620 0 l 257
-574 -175 m 257
 -574 -235 l 257
 20 -235 l 257
 20 -175 l 257
 -574 -175 l 257
-15 0 m 257
 -15 -236 l 257
 44 -236 l 257
 44 0 l 257
 -15 0 l 257
-620 -394 m 257
 -620 -639 l 257
 -550 -639 l 257
 -550 -394 l 257
 -620 -394 l 257
-574 -578 m 257
 -574 -638 l 257
 20 -638 l 257
 20 -578 l 257
 -574 -578 l 257
-15 -394 m 257
 -15 -641 l 257
 44 -641 l 257
 44 -394 l 257
 -15 -394 l 257
EndSplineSet
EndChar

StartChar: uni0958
Encoding: 2392 2392 601
GlifName: uni0958
Width: 1024
VWidth: 0
Flags: W
LayerCount: 2
Fore
SplineSet
0 1548 m 257
 0 1347 l 257
 1016 1347 l 257
 1016 1548 l 257
 0 1548 l 257
522 1516 m 257
 522 10 l 257
 722 10 l 257
 722 1516 l 257
 522 1516 l 257
132 1029 m 257
 132 828 l 257
 614 828 l 257
 614 1029 l 257
 132 1029 l 257
135 989 m 257
 135 443 l 257
 333 443 l 257
 333 989 l 257
 135 989 l 257
150 643 m 257
 150 439 l 257
 576 439 l 257
 576 643 l 257
 150 643 l 257
628 874 m 257
 628 675 l 257
 934 675 l 257
 934 874 l 257
 628 874 l 257
785 879 m 257
 785 587 l 257
 984 587 l 257
 984 879 l 257
 785 879 l 257
402 -54 m 257
 402 -301 l 257
 666 -301 l 257
 666 -54 l 257
 402 -54 l 257
EndSplineSet
EndChar

StartChar: uni0958_uni0930_uni094D.vatu
Encoding: 65689 -1 602
GlifName: uni0958_uni0930_uni094D_.vatu
Width: 1024
VWidth: 0
Flags: W
LayerCount: 2
Fore
SplineSet
402 -54 m 257
 402 -301 l 257
 666 -301 l 257
 666 -54 l 257
 402 -54 l 257
-19 0 m 257
 238 0 l 257
 578 215 l 257
 578 416 l 257
 -19 0 l 257
0 1548 m 257
 0 1347 l 257
 1016 1347 l 257
 1016 1548 l 257
 0 1548 l 257
522 1516 m 257
 522 10 l 257
 722 10 l 257
 722 1516 l 257
 522 1516 l 257
132 1029 m 257
 132 828 l 257
 614 828 l 257
 614 1029 l 257
 132 1029 l 257
135 989 m 257
 135 443 l 257
 333 443 l 257
 333 989 l 257
 135 989 l 257
150 643 m 257
 150 439 l 257
 576 439 l 257
 576 643 l 257
 150 643 l 257
628 874 m 257
 628 675 l 257
 934 675 l 257
 934 874 l 257
 628 874 l 257
785 879 m 257
 785 587 l 257
 984 587 l 257
 984 879 l 257
 785 879 l 257
EndSplineSet
EndChar

StartChar: uni0958_uni094D.half
Encoding: 65690 -1 603
GlifName: uni0958_uni094D_.half
Width: 1024
VWidth: 0
Flags: W
LayerCount: 2
Fore
SplineSet
0 1548 m 257
 0 1347 l 257
 1016 1347 l 257
 1016 1548 l 257
 0 1548 l 257
522 1516 m 257
 522 10 l 257
 722 10 l 257
 722 1516 l 257
 522 1516 l 257
132 1029 m 257
 132 828 l 257
 614 828 l 257
 614 1029 l 257
 132 1029 l 257
135 989 m 257
 135 443 l 257
 333 443 l 257
 333 989 l 257
 135 989 l 257
150 643 m 257
 150 439 l 257
 576 439 l 257
 576 643 l 257
 150 643 l 257
628 874 m 257
 628 675 l 257
 1034 675 l 257
 1034 874 l 257
 628 874 l 257
402 -54 m 257
 402 -301 l 257
 666 -301 l 257
 666 -54 l 257
 402 -54 l 257
EndSplineSet
EndChar

StartChar: uni0959
Encoding: 2393 2393 605
GlifName: uni0959
Width: 1024
VWidth: 0
Flags: W
LayerCount: 2
Fore
SplineSet
-7 1548 m 257
 -7 1349 l 257
 1023 1349 l 257
 1023 1548 l 257
 -7 1548 l 257
690 1514 m 257
 690 0 l 257
 890 0 l 257
 890 1514 l 257
 690 1514 l 257
429 979 m 257
 429 779 l 257
 657 779 l 257
 657 979 l 257
 429 979 l 257
399 979 m 257
 399 457 l 257
 599 457 l 257
 599 979 l 257
 399 979 l 257
399 568 m 257
 399 368 l 257
 742 368 l 257
 742 568 l 257
 399 568 l 257
114 1441 m 257
 114 120 l 257
 314 120 l 257
 314 1441 l 257
 114 1441 l 257
9 734 m 257
 9 534 l 257
 313 534 l 257
 313 734 l 257
 9 734 l 257
113 270 m 257
 113 70 l 257
 827 70 l 257
 827 270 l 257
 113 270 l 257
402 -54 m 257
 402 -301 l 257
 666 -301 l 257
 666 -54 l 257
 402 -54 l 257
EndSplineSet
EndChar

StartChar: uni0959_uni0930_uni094D.vatu
Encoding: 65692 -1 606
GlifName: uni0959_uni0930_uni094D_.vatu
Width: 1024
VWidth: 0
Flags: W
LayerCount: 2
Fore
SplineSet
402 -54 m 257
 402 -301 l 257
 666 -301 l 257
 666 -54 l 257
 402 -54 l 257
75 0 m 257
 332 0 l 257
 672 215 l 257
 672 416 l 257
 75 0 l 257
-7 1548 m 257
 -7 1349 l 257
 1023 1349 l 257
 1023 1548 l 257
 -7 1548 l 257
690 1514 m 257
 690 0 l 257
 890 0 l 257
 890 1514 l 257
 690 1514 l 257
429 1145 m 257
 429 945 l 257
 657 945 l 257
 657 1145 l 257
 429 1145 l 257
399 1145 m 257
 399 623 l 257
 599 623 l 257
 599 1145 l 257
 399 1145 l 257
399 734 m 257
 399 534 l 257
 742 534 l 257
 742 734 l 257
 399 734 l 257
114 1441 m 257
 114 286 l 257
 314 286 l 257
 314 1441 l 257
 114 1441 l 257
9 900 m 257
 9 700 l 257
 313 700 l 257
 313 900 l 257
 9 900 l 257
113 436 m 257
 113 236 l 257
 827 236 l 257
 827 436 l 257
 113 436 l 257
EndSplineSet
EndChar

StartChar: uni0959_uni094D.half
Encoding: 65693 -1 607
GlifName: uni0959_uni094D_.half
Width: 1024
VWidth: 0
Flags: W
LayerCount: 2
Fore
SplineSet
-7 1548 m 257
 -7 1349 l 257
 1023 1349 l 257
 1023 1548 l 257
 -7 1548 l 257
629 979 m 257
 629 779 l 257
 857 779 l 257
 857 979 l 257
 629 979 l 257
599 979 m 257
 599 457 l 257
 799 457 l 257
 799 979 l 257
 599 979 l 257
599 568 m 257
 599 368 l 257
 1042 368 l 257
 1042 568 l 257
 599 568 l 257
314 1441 m 257
 314 120 l 257
 514 120 l 257
 514 1441 l 257
 314 1441 l 257
9 734 m 257
 9 534 l 257
 513 534 l 257
 513 734 l 257
 9 734 l 257
313 270 m 257
 313 70 l 257
 1027 70 l 257
 1027 270 l 257
 313 270 l 257
602 -54 m 257
 602 -301 l 257
 866 -301 l 257
 866 -54 l 257
 602 -54 l 257
EndSplineSet
EndChar

StartChar: uni095A
Encoding: 2394 2394 609
GlifName: uni095A_
Width: 1024
VWidth: 0
Flags: W
LayerCount: 2
Fore
SplineSet
102 853 m 257
 301 853 l 257
 301 1044 l 257
 102 1044 l 257
 102 853 l 257
102 882 m 257
 102 683 l 257
 578 683 l 257
 578 882 l 257
 102 882 l 257
379 1548 m 257
 379 812 l 257
 578 812 l 257
 578 1548 l 257
 379 1548 l 257
1012 1548 m 257
 261 1548 l 257
 261 1348 l 257
 1012 1348 l 257
 1012 1548 l 257
732 1523 m 257
 732 0 l 257
 931 0 l 257
 931 1523 l 257
 732 1523 l 257
402 -54 m 257
 402 -301 l 257
 666 -301 l 257
 666 -54 l 257
 402 -54 l 257
EndSplineSet
EndChar

StartChar: uni095A_uni0930_uni094D.vatu
Encoding: 65695 -1 610
GlifName: uni095A__uni0930_uni094D_.vatu
Width: 1024
VWidth: 0
Flags: W
LayerCount: 2
Fore
SplineSet
200 572 m 257
 200 325 l 257
 465 325 l 257
 465 572 l 257
 200 572 l 257
153 0 m 257
 410 0 l 257
 750 215 l 257
 750 416 l 257
 153 0 l 257
102 853 m 257
 301 853 l 257
 301 1044 l 257
 102 1044 l 257
 102 853 l 257
102 882 m 257
 102 683 l 257
 578 683 l 257
 578 882 l 257
 102 882 l 257
379 1548 m 257
 379 812 l 257
 578 812 l 257
 578 1548 l 257
 379 1548 l 257
1012 1548 m 257
 261 1548 l 257
 261 1348 l 257
 1012 1348 l 257
 1012 1548 l 257
732 1523 m 257
 732 0 l 257
 931 0 l 257
 931 1523 l 257
 732 1523 l 257
EndSplineSet
EndChar

StartChar: uni095A_uni094D.half
Encoding: 65696 -1 611
GlifName: uni095A__uni094D_.half
Width: 1024
VWidth: 0
Flags: W
LayerCount: 2
Fore
SplineSet
102 853 m 257
 301 853 l 257
 301 1044 l 257
 102 1044 l 257
 102 853 l 257
102 882 m 257
 102 683 l 257
 578 683 l 257
 578 882 l 257
 102 882 l 257
379 1548 m 257
 379 812 l 257
 578 812 l 257
 578 1548 l 257
 379 1548 l 257
1012 1548 m 257
 261 1548 l 257
 261 1348 l 257
 1012 1348 l 257
 1012 1548 l 257
402 -54 m 257
 402 -301 l 257
 666 -301 l 257
 666 -54 l 257
 402 -54 l 257
EndSplineSet
EndChar

StartChar: uni095B
Encoding: 2395 2395 613
GlifName: uni095B_
Width: 1024
VWidth: 0
Flags: W
LayerCount: 2
Fore
SplineSet
-34 1548 m 257
 -34 1350 l 257
 1024 1350 l 257
 1024 1548 l 257
 -34 1548 l 257
678 1548 m 257
 678 -12 l 257
 877 -12 l 257
 877 1548 l 257
 678 1548 l 257
397 860 m 257
 397 663 l 257
 811 663 l 257
 811 860 l 257
 397 860 l 257
351 860 m 257
 351 413 l 257
 551 413 l 257
 551 860 l 257
 351 860 l 257
41 567 m 257
 41 367 l 257
 551 367 l 257
 551 567 l 257
 41 567 l 257
41 727 m 257
 41 509 l 257
 241 509 l 257
 241 727 l 257
 41 727 l 257
402 -54 m 257
 402 -301 l 257
 666 -301 l 257
 666 -54 l 257
 402 -54 l 257
EndSplineSet
EndChar

StartChar: uni095B_uni0930_uni094D.vatu
Encoding: 65698 -1 614
GlifName: uni095B__uni0930_uni094D_.vatu
Width: 1024
VWidth: 0
Flags: W
LayerCount: 2
Fore
SplineSet
0 336 m 257
 0 89 l 257
 265 89 l 257
 265 336 l 257
 0 336 l 257
129 0 m 257
 386 0 l 257
 726 215 l 257
 726 416 l 257
 129 0 l 257
-34 1548 m 257
 -34 1350 l 257
 1024 1350 l 257
 1024 1548 l 257
 -34 1548 l 257
678 1548 m 257
 678 -12 l 257
 877 -12 l 257
 877 1548 l 257
 678 1548 l 257
397 860 m 257
 397 663 l 257
 811 663 l 257
 811 860 l 257
 397 860 l 257
351 860 m 257
 351 413 l 257
 551 413 l 257
 551 860 l 257
 351 860 l 257
41 567 m 257
 41 367 l 257
 551 367 l 257
 551 567 l 257
 41 567 l 257
41 727 m 257
 41 509 l 257
 241 509 l 257
 241 727 l 257
 41 727 l 257
EndSplineSet
EndChar

StartChar: uni095B_uni094D.half
Encoding: 65699 -1 615
GlifName: uni095B__uni094D_.half
Width: 1024
VWidth: 0
Flags: W
LayerCount: 2
Fore
SplineSet
-34 1548 m 257
 -34 1350 l 257
 1024 1350 l 257
 1024 1548 l 257
 -34 1548 l 257
397 860 m 257
 397 663 l 257
 1011 663 l 257
 1011 860 l 257
 397 860 l 257
351 860 m 257
 351 413 l 257
 551 413 l 257
 551 860 l 257
 351 860 l 257
41 567 m 257
 41 367 l 257
 551 367 l 257
 551 567 l 257
 41 567 l 257
41 727 m 257
 41 509 l 257
 241 509 l 257
 241 727 l 257
 41 727 l 257
402 -54 m 257
 402 -301 l 257
 666 -301 l 257
 666 -54 l 257
 402 -54 l 257
EndSplineSet
EndChar

StartChar: uni095C
Encoding: 2396 2396 617
GlifName: uni095C_
Width: 1024
VWidth: 0
Flags: W
LayerCount: 2
Fore
SplineSet
0 1548 m 257
 0 1348 l 257
 1026 1348 l 257
 1026 1548 l 257
 0 1548 l 257
384 1049 m 257
 384 638 l 257
 583 638 l 257
 583 1049 l 257
 384 1049 l 257
384 746 m 257
 384 538 l 257
 927 538 l 257
 927 746 l 257
 384 746 l 257
728 703 m 257
 728 5 l 257
 927 5 l 257
 927 703 l 257
 728 703 l 257
62 200 m 257
 62 0 l 257
 927 0 l 257
 927 200 l 257
 62 200 l 257
62 331 m 257
 62 5 l 257
 262 5 l 257
 262 331 l 257
 62 331 l 257
384 1134 m 257
 384 926 l 257
 927 926 l 257
 927 1134 l 257
 384 1134 l 257
728 1391 m 257
 728 980 l 257
 927 980 l 257
 927 1391 l 257
 728 1391 l 257
476 -91 m 257
 476 -338 l 257
 740 -338 l 257
 740 -91 l 257
 476 -91 l 257
EndSplineSet
EndChar

StartChar: uni095C_uni0930_uni094D.vatu
Encoding: 65701 -1 618
GlifName: uni095C__uni0930_uni094D_.vatu
Width: 1024
VWidth: 0
Flags: W
LayerCount: 2
Fore
SplineSet
-7 221 m 257
 -7 -26 l 257
 257 -26 l 257
 257 221 l 257
 -7 221 l 257
426 134 m 257
 650 -137 l 257
 932 -137 l 257
 548 255 l 257
 426 134 l 257
548 255 m 257
 141 -143 l 257
 362 -143 l 257
 663 137 l 257
 548 255 l 257
0 1548 m 257
 0 1348 l 257
 1026 1348 l 257
 1026 1548 l 257
 0 1548 l 257
384 1129 m 257
 384 756 l 257
 583 756 l 257
 583 1129 l 257
 384 1129 l 257
384 864 m 257
 384 656 l 257
 927 656 l 257
 927 864 l 257
 384 864 l 257
728 821 m 257
 728 254 l 257
 927 254 l 257
 927 821 l 257
 728 821 l 257
62 449 m 257
 62 249 l 257
 927 249 l 257
 927 449 l 257
 62 449 l 257
62 580 m 257
 62 254 l 257
 262 254 l 257
 262 580 l 257
 62 580 l 257
384 1214 m 257
 384 1006 l 257
 927 1006 l 257
 927 1214 l 257
 384 1214 l 257
728 1391 m 257
 728 1060 l 257
 927 1060 l 257
 927 1391 l 257
 728 1391 l 257
EndSplineSet
EndChar

StartChar: uni095D
Encoding: 2397 2397 620
GlifName: uni095D_
Width: 1024
VWidth: 0
Flags: W
LayerCount: 2
Fore
SplineSet
10 1548 m 257
 10 1348 l 257
 1024 1348 l 257
 1024 1548 l 257
 10 1548 l 257
569 1528 m 257
 569 988 l 257
 769 988 l 257
 769 1528 l 257
 569 1528 l 257
769 1023 m 257
 120 1023 l 257
 120 822 l 257
 769 822 l 257
 769 1023 l 257
99 1023 m 257
 99 5 l 257
 299 5 l 257
 299 1023 l 257
 99 1023 l 257
99 201 m 257
 99 0 l 257
 812 0 l 257
 812 201 l 257
 99 201 l 257
613 544 m 257
 613 0 l 257
 814 0 l 257
 814 544 l 257
 613 544 l 257
560 547 m 257
 560 347 l 257
 812 347 l 257
 812 547 l 257
 560 547 l 257
366 -58 m 257
 366 -305 l 257
 630 -305 l 257
 630 -58 l 257
 366 -58 l 257
EndSplineSet
EndChar

StartChar: uni095D_uni0930_uni094D.vatu
Encoding: 65703 -1 621
GlifName: uni095D__uni0930_uni094D_.vatu
Width: 1024
VWidth: 0
Flags: W
LayerCount: 2
Fore
SplineSet
30 335 m 257
 30 88 l 257
 295 88 l 257
 295 335 l 257
 30 335 l 257
426 230 m 257
 650 -150 l 257
 932 -150 l 257
 548 399 l 257
 426 230 l 257
548 399 m 257
 141 -159 l 257
 362 -159 l 257
 663 234 l 257
 548 399 l 257
10 1548 m 257
 10 1348 l 257
 1024 1348 l 257
 1024 1548 l 257
 10 1548 l 257
569 1528 m 257
 569 988 l 257
 769 988 l 257
 769 1528 l 257
 569 1528 l 257
769 1169 m 257
 120 1169 l 257
 120 968 l 257
 769 968 l 257
 769 1169 l 257
99 1168 m 257
 99 405 l 257
 299 405 l 257
 299 1168 l 257
 99 1168 l 257
99 601 m 257
 99 400 l 257
 812 400 l 257
 812 601 l 257
 99 601 l 257
613 844 m 257
 613 398 l 257
 814 398 l 257
 814 844 l 257
 613 844 l 257
560 847 m 257
 560 647 l 257
 812 647 l 257
 812 847 l 257
 560 847 l 257
EndSplineSet
EndChar

StartChar: uni095E
Encoding: 2398 2398 623
GlifName: uni095E_
Width: 1024
VWidth: 0
Flags: W
LayerCount: 2
Fore
SplineSet
-30 1548 m 257
 -30 1349 l 257
 1031 1349 l 257
 1031 1548 l 257
 -30 1548 l 257
513 1537 m 257
 513 0 l 257
 713 0 l 257
 713 1537 l 257
 513 1537 l 257
94 1548 m 257
 94 837 l 257
 295 837 l 257
 295 1548 l 257
 94 1548 l 257
94 1023 m 257
 94 824 l 257
 971 824 l 257
 971 1023 l 257
 94 1023 l 257
781 1023 m 257
 781 686 l 257
 980 686 l 257
 980 1023 l 257
 781 1023 l 257
198 6 m 257
 198 -241 l 257
 462 -241 l 257
 462 6 l 257
 198 6 l 257
EndSplineSet
EndChar

StartChar: uni095E_uni0930_uni094D.vatu
Encoding: 65705 -1 624
GlifName: uni095E__uni0930_uni094D_.vatu
Width: 1024
VWidth: 0
Flags: W
LayerCount: 2
Fore
SplineSet
104 684 m 257
 104 429 l 257
 369 429 l 257
 369 684 l 257
 104 684 l 257
39 0 m 257
 296 0 l 257
 636 379 l 257
 636 593 l 257
 39 0 l 257
-30 1548 m 257
 -30 1349 l 257
 1031 1349 l 257
 1031 1548 l 257
 -30 1548 l 257
513 1537 m 257
 513 0 l 257
 713 0 l 257
 713 1537 l 257
 513 1537 l 257
94 1548 m 257
 94 837 l 257
 295 837 l 257
 295 1548 l 257
 94 1548 l 257
94 1023 m 257
 94 824 l 257
 971 824 l 257
 971 1023 l 257
 94 1023 l 257
781 1023 m 257
 781 686 l 257
 980 686 l 257
 980 1023 l 257
 781 1023 l 257
EndSplineSet
EndChar

StartChar: uni095E_uni094D.half
Encoding: 65706 -1 625
GlifName: uni095E__uni094D_.half
Width: 1024
VWidth: 0
Flags: W
LayerCount: 2
Fore
SplineSet
-30 1548 m 257
 -30 1349 l 257
 1031 1349 l 257
 1031 1548 l 257
 -30 1548 l 257
513 1537 m 257
 513 0 l 257
 713 0 l 257
 713 1537 l 257
 513 1537 l 257
94 1548 m 257
 94 837 l 257
 295 837 l 257
 295 1548 l 257
 94 1548 l 257
94 1023 m 257
 94 824 l 257
 1018 824 l 257
 1018 1023 l 257
 94 1023 l 257
198 6 m 257
 198 -241 l 257
 462 -241 l 257
 462 6 l 257
 198 6 l 257
EndSplineSet
EndChar

StartChar: uni095F
Encoding: 2399 2399 627
GlifName: uni095F_
Width: 1024
VWidth: 0
Flags: W
LayerCount: 2
Fore
SplineSet
-18 1548 m 257
 -18 1351 l 257
 1023 1351 l 257
 1023 1548 l 257
 -18 1548 l 257
688 1531 m 257
 688 0 l 257
 889 0 l 257
 889 1531 l 257
 688 1531 l 257
125 1484 m 257
 318 846 l 257
 528 846 l 257
 319 1537 l 257
 125 1484 l 257
318 846 m 257
 127 472 l 257
 290 405 l 257
 528 846 l 257
 318 846 l 257
213 640 m 257
 128 472 l 257
 741 199 l 257
 818 372 l 257
 213 640 l 257
402 -54 m 257
 402 -301 l 257
 666 -301 l 257
 666 -54 l 257
 402 -54 l 257
EndSplineSet
EndChar

StartChar: uni095F_uni0930_uni094D.vatu
Encoding: 65708 -1 628
GlifName: uni095F__uni0930_uni094D_.vatu
Width: 1024
VWidth: 0
Flags: W
LayerCount: 2
Fore
SplineSet
0 368 m 257
 0 121 l 257
 265 121 l 257
 265 368 l 257
 0 368 l 257
182 0 m 257
 439 0 l 257
 779 215 l 257
 779 416 l 257
 182 0 l 257
-18 1548 m 257
 -18 1351 l 257
 1023 1351 l 257
 1023 1548 l 257
 -18 1548 l 257
688 1531 m 257
 688 0 l 257
 889 0 l 257
 889 1531 l 257
 688 1531 l 257
125 1484 m 257
 318 846 l 257
 528 846 l 257
 319 1537 l 257
 125 1484 l 257
318 846 m 257
 127 472 l 257
 290 405 l 257
 528 846 l 257
 318 846 l 257
213 640 m 257
 128 472 l 257
 741 199 l 257
 818 372 l 257
 213 640 l 257
EndSplineSet
EndChar

StartChar: uni095F_uni094D.half
Encoding: 65709 -1 629
GlifName: uni095F__uni094D_.half
Width: 1024
VWidth: 0
Flags: W
LayerCount: 2
Fore
SplineSet
247 -124 m 257
 247 -320 l 257
 604 -320 l 257
 604 -124 l 257
 247 -124 l 257
463 -285 m 257
 800 -690 l 257
 944 -527 l 257
 606 -123 l 257
 463 -285 l 257
-18 1548 m 257
 -18 1351 l 257
 1023 1351 l 257
 1023 1548 l 257
 -18 1548 l 257
688 1531 m 257
 688 0 l 257
 889 0 l 257
 889 1531 l 257
 688 1531 l 257
125 1484 m 257
 318 846 l 257
 528 846 l 257
 319 1537 l 257
 125 1484 l 257
318 846 m 257
 127 472 l 257
 290 405 l 257
 528 846 l 257
 318 846 l 257
213 640 m 257
 128 472 l 257
 741 199 l 257
 818 372 l 257
 213 640 l 257
276 146 m 257
 276 -101 l 257
 540 -101 l 257
 540 146 l 257
 276 146 l 257
EndSplineSet
EndChar

